<?xml version="1.0" encoding="utf-8"?>
<!-- Generator: Adobe Illustrator 24.1.2, SVG Export Plug-In . SVG Version: 6.00 Build 0)  -->
<svg version="1.1" xmlns="http://www.w3.org/2000/svg" xmlns:xlink="http://www.w3.org/1999/xlink" x="0px" y="0px"
	 viewBox="0 0 210.72 290.39" style="enable-background:new 0 0 210.72 290.39;" xml:space="preserve">
<style type="text/css">
	.st0{fill:#E8125C;}
</style>
<g id="Layer_3">
</g>
<g id="Layer_2">
	<g>
		<path class="st0" d="M71.79,87.31H0.64v0c0-11.05,8.95-20,20-20h51.15c2.9,0,5.25-2.35,5.25-5.25V20c0-11.05,8.95-20,20-20h0
			v62.06C97.04,76,85.73,87.31,71.79,87.31z"/>
	</g>
	<g>
		<path class="st0" d="M0,64.48L72.48,0.04L15.8,0C7.43,0,0.64,6.79,0.64,15.16L0,64.48z"/>
	</g>
	<g>
		<path class="st0" d="M183.6,122.45h-30V35.33c0-2.92-2.62-5.29-5.84-5.29h-37.24v-30h37.24c19.76,0,35.84,15.83,35.84,35.29
			V122.45z"/>
	</g>
	<g>
		<path class="st0" d="M175.76,290.39H35.92C16.11,290.39,0,274.28,0,254.48V101.56h30v152.92c0,3.26,2.65,5.92,5.92,5.92h139.85
			c2.73,0,4.96-2.22,4.96-4.96V144.48c0-8.69-7.07-15.76-15.76-15.76H87.32v-30h77.64c25.23,0,45.76,20.53,45.76,45.76v110.96
			C210.72,274.71,195.04,290.39,175.76,290.39z"/>
	</g>
</g>
</svg>