<svg width="470" height="367" viewBox="0 0 470 367" fill="none" xmlns="http://www.w3.org/2000/svg">
<path d="M432.861 104.881C440.774 104.881 447.189 98.4626 447.189 90.5449C447.189 82.6271 440.774 76.2085 432.861 76.2085C424.948 76.2085 418.533 82.6271 418.533 90.5449C418.533 98.4626 424.948 104.881 432.861 104.881Z" fill="#EAEEF9"/>
<path d="M291.843 293.519L111.611 366.332C108.595 367.464 105.201 365.955 104.07 363.314L0.379987 105.637C-0.751177 102.619 0.757041 99.2234 3.39642 98.0916L183.628 25.2779C186.645 24.1461 190.038 25.6552 191.17 28.2961L294.86 285.596C296.368 288.992 294.86 292.387 291.843 293.519Z" fill="white"/>
<path d="M212.284 141.1L61.4624 201.841C59.9542 202.595 58.4459 201.841 57.6918 200.332C56.9377 198.823 57.6918 197.314 59.2001 196.559L209.645 135.818C211.153 135.064 212.661 135.818 213.415 137.327C214.169 138.836 213.415 140.345 212.284 141.1Z" fill="#E6ECF5"/>
<path d="M217.94 155.814L67.4956 216.555C65.9874 217.31 64.4791 216.555 63.725 215.046C62.9709 213.537 63.725 212.028 65.2333 211.273L215.678 150.532C217.186 149.778 218.694 150.532 219.449 152.041C220.203 153.551 219.449 155.06 217.94 155.814Z" fill="#E6ECF5"/>
<path d="M223.974 170.151L73.5288 231.269C72.0206 232.024 70.5124 231.269 69.7582 229.76C69.0041 228.251 69.7582 226.742 71.2665 225.987L221.711 165.246C223.219 164.492 224.728 165.246 225.482 166.756C226.236 167.887 225.482 169.774 223.974 170.151Z" fill="#E6ECF5"/>
<path d="M136.12 222.969L79.562 245.983C78.0538 246.737 76.5456 245.983 75.7914 244.474C75.0373 242.965 75.7914 241.456 77.2997 240.701L133.858 217.687C135.366 216.933 136.874 217.687 137.628 219.196C138.005 220.706 137.628 222.215 136.12 222.969Z" fill="#E6ECF5"/>
<path opacity="0.3" d="M243.579 207.5L248.481 219.95C249.235 222.213 248.481 224.854 246.219 225.609L97.2822 285.972C95.0199 286.727 92.3805 285.972 91.6264 283.709L86.7247 270.882C85.9706 268.618 86.7247 265.977 88.987 265.222L237.924 205.236C240.186 204.482 242.448 205.613 243.579 207.5Z" fill="url(#paint0_linear_1198_14665)"/>
<path opacity="0.3" d="M255.269 236.173L260.171 248.623C260.925 250.886 260.171 253.527 257.909 254.282L108.972 314.646C106.71 315.4 104.071 314.646 103.316 312.382L98.0377 299.555C97.2836 297.291 98.0377 294.65 100.3 293.896L249.237 233.909C251.499 233.155 254.138 234.286 255.269 236.173Z" fill="url(#paint1_linear_1198_14665)"/>
<path opacity="0.3" d="M266.58 264.846L271.482 277.296C272.236 279.56 271.482 282.201 269.22 282.956L120.283 343.319C118.021 344.074 115.381 343.319 114.627 341.056L109.726 328.606C108.972 326.342 109.726 323.701 111.988 322.946L260.924 262.96C263.187 261.828 265.826 262.96 266.58 264.846Z" fill="url(#paint2_linear_1198_14665)"/>
<path d="M104.446 259.188L112.741 279.938L97.2822 285.974C95.0199 286.729 92.3805 285.974 91.6264 283.711L86.7247 270.883C85.9706 268.62 86.7247 265.979 88.987 265.224L104.446 259.188Z" fill="#E8125C"/>
<path d="M100.677 293.897L145.923 275.41L154.218 296.16L108.972 314.647C106.71 315.401 104.07 314.647 103.316 312.383L98.0373 299.556C97.2832 297.669 98.4144 295.029 100.677 293.897Z" fill="#E8125C"/>
<path d="M111.988 322.568L118.398 319.927L126.693 340.677L120.283 343.318C118.021 344.073 115.381 343.318 114.627 341.055L109.726 328.605C108.972 326.341 109.726 323.7 111.988 322.568Z" fill="#E8125C"/>
<path d="M114.25 128.274C113.873 107.524 96.9057 90.5464 75.7906 90.5464H75.4136C54.2985 90.5464 37.3311 107.901 37.3311 129.028C37.7081 150.155 55.0526 167.133 76.1677 167.133C87.8564 167.133 98.0368 161.851 105.201 153.928C111.234 147.137 114.627 138.46 114.627 128.651C114.25 128.651 114.25 128.651 114.25 128.274ZM76.1677 155.06C61.8396 155.06 50.1509 143.365 50.1509 129.028C50.1509 114.692 61.8396 102.996 76.1677 102.996H76.5447C90.8728 102.996 102.184 114.315 102.561 128.274C102.561 128.651 102.561 128.651 102.561 129.028C102.561 135.442 100.299 141.478 96.1516 146.005C90.8728 151.665 84.0858 155.06 76.1677 155.06Z" fill="#E6EDF5"/>
<path d="M114.25 128.274H101.807C101.807 114.315 90.1181 102.996 76.1671 102.996H75.79V90.5464H76.1671C96.9051 90.5464 113.873 107.524 114.25 128.274Z" fill="#E8125C"/>
<path d="M365.369 351.996L183.251 284.087C180.235 282.955 178.727 279.56 179.858 276.541L276.384 16.6006C277.515 13.5824 280.909 12.0733 283.925 13.2051L466.042 80.7369C469.059 81.8688 470.567 85.2642 469.436 88.2824L372.91 348.601C371.779 351.619 368.385 353.128 365.369 351.996Z" fill="white"/>
<path opacity="0.4" d="M341.237 130.159L326.532 124.5L338.597 90.9231L353.303 96.2049L341.237 130.159Z" fill="url(#paint3_linear_1198_14665)"/>
<path d="M361.22 137.327L346.138 131.668L364.614 80.3591L379.319 86.0182L361.22 137.327Z" fill="#E8125C"/>
<path d="M400.812 151.288L386.107 146.006L410.238 78.4744L425.321 83.7562L400.812 151.288Z" fill="#E8125C"/>
<path opacity="0.4" d="M419.665 158.078L404.96 152.797L411.37 134.31L426.452 139.969L419.665 158.078Z" fill="url(#paint4_linear_1198_14665)"/>
<path d="M409.106 185.618L256.776 129.027C255.268 128.65 254.513 126.764 254.891 125.255C255.268 123.746 257.153 122.991 258.661 123.368L410.991 179.959C412.499 180.337 413.253 182.223 412.876 183.732C412.122 185.241 410.614 185.996 409.106 185.618Z" fill="#E6ECF5"/>
<path d="M403.452 200.332L251.121 143.742C249.613 143.364 248.859 141.478 249.236 139.969C249.613 138.46 251.499 137.705 253.007 138.082L405.337 194.673C406.845 195.051 407.599 196.937 407.222 198.446C406.845 199.955 404.96 201.087 403.452 200.332Z" fill="#E6ECF5"/>
<path d="M398.171 215.047L245.841 158.456C244.333 158.078 243.579 156.192 243.956 154.683C244.333 153.174 246.218 152.419 247.726 152.797L400.057 209.387C401.565 209.765 402.319 211.651 401.942 213.16C401.188 215.047 399.679 215.801 398.171 215.047Z" fill="#E6ECF5"/>
<path d="M297.877 194.674L240.565 173.546C239.057 173.169 238.303 171.283 238.68 169.774C239.057 168.265 240.942 167.51 242.45 167.887L299.762 189.015C301.271 189.392 302.025 191.278 301.648 192.787C300.894 194.296 299.385 195.051 297.877 194.674Z" fill="#DDDDDD"/>
<path opacity="0.3" d="M387.616 255.792L383.091 268.619C382.337 270.883 379.698 272.015 377.436 271.26L345.009 259.188L226.614 215.047C224.351 214.292 223.22 211.651 223.974 209.388L228.499 196.56C229.253 194.297 231.892 193.165 234.155 193.919L351.796 237.683L384.6 249.756C387.239 251.265 388.37 253.528 387.616 255.792Z" fill="url(#paint5_linear_1198_14665)"/>
<path opacity="0.3" d="M376.682 284.841L372.158 297.668C371.404 299.932 368.764 301.064 366.502 300.309L355.567 296.159L216.057 244.473C213.795 243.718 212.664 241.077 213.418 238.814L217.942 225.986C218.696 223.723 221.336 222.591 223.598 223.346L363.485 275.409L374.043 279.559C376.305 280.314 377.436 282.577 376.682 284.841Z" fill="url(#paint6_linear_1198_14665)"/>
<path opacity="0.3" d="M366.123 313.891L361.598 326.718C360.844 328.982 358.205 330.114 355.942 329.359L300.138 308.609L205.498 273.523C203.235 272.768 202.104 270.127 202.858 267.864L207.383 255.036C208.137 252.773 210.776 251.641 213.039 252.395L309.942 288.236L363.483 308.232C365.746 308.986 366.877 311.627 366.123 313.891Z" fill="url(#paint7_linear_1198_14665)"/>
<path d="M213.039 252.397L309.942 288.238L300.138 308.233L205.498 273.147C203.235 272.392 202.104 269.752 202.858 267.488L207.383 254.661C208.137 252.774 210.776 251.642 213.039 252.397Z" fill="url(#paint8_linear_1198_14665)"/>
<path d="M223.974 209.764L228.499 196.937C229.253 194.673 231.892 193.541 234.155 194.296L351.796 238.06L344.255 258.81L226.614 215.046C224.351 214.291 223.22 212.028 223.974 209.764Z" fill="url(#paint9_linear_1198_14665)"/>
<path d="M363.485 275.409L355.567 296.159L216.057 244.473C213.795 243.718 212.664 241.077 213.418 238.814L217.942 225.986C218.696 223.723 221.336 222.591 223.598 223.346L363.485 275.409Z" fill="url(#paint10_linear_1198_14665)"/>
<path d="M262.434 204.86L254.893 225.61L226.614 215.047C224.351 214.292 223.22 211.651 223.974 209.388L228.499 196.56C229.253 194.297 231.892 193.165 234.155 193.919L262.434 204.86Z" fill="#DDDDDD"/>
<path d="M223.598 223.345L251.877 233.909L244.336 254.659L216.057 244.095C213.795 243.341 212.664 240.7 213.418 238.436L217.942 225.609C219.074 223.723 221.336 222.591 223.598 223.345Z" fill="#DDDDDD"/>
<path d="M213.039 252.397L241.318 262.961L233.777 283.711L205.498 273.147C203.235 272.392 202.104 269.752 202.858 267.488L207.383 254.661C208.137 252.774 210.776 251.642 213.039 252.397Z" fill="#DDDDDD"/>
<path d="M332.94 288.991H138.757C135.741 288.991 133.102 286.35 133.102 283.332V5.65909C133.102 2.64091 135.741 0 138.757 0H332.94C335.957 0 338.596 2.64091 338.596 5.65909V282.955C338.973 286.35 336.334 288.991 332.94 288.991Z" fill="white"/>
<path d="M315.973 106.764H153.839C152.331 106.764 150.823 105.633 150.823 103.748C150.823 102.24 151.954 100.731 153.839 100.731H315.973C317.481 100.731 318.989 101.863 318.989 103.748C318.989 105.256 317.481 106.764 315.973 106.764Z" fill="#E6ECF5"/>
<path d="M315.973 122.234H153.839C152.331 122.234 150.823 121.102 150.823 119.217C150.823 117.709 151.954 116.201 153.839 116.201H315.973C317.481 116.201 318.989 117.332 318.989 119.217C318.989 121.102 317.481 122.234 315.973 122.234Z" fill="#E6ECF5"/>
<path d="M315.973 138.078H153.839C152.331 138.078 150.823 136.946 150.823 135.061C150.823 133.553 151.954 132.045 153.839 132.045H315.973C317.481 132.045 318.989 133.176 318.989 135.061C318.989 136.946 317.481 138.078 315.973 138.078Z" fill="#E6ECF5"/>
<path d="M315.596 197.31H260.923C259.415 197.31 257.907 196.179 257.907 194.294C257.907 192.786 259.038 191.278 260.923 191.278H315.596C317.104 191.278 318.613 192.409 318.613 194.294C318.235 195.802 317.104 197.31 315.596 197.31Z" fill="#E6ECF5"/>
<path d="M227.363 213.536C226.986 192.786 210.019 175.809 188.904 175.809H188.527C167.412 175.809 150.444 193.163 150.444 214.29C150.444 235.418 167.789 252.772 188.904 252.772C200.593 252.772 210.773 247.49 217.937 239.568C223.97 232.777 227.363 224.1 227.363 214.29C227.363 213.913 227.363 213.536 227.363 213.536ZM188.904 239.945C174.576 239.945 162.887 228.25 162.887 213.913C162.887 199.577 174.576 187.881 188.904 187.881H189.281C203.609 187.881 214.921 199.2 215.298 213.159C215.298 213.536 215.298 213.536 215.298 213.913C215.298 220.327 213.035 226.363 208.888 230.89C203.609 236.55 196.822 239.945 188.904 239.945Z" fill="#E6EDF5"/>
<path d="M227.365 213.536H214.923C214.546 199.577 203.234 188.259 188.906 188.259H188.529V175.809H188.906C210.021 175.809 226.988 192.409 227.365 213.536Z" fill="url(#paint11_linear_1198_14665)"/>
<path d="M227.366 213.914C227.366 223.723 223.972 232.401 217.94 239.192L208.513 231.269C212.661 226.742 214.923 220.705 214.923 214.292C214.923 213.914 214.923 213.914 214.923 213.537H227.366V213.914Z" fill="url(#paint12_linear_1198_14665)"/>
<path d="M247.725 198.446C250.015 198.446 251.872 196.588 251.872 194.296C251.872 192.004 250.015 190.146 247.725 190.146C245.434 190.146 243.577 192.004 243.577 194.296C243.577 196.588 245.434 198.446 247.725 198.446Z" fill="#E6ECF5"/>
<path d="M315.596 214.665H260.923C259.415 214.665 257.907 213.534 257.907 211.648C257.907 210.14 259.038 208.632 260.923 208.632H315.596C317.104 208.632 318.613 209.763 318.613 211.648C318.235 213.156 317.104 214.665 315.596 214.665Z" fill="#E6ECF5"/>
<path d="M247.725 215.8C250.015 215.8 251.872 213.942 251.872 211.65C251.872 209.358 250.015 207.5 247.725 207.5C245.434 207.5 243.577 209.358 243.577 211.65C243.577 213.942 245.434 215.8 247.725 215.8Z" fill="url(#paint13_linear_1198_14665)"/>
<path d="M315.596 232.019H260.923C259.415 232.019 257.907 230.888 257.907 229.002C257.907 227.494 259.038 225.986 260.923 225.986H315.596C317.104 225.986 318.613 227.117 318.613 229.002C318.235 230.511 317.104 232.019 315.596 232.019Z" fill="#E6ECF5"/>
<path d="M247.725 233.154C250.015 233.154 251.872 231.296 251.872 229.004C251.872 226.712 250.015 224.854 247.725 224.854C245.434 224.854 243.577 226.712 243.577 229.004C243.577 231.296 245.434 233.154 247.725 233.154Z" fill="url(#paint14_linear_1198_14665)"/>
<path d="M151.955 86.0177H318.613V18.4858L292.219 31.6904L278.268 41.4995L253.382 41.1222L231.513 52.4404L212.66 55.0813L205.873 62.6267L186.267 75.0767L167.037 78.4722L151.955 86.0177Z" fill="url(#paint15_linear_1198_14665)"/>
<path d="M151.955 86.0173H318.613V34.7083L292.219 44.5173L278.268 52.0628L253.382 51.6855L231.513 60.3628L212.66 62.6264L205.873 67.9083L186.267 77.7173L167.037 80.3582L151.955 86.0173Z" fill="#E6EDF5"/>
<path d="M151.955 86.0178H318.613V56.9678L292.219 62.6269L278.268 66.7769H253.382L231.513 71.3041L212.66 72.8132L205.873 75.8314L186.267 81.1132L167.037 82.6223L151.955 86.0178Z" fill="#CED7E2"/>
<path d="M207.817 268.546C215.744 263.376 224.86 260.593 235.164 260.593C262.511 260.593 284.705 282.86 284.705 310.296C284.705 337.733 262.511 360 235.164 360C207.817 360 185.623 337.733 185.623 310.296C185.623 292.801 194.342 277.691 207.817 268.546Z" fill="url(#paint16_linear_1198_14665)"/>
<path d="M281.14 328.19L253.001 299.959L243.489 296.38L233.184 292.404L217.331 306.718L233.977 323.419L231.599 334.95L253.001 356.422L281.14 328.19Z" fill="url(#paint17_linear_1198_14665)"/>
<path d="M238.334 285.246L252.998 299.958C254.98 301.947 254.98 304.73 252.998 306.718C251.016 308.706 248.242 308.706 246.26 306.718L239.523 299.958V331.769C239.523 334.154 237.541 336.54 234.767 336.54C232.389 336.54 230.011 334.552 230.011 331.769V299.958L223.273 306.718C221.292 308.706 218.517 308.706 216.536 306.718C215.743 305.923 215.347 304.73 215.347 303.537C215.347 302.344 215.743 301.151 216.536 300.356L231.2 285.644C231.992 284.849 233.181 284.451 234.37 284.451C235.559 284.451 237.541 284.451 238.334 285.246Z" fill="url(#paint18_linear_1198_14665)"/>
<defs>
<linearGradient id="paint0_linear_1198_14665" x1="86.2632" y1="245.63" x2="248.891" y2="245.63" gradientUnits="userSpaceOnUse">
<stop stop-color="#83A6FF"/>
<stop offset="1" stop-color="#5A78FF"/>
</linearGradient>
<linearGradient id="paint1_linear_1198_14665" x1="97.8292" y1="274.295" x2="260.457" y2="274.295" gradientUnits="userSpaceOnUse">
<stop stop-color="#83A6FF"/>
<stop offset="1" stop-color="#5A78FF"/>
</linearGradient>
<linearGradient id="paint2_linear_1198_14665" x1="109.393" y1="302.962" x2="272.02" y2="302.962" gradientUnits="userSpaceOnUse">
<stop stop-color="#83A6FF"/>
<stop offset="1" stop-color="#5A78FF"/>
</linearGradient>
<linearGradient id="paint3_linear_1198_14665" x1="326.41" y1="110.45" x2="353.464" y2="110.45" gradientUnits="userSpaceOnUse">
<stop stop-color="#83A6FF"/>
<stop offset="1" stop-color="#5A78FF"/>
</linearGradient>
<linearGradient id="paint4_linear_1198_14665" x1="404.864" y1="146.34" x2="426.385" y2="146.34" gradientUnits="userSpaceOnUse">
<stop stop-color="#83A6FF"/>
<stop offset="1" stop-color="#5A78FF"/>
</linearGradient>
<linearGradient id="paint5_linear_1198_14665" x1="223.852" y1="232.766" x2="387.743" y2="232.766" gradientUnits="userSpaceOnUse">
<stop stop-color="#FF66A9"/>
<stop offset="1" stop-color="#F53689"/>
</linearGradient>
<linearGradient id="paint6_linear_1198_14665" x1="213.09" y1="261.739" x2="376.978" y2="261.739" gradientUnits="userSpaceOnUse">
<stop stop-color="#FF66A9"/>
<stop offset="1" stop-color="#F53689"/>
</linearGradient>
<linearGradient id="paint7_linear_1198_14665" x1="202.322" y1="290.719" x2="366.22" y2="290.719" gradientUnits="userSpaceOnUse">
<stop stop-color="#FF66A9"/>
<stop offset="1" stop-color="#F53689"/>
</linearGradient>
<linearGradient id="paint8_linear_1198_14665" x1="202.322" y1="280.227" x2="309.713" y2="280.227" gradientUnits="userSpaceOnUse">
<stop stop-color="#FF66A9"/>
<stop offset="1" stop-color="#F53689"/>
</linearGradient>
<linearGradient id="paint9_linear_1198_14665" x1="223.852" y1="226.59" x2="352.196" y2="226.59" gradientUnits="userSpaceOnUse">
<stop stop-color="#FF66A9"/>
<stop offset="1" stop-color="#F53689"/>
</linearGradient>
<linearGradient id="paint10_linear_1198_14665" x1="213.09" y1="259.538" x2="363.399" y2="259.538" gradientUnits="userSpaceOnUse">
<stop stop-color="#FF66A9"/>
<stop offset="1" stop-color="#F53689"/>
</linearGradient>
<linearGradient id="paint11_linear_1198_14665" x1="188.698" y1="194.508" x2="227.216" y2="194.508" gradientUnits="userSpaceOnUse">
<stop stop-color="#FF66A9"/>
<stop offset="1" stop-color="#F53689"/>
</linearGradient>
<linearGradient id="paint12_linear_1198_14665" x1="208.524" y1="226.263" x2="227.229" y2="226.263" gradientUnits="userSpaceOnUse">
<stop stop-color="#83A6FF"/>
<stop offset="1" stop-color="#5A78FF"/>
</linearGradient>
<linearGradient id="paint13_linear_1198_14665" x1="243.84" y1="211.636" x2="251.869" y2="211.636" gradientUnits="userSpaceOnUse">
<stop stop-color="#FF66A9"/>
<stop offset="1" stop-color="#F53689"/>
</linearGradient>
<linearGradient id="paint14_linear_1198_14665" x1="243.84" y1="229.018" x2="251.869" y2="229.018" gradientUnits="userSpaceOnUse">
<stop stop-color="#83A6FF"/>
<stop offset="1" stop-color="#5A78FF"/>
</linearGradient>
<linearGradient id="paint15_linear_1198_14665" x1="152.102" y1="52.2389" x2="318.761" y2="52.2389" gradientUnits="userSpaceOnUse">
<stop stop-color="#FF66A9"/>
<stop offset="1" stop-color="#F53689"/>
</linearGradient>
<linearGradient id="paint16_linear_1198_14665" x1="235.121" y1="263.012" x2="235.121" y2="363.508" gradientUnits="userSpaceOnUse">
<stop stop-color="#FF6EA0"/>
<stop offset="1" stop-color="#FF75A5"/>
</linearGradient>
<linearGradient id="paint17_linear_1198_14665" x1="235.059" y1="310.211" x2="263.544" y2="338.602" gradientUnits="userSpaceOnUse">
<stop stop-color="#E8125C"/>
<stop offset="1" stop-color="#FF6DA0"/>
</linearGradient>
<linearGradient id="paint18_linear_1198_14665" x1="253.527" y1="328.707" x2="226.812" y2="302.079" gradientUnits="userSpaceOnUse">
<stop offset="0.0113208" stop-color="#C2D1FF"/>
<stop offset="1" stop-color="white"/>
</linearGradient>
</defs>
</svg>