<svg width="48" height="48" viewBox="0 0 48 48" fill="none" xmlns="http://www.w3.org/2000/svg">
<path d="M24 46C36.1503 46 46 36.1503 46 24C46 11.8497 36.1503 2 24 2C11.8497 2 2 11.8497 2 24C2 36.1503 11.8497 46 24 46Z" stroke="#272E35" stroke-width="3" stroke-miterlimit="10" stroke-linecap="round" stroke-linejoin="round"/>
<path d="M20.9316 30.9171L27.0596 18.0795" stroke="#272E35" stroke-width="2.5" stroke-linecap="round"/>
<path d="M17.6035 20.2091L14.8305 22.8744L17.2867 25.8835H17.2861C17.7137 26.4117 17.6665 27.2161 17.1802 27.6812C16.9661 27.8861 16.6902 27.9994 16.4048 28C16.0675 27.9994 15.7465 27.8418 15.5235 27.5668L12.2921 23.6264C11.8646 23.0981 11.9118 22.2937 12.3981 21.8286L16.0408 18.322C16.5271 17.8535 17.272 17.9019 17.7033 18.4302C18.135 18.9584 18.0904 19.7662 17.6036 20.2348L17.6035 20.2091Z" fill="#272E35"/>
<path d="M35.6228 27.2389L31.952 30.684V30.6845C31.7377 30.8873 31.4615 30.9994 31.1757 31C30.838 30.9994 30.5166 30.8428 30.2934 30.5707C30.0854 30.3172 29.9808 29.9854 30.0029 29.6485C30.025 29.3116 30.172 28.9984 30.411 28.7787L33.1873 26.1793L30.764 23.1761C30.5245 22.931 30.3916 22.5896 30.3989 22.2347C30.4058 21.8798 30.5518 21.5446 30.8013 21.3113C31.0502 21.0781 31.3795 20.9677 31.7083 21.0082C32.0371 21.0482 32.3349 21.2353 32.5287 21.5226L35.7405 25.523C36.1276 26.0396 36.0761 26.7889 35.6229 27.239L35.6228 27.2389Z" fill="#272E35"/>
</svg>