<svg width="48" height="48" viewBox="0 0 48 48" fill="none" xmlns="http://www.w3.org/2000/svg">
<path d="M36.2757 25.4347L36.2755 25.4346L36.2474 25.4346C34.3229 25.4402 32.4611 26.1196 30.9849 27.3541L30.9849 27.3541C29.5374 28.565 28.5504 30.2353 28.1865 32.0849C25.6774 31.3352 23.0038 31.3352 20.4948 32.0849C19.9652 29.392 18.1271 27.1376 15.5904 26.0784C13.0193 25.0047 10.0793 25.3051 7.7781 26.8765C5.47687 28.4479 4.12709 31.0768 4.19125 33.8624C4.25512 36.6483 5.72441 39.2123 8.09537 40.6764L8.09538 40.6764C10.4663 42.1401 13.417 42.3052 15.9361 41.1145C18.4375 39.9323 20.1763 37.5735 20.5669 34.8375C23.0086 33.9256 25.6975 33.9257 28.1392 34.8376C28.4406 36.9112 29.5228 38.7924 31.1657 40.0954C32.8239 41.4111 34.926 42.0359 37.0336 41.8405C39.1412 41.6451 41.0924 40.6439 42.4806 39.0459C43.8687 37.4478 44.5868 35.3762 44.4857 33.2617L44.3858 33.2664L44.4857 33.2616C44.3842 31.1475 43.4714 29.1535 41.9369 27.6956C40.4092 26.2442 38.3825 25.4351 36.2757 25.4347ZM12.4409 39.2363L12.4095 39.2363C10.9421 39.239 9.53266 38.6634 8.4864 37.6345C7.44014 36.6054 6.84141 35.206 6.81928 33.7385C6.79751 32.2715 7.35432 30.8547 8.36941 29.795C9.38455 28.7354 10.7759 28.1179 12.2429 28.0767C13.7097 28.0355 15.1339 28.5736 16.2066 29.5746L16.2066 29.5746C17.274 30.57 17.9084 31.9438 17.9749 33.4015C17.8409 33.7049 17.8279 34.0485 17.9394 34.3612C17.7675 35.7025 17.1146 36.936 16.1018 37.8326L16.1018 37.8327C15.0908 38.728 13.7902 39.2264 12.4409 39.2363ZM36.2742 39.2364L36.2479 39.2363C34.8874 39.234 33.5744 38.7348 32.5555 37.8326L32.5555 37.8326C31.5427 36.936 30.8898 35.7024 30.7179 34.3611C30.8294 34.0485 30.8164 33.7049 30.6825 33.4014C30.7499 31.9459 31.3847 30.5744 32.4514 29.5808L32.4514 29.5808C33.5234 28.5818 34.9459 28.0447 36.4109 28.0866L36.4138 27.9866L36.411 28.0866C37.876 28.1281 39.2656 28.7449 40.2794 29.8032C41.2931 30.8616 41.8493 32.2763 41.8278 33.7421C41.8064 35.2075 41.2091 36.6055 40.1648 37.6336C39.1268 38.6556 37.7304 39.2307 36.2742 39.2364Z" fill="#272E35" stroke="#272E35" stroke-width="0.2"/>
<path d="M8.94894 10.7425L8.94893 10.7425L6.71554 18.7411H3.22224C2.49213 18.7411 1.9 19.3329 1.9 20.0634C1.9 20.7935 2.49212 21.3856 3.22224 21.3856H45.434C46.1641 21.3856 46.7563 20.7935 46.7563 20.0634C46.7563 19.3329 46.1641 18.7411 45.434 18.7411H45.4335H41.9405L39.7068 10.7425L39.6105 10.7694L39.7068 10.7425C39.0948 8.55261 37.0442 6.9 34.9221 6.9H13.7337C11.6115 6.9 9.56099 8.55261 8.94894 10.7425ZM37.1578 11.4514L39.1904 18.7411H9.46548L11.4981 11.4514L11.4982 11.4512C11.6412 10.9352 11.971 10.4568 12.3831 10.1074C12.7959 9.75747 13.2823 9.54448 13.7338 9.54448H34.9221C35.3811 9.54448 35.8674 9.75761 36.2782 10.1073C36.6883 10.4564 37.0146 10.9348 37.1577 11.4512L37.1578 11.4514Z" fill="#272E35" stroke="#272E35" stroke-width="0.2"/>
</svg>