<svg width="48" height="48" viewBox="0 0 48 48" fill="none" xmlns="http://www.w3.org/2000/svg">
<g clip-path="url(#clip0_1198_15786)">
<path d="M23.732 17.4447C23.732 16.7512 23.1453 16.1646 22.4519 16.1646H6.45197C5.75852 16.1646 5.17188 16.7512 5.17188 17.4447C5.17188 18.1381 5.75856 18.7247 6.45197 18.7247H22.4519C23.199 18.7244 23.732 18.1377 23.732 17.4447Z" fill="#272E35"/>
<path d="M21.6526 23.578C21.6526 22.8845 21.0659 22.2979 20.3725 22.2979L11.9461 22.2982C11.2527 22.2982 10.666 22.8849 10.666 23.5783C10.666 24.2717 11.2527 24.8584 11.9461 24.8584H20.3728C21.1194 24.8581 21.6526 24.2714 21.6526 23.578V23.578Z" fill="#272E35"/>
<path d="M34.1867 10.0313H1.28009C0.586647 10.0313 0 10.618 0 11.3114C0 12.0048 0.586685 12.5915 1.28009 12.5915H34.24C40.48 12.5915 45.4933 17.6581 45.4933 23.8448C45.4933 30.0316 40.4268 35.0981 34.24 35.0981C30.0269 35.0981 26.1868 32.7514 24.2134 29.0182C24.0002 28.5914 23.5735 28.3247 23.0932 28.3247L16.5337 28.3243C15.8402 28.3243 15.2536 28.911 15.2536 29.6044C15.2536 30.2978 15.8403 30.8845 16.5337 30.8845H22.2937C24.7472 35.0977 29.2802 37.7112 34.187 37.7112C41.8134 37.6576 48.0003 31.4709 48.0003 23.8445C48.0003 16.2182 41.8135 10.0312 34.187 10.0312L34.1867 10.0313Z" fill="#272E35"/>
<path d="M34.1873 14.8313C33.4407 14.8313 32.8008 15.4712 32.8008 16.2179V24.1111V24.3779C32.8008 24.4846 32.854 24.5378 32.854 24.6446C32.9072 24.6978 32.9072 24.8046 32.9608 24.8578C33.014 24.911 33.0675 25.0177 33.1207 25.0709L36.6408 28.591C36.9076 28.8578 37.2807 29.0177 37.6006 29.0177C37.9741 29.0177 38.2941 28.8578 38.5604 28.591C39.0939 28.0575 39.0939 27.1509 38.5604 26.6178L35.4139 23.4712V16.2183C35.5738 15.4713 34.9871 14.8314 34.1873 14.8314L34.1873 14.8313Z" fill="#272E35"/>
</g>
<defs>
<clipPath id="clip0_1198_15786">
<rect width="48" height="48" fill="white"/>
</clipPath>
</defs>
</svg>