<svg width="48" height="48" viewBox="0 0 48 48" fill="none" xmlns="http://www.w3.org/2000/svg">
<path d="M21.4812 18.2156C22.0266 18.7727 22.0172 19.6666 21.46 20.2122C20.9029 20.7576 20.009 20.7482 19.4637 20.191C16.5855 17.2515 13.6404 15.8238 10.5884 15.8238C6.30023 15.8238 2.82396 19.3001 2.82396 23.5882C2.82396 27.8767 6.3005 31.3527 10.5884 31.3527C14.8407 31.3527 18.9199 28.5618 22.832 22.7955C27.2208 16.3264 32.083 13 37.4118 13C43.2594 13 48 17.7406 48 23.5882C48 29.4361 43.2594 34.1765 37.4118 34.1765C33.5407 34.1765 29.8969 32.4105 26.5204 28.962C25.9748 28.4051 25.9842 27.5113 26.5413 26.9657C27.0985 26.4203 27.9923 26.4297 28.5377 26.9866C31.4159 29.9258 34.3604 31.353 37.4116 31.353C41.6998 31.353 45.176 27.8767 45.176 23.5886C45.176 19.3001 41.6995 15.8241 37.4116 15.8241C33.1593 15.8241 29.0801 18.6149 25.168 24.3812C20.7792 30.8503 15.917 34.1768 10.5882 34.1768C4.7406 34.1768 0 29.4365 0 23.5886C0 17.7409 4.7406 13.0003 10.5882 13.0003C14.4599 13.0003 18.104 14.7669 21.4812 18.2156Z" fill="#272E35"/>
</svg>