<svg width="48" height="48" viewBox="0 0 48 48" fill="none" xmlns="http://www.w3.org/2000/svg">
<g clip-path="url(#clip0_1198_15854)">
<path d="M44.4008 40.8036H3.59924C1.61453 40.8036 0 39.1891 0 37.2043V13.2031C0 11.2184 1.61442 9.60385 3.59924 9.60385H44.4008C46.3855 9.60385 48 11.2183 48 13.2031V37.2043C48 39.189 46.3856 40.8036 44.4008 40.8036ZM3.59924 12.0032C2.93736 12.0032 2.39945 12.5415 2.39945 13.203V37.2042C2.39945 37.8657 2.93731 38.404 3.59924 38.404H44.4008C45.0626 38.404 45.6005 37.8657 45.6005 37.2042V13.203C45.6005 12.5415 45.0627 12.0032 44.4008 12.0032H3.59924Z" fill="#272E35"/>
<path d="M24.0001 29.4764C23.4858 29.4764 22.9714 29.3127 22.5428 28.9851L6.47105 16.7009C5.94494 16.2984 5.84443 15.5456 6.24608 15.019C6.65034 14.4933 7.40231 14.3933 7.92845 14.7945L24.0002 27.0775L40.0708 14.7945C40.5991 14.3933 41.3501 14.4934 41.7532 15.019C42.1548 15.5456 42.0543 16.2983 41.5282 16.7009L25.4565 28.984C25.0274 29.3121 24.513 29.4757 24 29.4757L24.0001 29.4764Z" fill="#272E35"/>
<path d="M40.7995 35.8607C40.5454 35.8607 40.2899 35.7807 40.0719 35.614L28.4284 26.7155L25.4571 28.9852C24.5985 29.6419 23.3996 29.6406 22.5433 28.9852L19.572 26.7155L7.92844 35.614C7.40233 36.017 6.65035 35.9169 6.24608 35.3895C5.84442 34.8629 5.94495 34.1101 6.47105 33.7075L18.8432 24.2515C19.2744 23.9221 19.8693 23.9221 20.3005 24.2515L24.0002 27.0788L27.6991 24.2515C28.1303 23.9221 28.7252 23.9221 29.1564 24.2515L41.5285 33.7075C42.0547 34.1101 42.1552 34.8629 41.7535 35.3895C41.5168 35.6984 41.1595 35.8607 40.7988 35.8607L40.7995 35.8607Z" fill="#272E35"/>
</g>
<defs>
<clipPath id="clip0_1198_15854">
<rect width="48" height="48" fill="white"/>
</clipPath>
</defs>
</svg>