<svg width="48" height="48" viewBox="0 0 48 48" fill="none" xmlns="http://www.w3.org/2000/svg">
<path fill-rule="evenodd" clip-rule="evenodd" d="M22.324 29.2781L13.513 20.3543C12.0906 18.9293 14.224 16.7922 15.6454 18.2172L21.5841 24.1737C21.8756 24.4662 22.1138 24.366 22.1138 23.9481V7.51476C22.1138 6.67678 22.7889 6 23.6217 6C24.4602 6 25.1301 6.67829 25.1301 7.51476V23.9481C25.1301 24.3639 25.3667 24.4667 25.6592 24.1737L31.5979 18.2172C33.0204 16.7922 35.1528 18.9292 33.7303 20.3543L24.9773 29.2671C24.2421 30.016 23.0558 30.0191 22.3242 29.2781L22.324 29.2781ZM37.222 36.2244V30.9335C37.222 30.0986 37.8981 29.4219 38.7329 29.4219C39.5677 29.4219 40.2439 30.0987 40.2439 30.9335V37.737C40.2439 38.9913 39.2236 40 37.9708 40H9.27314C8.0225 40 7 38.9839 7 37.737V30.9335C7 30.0986 7.67618 29.4219 8.51098 29.4219C9.34577 29.4219 10.022 30.0987 10.022 30.9335V36.2244C10.022 36.6355 10.3603 36.9775 10.7777 36.9775H36.4666C36.8782 36.9775 37.2224 36.6402 37.2224 36.2244H37.222Z" fill="#272E35"/>
</svg>