<svg width="167" height="57" viewBox="0 0 167 57" fill="none" xmlns="http://www.w3.org/2000/svg">
<g clip-path="url(#clip0_1284_1869)">
<path d="M153.702 0.155762H13.3074C12.7952 0.155762 12.2886 0.155762 11.7792 0.158553C11.3522 0.161344 10.9279 0.169717 10.4967 0.176695C9.55958 0.186928 8.62463 0.268573 7.69994 0.420921C6.77708 0.577514 5.88315 0.872512 5.04835 1.29595C4.2134 1.72348 3.45054 2.27914 2.78752 2.94272C2.12219 3.60328 1.56756 4.36666 1.14493 5.20355C0.720783 6.03929 0.426653 6.93486 0.272695 7.85933C0.117406 8.7828 0.033887 9.7169 0.0228867 10.6533C0.008931 11.0817 0.008931 11.5115 0.00195312 11.9386V44.2001C0.008931 44.6327 0.0103266 45.0514 0.0228867 45.4854C0.0343427 46.4218 0.118328 47.3559 0.27409 48.2794C0.427056 49.2048 0.720734 50.1013 1.14493 50.9379C1.56796 51.7716 2.12313 52.5313 2.78892 53.1876C3.44867 53.8534 4.21106 54.4089 5.04695 54.833C5.88224 55.2573 6.77656 55.5537 7.69994 55.7122C8.62471 55.8642 9.55957 55.9468 10.4967 55.9592C10.9293 55.969 11.3522 55.9745 11.7792 55.9745C12.29 55.9773 12.7952 55.9773 13.3074 55.9773H153.702C154.205 55.9773 154.713 55.9773 155.215 55.9745C155.639 55.9745 156.076 55.969 156.502 55.9606C157.437 55.9483 158.37 55.8653 159.293 55.7122C160.219 55.5525 161.116 55.2562 161.956 54.833C162.791 54.4087 163.553 53.8532 164.212 53.1876C164.877 52.528 165.434 51.7678 165.862 50.9351C166.283 50.098 166.575 49.2015 166.726 48.2766C166.881 47.353 166.967 46.4191 166.984 45.4826C166.989 45.05 166.989 44.6313 166.989 44.1973C167.001 43.6893 167.001 43.1855 167.001 42.6705V13.464C167.001 12.9532 167.001 12.4452 166.989 11.94C166.989 11.5129 166.989 11.0831 166.984 10.6561C166.967 9.71916 166.881 8.78479 166.726 7.86073C166.574 6.93672 166.282 6.04122 165.86 5.20495C164.999 3.52623 163.634 2.15964 161.956 1.29734C161.116 0.874863 160.219 0.579941 159.293 0.422316C158.37 0.268856 157.437 0.186739 156.502 0.176695C156.076 0.169717 155.639 0.161344 155.215 0.158553C154.713 0.155762 154.203 0.155762 153.702 0.155762V0.155762Z" fill="#A6A6A6"/>
<path d="M11.786 54.7574C11.3604 54.7574 10.9459 54.7518 10.5244 54.7434C9.65007 54.7317 8.77778 54.6552 7.91471 54.5145C7.11064 54.3758 6.33173 54.1181 5.60364 53.7498C4.88197 53.3847 4.2237 52.9059 3.65403 52.3319C3.07635 51.764 2.5955 51.1054 2.23054 50.3822C1.8608 49.6547 1.60477 48.8749 1.47135 48.0698C1.32801 47.2047 1.25057 46.3299 1.23968 45.4531C1.22991 45.16 1.21875 44.1789 1.21875 44.1789V11.9411C1.21875 11.9411 1.23131 10.9754 1.23968 10.6921C1.25008 9.81669 1.32706 8.94333 1.46995 8.07959C1.60339 7.27228 1.85941 6.49011 2.22915 5.76015C2.59299 5.03766 3.07134 4.37881 3.64565 3.80913C4.21917 3.23385 4.8794 2.7521 5.60225 2.38146C6.32884 2.01427 7.10648 1.75835 7.90913 1.62227C8.77489 1.48071 9.65004 1.4042 10.5272 1.39339L11.786 1.37665H155.208L156.482 1.39479C157.351 1.40487 158.218 1.48045 159.075 1.62087C159.886 1.75864 160.672 2.01639 161.407 2.38565C162.855 3.13211 164.034 4.31304 164.777 5.76294C165.141 6.488 165.392 7.26388 165.524 8.06424C165.669 8.93498 165.75 9.81513 165.767 10.6977C165.771 11.0926 165.771 11.5183 165.771 11.9397C165.782 12.4631 165.782 12.9613 165.782 13.4637V42.6717C165.782 43.1783 165.782 43.6737 165.771 44.1719C165.771 44.6255 165.771 45.0414 165.765 45.4698C165.749 46.3364 165.67 47.2008 165.528 48.0558C165.398 48.8667 165.144 49.6528 164.774 50.3864C164.406 51.1017 163.928 51.7545 163.357 52.3207C162.786 52.898 162.126 53.3796 161.403 53.747C160.67 54.1183 159.885 54.377 159.075 54.5145C158.212 54.6554 157.341 54.7314 156.467 54.742C156.058 54.7518 155.629 54.7574 155.215 54.7574L153.702 54.7602L11.786 54.7574Z" fill="black"/>
<path d="M34.5668 28.4861C34.582 27.3216 34.8914 26.1799 35.4662 25.167C36.0411 24.1542 36.8627 23.3032 37.8547 22.6931C37.2245 21.7929 36.3931 21.052 35.4265 20.5292C34.4599 20.0064 33.3847 19.7162 32.2864 19.6815C29.9418 19.4358 27.6698 21.084 26.4752 21.084C25.2583 21.084 23.4189 19.7052 21.44 19.747C20.1593 19.7884 18.9111 20.1608 17.8171 20.828C16.7231 21.4952 15.8206 22.4344 15.1976 23.5542C12.4985 28.2266 14.5124 35.0942 17.097 38.872C18.3907 40.7211 19.9021 42.7866 21.881 42.714C23.8166 42.6331 24.5396 41.4789 26.8771 41.4789C29.191 41.4789 29.8693 42.714 31.8873 42.668C33.9653 42.6331 35.2729 40.8091 36.5206 38.9418C37.4507 37.6242 38.1666 36.1679 38.6418 34.6267C37.4347 34.1164 36.4045 33.2619 35.6798 32.1699C34.9551 31.0779 34.568 29.7967 34.5668 28.4861Z" fill="white"/>
<path d="M30.7537 17.1965C31.8863 15.8372 32.4445 14.09 32.3097 12.3259C30.5791 12.5076 28.9806 13.3348 27.8327 14.6426C27.2716 15.281 26.8419 16.0237 26.5679 16.8283C26.294 17.6329 26.1813 18.4835 26.2362 19.3317C27.1016 19.3406 27.9578 19.1531 28.7403 18.7832C29.5228 18.4134 30.2112 17.8708 30.7537 17.1965Z" fill="white"/>
<path d="M59.0356 38.0319H52.4318L50.845 42.7154H48.0469L54.3046 25.3852H57.2116L63.468 42.7154H60.6224L59.0356 38.0319ZM53.1142 35.8687H58.3504L55.7686 28.2684H55.6974L53.1142 35.8687Z" fill="white"/>
<path d="M76.9804 36.4001C76.9804 40.3259 74.8787 42.8477 71.7065 42.8477C70.9035 42.8896 70.1048 42.7046 69.402 42.3139C68.6991 41.9232 68.1204 41.3426 67.7319 40.6385H67.6719V46.8963H65.0762V30.081H67.5882V32.1827H67.6343C68.0405 31.4816 68.6291 30.9038 69.3376 30.5106C70.0461 30.1174 70.8479 29.9236 71.6577 29.9498C74.8647 29.9498 76.979 32.4842 76.979 36.4001H76.9804ZM74.3149 36.4001C74.3149 33.842 72.9919 32.1604 70.9753 32.1604C68.9935 32.1604 67.6608 33.8769 67.6608 36.4001C67.6608 38.9457 68.9935 40.6511 70.9753 40.6511C72.9919 40.6511 74.3149 38.9806 74.3149 36.4001Z" fill="white"/>
<path d="M90.8872 36.4001C90.8872 40.3259 88.7855 42.8477 85.6134 42.8477C84.8103 42.8896 84.0117 42.7046 83.3088 42.3139C82.6059 41.9232 82.0272 41.3426 81.6388 40.6385H81.5787V46.8963H78.9844V30.081H81.495V32.1827H81.5425C81.9487 31.4816 82.5373 30.9038 83.2458 30.5106C83.9543 30.1174 84.7561 29.9236 85.5659 29.9498C88.7729 29.9498 90.8872 32.4842 90.8872 36.4001ZM88.2217 36.4001C88.2217 33.842 86.8987 32.1604 84.8821 32.1604C82.9004 32.1604 81.5676 33.8769 81.5676 36.4001C81.5676 38.9457 82.9004 40.6511 84.8821 40.6511C86.8987 40.6511 88.2203 38.9806 88.2203 36.4001H88.2217Z" fill="white"/>
<path d="M100.076 37.8876C100.269 39.6069 101.938 40.7345 104.221 40.7345C106.407 40.7345 107.979 39.6069 107.979 38.0564C107.979 36.7111 107.03 35.9073 104.784 35.3546L102.538 34.8131C99.3561 34.0456 97.8782 32.5565 97.8782 30.1407C97.8782 27.1514 100.484 25.0971 104.185 25.0971C107.847 25.0971 110.357 27.1514 110.441 30.1407H107.823C107.667 28.4116 106.238 27.3677 104.147 27.3677C102.057 27.3677 100.629 28.4242 100.629 29.9607C100.629 31.186 101.542 31.9075 103.776 32.4588L105.685 32.9277C109.241 33.7692 110.718 35.1969 110.718 37.7327C110.718 40.9746 108.136 43.0051 104.029 43.0051C100.185 43.0051 97.5893 41.0234 97.4219 37.8876H100.076Z" fill="white"/>
<path d="M116.315 27.0914V30.0807H118.718V32.135H116.315V39.1003C116.315 40.1833 116.797 40.6871 117.853 40.6871C118.138 40.6821 118.423 40.662 118.706 40.627V42.6688C118.231 42.7575 117.748 42.7977 117.266 42.7888C114.707 42.7888 113.71 41.8272 113.71 39.3766V32.135H111.873V30.0807H113.71V27.0914H116.315Z" fill="white"/>
<path d="M120.109 36.3995C120.109 32.4235 122.451 29.9254 126.102 29.9254C129.765 29.9254 132.096 32.4235 132.096 36.3995C132.096 40.3852 129.778 42.8721 126.102 42.8721C122.427 42.8721 120.109 40.3852 120.109 36.3995ZM129.453 36.3995C129.453 33.6725 128.204 32.062 126.102 32.062C124 32.062 122.753 33.6837 122.753 36.3995C122.753 39.1376 124 40.7341 126.102 40.7341C128.204 40.7341 129.453 39.1376 129.453 36.3995Z" fill="white"/>
<path d="M134.234 30.0808H136.709V32.2314H136.769C136.936 31.5601 137.33 30.967 137.883 30.5515C138.436 30.1361 139.116 29.9235 139.807 29.9496C140.106 29.9484 140.404 29.9807 140.696 30.0459V32.4714C140.319 32.3562 139.925 32.3034 139.531 32.3151C139.154 32.2998 138.778 32.3662 138.429 32.5098C138.081 32.6533 137.767 32.8707 137.51 33.1468C137.254 33.423 137.06 33.7515 136.942 34.1097C136.824 34.4679 136.785 34.8474 136.827 35.2221V42.7163H134.234V30.0808Z" fill="white"/>
<path d="M152.654 39.005C152.305 41.2979 150.072 42.8721 147.214 42.8721C143.538 42.8721 141.256 40.4103 141.256 36.4595C141.256 32.496 143.55 29.9254 147.103 29.9254C150.601 29.9254 152.797 32.3258 152.797 36.158V37.047H143.874V37.2033C143.833 37.6683 143.891 38.1368 144.045 38.5775C144.199 39.0182 144.445 39.4212 144.766 39.7597C145.088 40.0981 145.478 40.3642 145.91 40.5404C146.342 40.7166 146.807 40.7988 147.274 40.7816C147.886 40.8388 148.501 40.6969 149.026 40.3768C149.552 40.0567 149.96 39.5756 150.19 39.005H152.654ZM143.887 35.2341H150.203C150.226 34.8161 150.163 34.3977 150.017 34.0053C149.871 33.6129 149.645 33.2548 149.355 32.9537C149.064 32.6526 148.714 32.4148 148.326 32.2553C147.939 32.0959 147.523 32.0182 147.105 32.0271C146.682 32.0245 146.264 32.1056 145.873 32.2658C145.482 32.4259 145.127 32.6618 144.827 32.96C144.528 33.2582 144.291 33.6126 144.129 34.003C143.968 34.3933 143.885 34.8117 143.887 35.2341Z" fill="white"/>
<path d="M52.7887 12.3407C53.3325 12.3017 53.8781 12.3838 54.3863 12.5812C54.8945 12.7786 55.3526 13.0863 55.7274 13.4822C56.1023 13.878 56.3847 14.3521 56.5541 14.8703C56.7236 15.3884 56.776 15.9377 56.7075 16.4786C56.7075 19.1386 55.27 20.6681 52.7887 20.6681H49.7812V12.3393L52.7887 12.3407ZM51.0749 19.4902H52.645C53.0334 19.5133 53.4221 19.4494 53.7828 19.3033C54.1434 19.1573 54.467 18.9326 54.7299 18.6458C54.9928 18.3589 55.1885 18.0171 55.3027 17.6451C55.4169 17.2731 55.4467 16.8803 55.3901 16.4953C55.4427 16.1119 55.4099 15.7215 55.294 15.3522C55.1781 14.9829 54.9819 14.6438 54.7196 14.3591C54.4572 14.0745 54.1352 13.8514 53.7765 13.7059C53.4179 13.5603 53.0315 13.4959 52.645 13.5172H51.0749V19.4902Z" fill="white"/>
<path d="M58.1676 17.5231C58.1296 17.1109 58.178 16.6953 58.3097 16.3028C58.4414 15.9104 58.6535 15.5497 58.9324 15.2439C59.2114 14.9381 59.551 14.6938 59.9297 14.5266C60.3084 14.3595 60.7178 14.2731 61.1318 14.2731C61.5457 14.2731 61.9551 14.3595 62.3338 14.5266C62.7125 14.6938 63.0522 14.9381 63.3311 15.2439C63.6101 15.5497 63.8222 15.9104 63.9538 16.3028C64.0855 16.6953 64.1339 17.1109 64.096 17.5231C64.1372 17.937 64.0912 18.355 63.961 18.7501C63.8309 19.1451 63.6194 19.5086 63.3402 19.817C63.061 20.1253 62.7203 20.3718 62.34 20.5405C61.9598 20.7091 61.5484 20.7963 61.1325 20.7963C60.7165 20.7963 60.3051 20.7091 59.9249 20.5405C59.5446 20.3718 59.2039 20.1253 58.9247 19.817C58.6455 19.5086 58.434 19.1451 58.3039 18.7501C58.1737 18.355 58.1277 17.937 58.169 17.5231H58.1676ZM62.8204 17.5231C62.8204 16.161 62.2077 15.3641 61.1345 15.3641C60.0558 15.3641 59.4501 16.161 59.4501 17.5231C59.4501 18.8963 60.0558 19.6862 61.1345 19.6862C62.2091 19.6862 62.8204 18.8907 62.8204 17.5231Z" fill="white"/>
<path d="M71.9737 20.6686H70.687L69.3891 16.0395H69.2914L67.9977 20.6686H66.7235L64.9902 14.3843H66.249L67.3739 19.1795H67.4674L68.7597 14.3843H69.9487L71.241 19.1795H71.3387L72.4593 14.3843H73.7L71.9737 20.6686Z" fill="white"/>
<path d="M75.1562 14.3842H76.3495V15.3821H76.4416C76.5989 15.0235 76.8641 14.723 77.2003 14.5224C77.5365 14.3217 77.927 14.231 78.3172 14.2628C78.623 14.2398 78.9301 14.286 79.2157 14.3978C79.5012 14.5096 79.758 14.6842 79.9669 14.9087C80.1759 15.1331 80.3316 15.4017 80.4227 15.6946C80.5137 15.9874 80.5377 16.297 80.4929 16.6004V20.6685H79.2523V16.9116C79.2523 15.9012 78.8141 15.3988 77.8958 15.3988C77.6882 15.3892 77.481 15.4246 77.2884 15.5025C77.0958 15.5804 76.9223 15.6991 76.7798 15.8503C76.6373 16.0015 76.5292 16.1818 76.4629 16.3787C76.3966 16.5756 76.3736 16.7845 76.3955 16.9912V20.6685H75.1562V14.3842Z" fill="white"/>
<path d="M82.4707 11.9311H83.71V20.6674H82.4707V11.9311Z" fill="white"/>
<path d="M85.4346 17.5236C85.3955 17.1109 85.4431 16.6946 85.5742 16.3013C85.7054 15.908 85.9172 15.5464 86.1962 15.2398C86.4752 14.9331 86.8152 14.6881 87.1943 14.5205C87.5735 14.3528 87.9835 14.2662 88.3981 14.2662C88.8127 14.2662 89.2227 14.3528 89.6018 14.5205C89.981 14.6881 90.321 14.9331 90.5999 15.2398C90.8789 15.5464 91.0908 15.908 91.222 16.3013C91.3531 16.6946 91.4007 17.1109 91.3616 17.5236C91.4028 17.9376 91.3568 18.3555 91.2267 18.7506C91.0965 19.1457 90.885 19.5092 90.6058 19.8175C90.3266 20.1259 89.9859 20.3724 89.6057 20.541C89.2254 20.7097 88.8141 20.7969 88.3981 20.7969C87.9821 20.7969 87.5707 20.7097 87.1905 20.541C86.8102 20.3724 86.4695 20.1259 86.1903 19.8175C85.9112 19.5092 85.6997 19.1457 85.5695 18.7506C85.4393 18.3555 85.3934 17.9376 85.4346 17.5236ZM90.086 17.5236C90.086 16.1615 89.4734 15.3647 88.4002 15.3647C87.3214 15.3647 86.7157 16.1615 86.7157 17.5236C86.7157 18.8969 87.3214 19.6868 88.4002 19.6868C89.4748 19.6868 90.086 18.8913 90.086 17.5236Z" fill="white"/>
<path d="M92.666 18.8912C92.666 17.7608 93.5089 17.1077 95.005 17.0156L96.7076 16.9179V16.375C96.7076 15.7121 96.268 15.3367 95.4209 15.3367C94.7273 15.3367 94.2486 15.5907 94.1104 16.0345H92.9102C93.0358 14.9557 94.0518 14.2621 95.4781 14.2621C97.0523 14.2621 97.9413 15.0478 97.9413 16.375V20.6692H96.7481V19.7858H96.6504C96.4511 20.1027 96.1714 20.361 95.8396 20.5343C95.5079 20.7077 95.1361 20.7899 94.7622 20.7725C94.4983 20.8 94.2316 20.7719 93.9793 20.6899C93.7269 20.608 93.4946 20.4741 93.2972 20.2968C93.0998 20.1196 92.9418 19.9029 92.8333 19.6608C92.7248 19.4187 92.6683 19.1565 92.6674 18.8912H92.666ZM96.7062 18.3553V17.8292L95.1711 17.9269C94.3058 17.9855 93.915 18.28 93.915 18.834C93.915 19.3992 94.4049 19.7272 95.079 19.7272C95.2765 19.7471 95.476 19.7271 95.6656 19.6685C95.8553 19.6098 96.0312 19.5137 96.183 19.3857C96.3347 19.2578 96.4593 19.1006 96.5491 18.9236C96.639 18.7466 96.6924 18.5534 96.7062 18.3553Z" fill="white"/>
<path d="M99.5703 17.5232C99.5703 15.5373 100.592 14.2799 102.18 14.2799C102.573 14.262 102.962 14.3562 103.303 14.5514C103.644 14.7466 103.923 15.0348 104.106 15.3824H104.199V11.9311H105.439V20.6674H104.251V19.6766H104.153C103.956 20.022 103.667 20.3067 103.319 20.4998C102.971 20.6929 102.576 20.787 102.179 20.7721C100.581 20.7721 99.5703 19.5147 99.5703 17.5232ZM100.851 17.5232C100.851 18.856 101.479 19.6584 102.53 19.6584C103.577 19.6584 104.222 18.8448 104.222 17.5288C104.222 16.2197 103.569 15.3935 102.53 15.3935C101.486 15.3935 100.851 16.203 100.851 17.5232Z" fill="white"/>
<path d="M110.571 17.5236C110.532 17.1109 110.58 16.6946 110.711 16.3013C110.842 15.908 111.054 15.5464 111.333 15.2398C111.612 14.9331 111.952 14.6881 112.331 14.5205C112.71 14.3528 113.12 14.2662 113.535 14.2662C113.949 14.2662 114.359 14.3528 114.739 14.5205C115.118 14.6881 115.458 14.9331 115.737 15.2398C116.016 15.5464 116.228 15.908 116.359 16.3013C116.49 16.6946 116.537 17.1109 116.498 17.5236C116.54 17.9376 116.494 18.3555 116.363 18.7506C116.233 19.1457 116.022 19.5092 115.743 19.8175C115.463 20.1259 115.123 20.3724 114.742 20.541C114.362 20.7097 113.951 20.7969 113.535 20.7969C113.119 20.7969 112.707 20.7097 112.327 20.541C111.947 20.3724 111.606 20.1259 111.327 19.8175C111.048 19.5092 110.836 19.1457 110.706 18.7506C110.576 18.3555 110.53 17.9376 110.571 17.5236ZM115.223 17.5236C115.223 16.1615 114.611 15.3647 113.537 15.3647C112.46 15.3647 111.852 16.1615 111.852 17.5236C111.852 18.8969 112.46 19.6868 113.537 19.6868C114.611 19.6868 115.223 18.8913 115.223 17.5236Z" fill="white"/>
<path d="M118.164 14.3842H119.357V15.3821H119.449C119.606 15.0235 119.871 14.723 120.208 14.5224C120.544 14.3217 120.934 14.231 121.324 14.2628C121.63 14.2398 121.937 14.286 122.223 14.3978C122.508 14.5096 122.765 14.6842 122.974 14.9087C123.183 15.1331 123.339 15.4017 123.43 15.6946C123.521 15.9874 123.545 16.297 123.5 16.6004V20.6685H122.26V16.9116C122.26 15.9012 121.821 15.3988 120.903 15.3988C120.695 15.3892 120.488 15.4246 120.296 15.5025C120.103 15.5804 119.93 15.6991 119.787 15.8503C119.645 16.0015 119.536 16.1818 119.47 16.3787C119.404 16.5756 119.381 16.7845 119.403 16.9912V20.6685H118.162L118.164 14.3842Z" fill="white"/>
<path d="M130.506 12.8205V14.4129H131.868V15.4582H130.506V18.6889C130.506 19.3476 130.777 19.6365 131.395 19.6365C131.553 19.6358 131.711 19.626 131.868 19.6072V20.6399C131.645 20.6801 131.419 20.7016 131.193 20.7041C129.814 20.7041 129.265 20.2185 129.265 19.0071V15.4582H128.268V14.4129H129.265V12.8205H130.506Z" fill="white"/>
<path d="M133.562 11.9311H134.791V15.3935H134.888C135.053 15.0316 135.326 14.7294 135.669 14.5281C136.012 14.3268 136.409 14.2363 136.806 14.2687C137.11 14.2522 137.414 14.3031 137.696 14.4176C137.978 14.5322 138.232 14.7076 138.439 14.9314C138.645 15.1553 138.8 15.4219 138.892 15.7124C138.983 16.0029 139.01 16.31 138.969 16.6119V20.6688H137.728V16.9175C137.728 15.9127 137.261 15.4047 136.384 15.4047C136.171 15.3872 135.957 15.4165 135.756 15.4905C135.555 15.5646 135.373 15.6816 135.222 15.8334C135.072 15.9853 134.956 16.1682 134.883 16.3694C134.811 16.5707 134.783 16.7853 134.802 16.9985V20.6688H133.562V11.9311Z" fill="white"/>
<path d="M146.201 18.9723C146.033 19.5464 145.668 20.043 145.171 20.3754C144.673 20.7078 144.075 20.8548 143.48 20.7907C143.066 20.8019 142.654 20.7228 142.273 20.5588C141.893 20.3948 141.553 20.1499 141.276 19.8412C141 19.5324 140.794 19.1671 140.673 18.7708C140.552 18.3744 140.519 17.9565 140.576 17.546C140.521 17.1345 140.555 16.7161 140.676 16.3189C140.796 15.9218 141.001 15.5552 141.276 15.2439C141.55 14.9327 141.889 14.6841 142.268 14.515C142.647 14.3459 143.058 14.2601 143.473 14.2636C145.222 14.2636 146.277 15.4582 146.277 17.4315V17.8642H141.839V17.9339C141.819 18.1647 141.848 18.3969 141.924 18.6158C142 18.8346 142.12 19.0352 142.278 19.2048C142.435 19.3743 142.627 19.509 142.84 19.6001C143.052 19.6913 143.282 19.737 143.514 19.7342C143.81 19.7693 144.11 19.7157 144.376 19.58C144.642 19.4444 144.861 19.2328 145.007 18.9723H146.201ZM141.839 16.9473H145.014C145.03 16.7362 145.001 16.5242 144.93 16.3248C144.859 16.1255 144.747 15.9432 144.601 15.7898C144.455 15.6363 144.279 15.5151 144.083 15.434C143.888 15.3529 143.678 15.3136 143.466 15.3186C143.252 15.316 143.039 15.3564 142.84 15.4373C142.641 15.5182 142.461 15.6381 142.309 15.7899C142.157 15.9417 142.038 16.1223 141.957 16.321C141.876 16.5198 141.836 16.7327 141.839 16.9473Z" fill="white"/>
</g>
<defs>
<clipPath id="clip0_1284_1869">
<rect width="167" height="56.1345" fill="white"/>
</clipPath>
</defs>
</svg>