<svg width="20" height="25" viewBox="0 0 20 25" fill="none" xmlns="http://www.w3.org/2000/svg">
<path d="M16.7038 13.281C16.7161 12.339 16.9664 11.4155 17.4313 10.5962C17.8963 9.77699 18.5609 9.08862 19.3633 8.59514C18.8535 7.86699 18.181 7.26769 17.3992 6.84483C16.6173 6.42197 15.7477 6.18718 14.8593 6.1591C12.9628 5.96043 11.1251 7.29359 10.1588 7.29359C9.17443 7.29359 7.68662 6.17829 6.08592 6.21216C5.04998 6.2456 4.04036 6.54683 3.15547 7.08651C2.27057 7.6262 1.54058 8.38592 1.03662 9.29164C-1.14655 13.071 0.482362 18.626 2.57297 21.6818C3.61941 23.1775 4.84194 24.8482 6.44264 24.7895C8.00834 24.724 8.59308 23.7905 10.4839 23.7905C12.3555 23.7905 12.9041 24.7895 14.5364 24.7522C16.2173 24.724 17.275 23.2486 18.2842 21.7382C19.0365 20.6725 19.6156 19.4945 20 18.2478C19.0236 17.8351 18.1903 17.1439 17.6041 16.2607C17.0179 15.3774 16.7048 14.341 16.7038 13.281Z" fill="#272E35"/>
<path d="M13.6201 4.14864C14.5362 3.0492 14.9877 1.63594 14.8787 0.208984C13.4789 0.355932 12.1859 1.02502 11.2574 2.08286C10.8036 2.59926 10.4559 3.20003 10.2344 3.85083C10.0128 4.50163 9.92159 5.18971 9.96602 5.87576C10.6661 5.88298 11.3586 5.7313 11.9915 5.43214C12.6245 5.13298 13.1813 4.69413 13.6201 4.14864Z" fill="#272E35"/>
</svg>