<svg width="99" height="97" viewBox="0 0 99 97" fill="none" xmlns="http://www.w3.org/2000/svg">
<path d="M4.29964 16.3039C5.46257 15.9253 6.09889 14.6741 5.72091 13.5093C5.34293 12.3445 4.09378 11.7071 2.93085 12.0857C1.76793 12.4643 1.13161 13.7155 1.50959 14.8804C1.88757 16.0452 3.13672 16.6825 4.29964 16.3039Z" fill="#EAEEF9"/>
<path d="M18.0623 3.11628C18.8938 3.11628 19.5679 2.44109 19.5679 1.60819C19.5679 0.775294 18.8938 0.100098 18.0623 0.100098C17.2307 0.100098 16.5566 0.775294 16.5566 1.60819C16.5566 2.44109 17.2307 3.11628 18.0623 3.11628Z" fill="#E8125C"/>
<path d="M94.4949 42.1492C95.3264 42.1492 96.0005 41.474 96.0005 40.6411C96.0005 39.8083 95.3264 39.1331 94.4949 39.1331C93.6633 39.1331 92.9893 39.8083 92.9893 40.6411C92.9893 41.474 93.6633 42.1492 94.4949 42.1492Z" fill="#E8125C"/>
<path d="M3.89137 74.795C4.7229 74.795 5.39699 74.1198 5.39699 73.2869C5.39699 72.454 4.7229 71.7788 3.89137 71.7788C3.05983 71.7788 2.38574 72.454 2.38574 73.2869C2.38574 74.1198 3.05983 74.795 3.89137 74.795Z" fill="#E8125C"/>
<path d="M92.533 22.2661C93.9051 21.0102 94.0009 18.8779 92.747 17.5035C91.4931 16.1292 89.3643 16.0332 87.9922 17.2891C86.6201 18.5451 86.5243 20.6774 87.7782 22.0517C89.0321 23.4261 91.1609 23.5221 92.533 22.2661Z" fill="#EAEEF9"/>
<path d="M92.788 7.1532C93.3658 6.62438 93.4061 5.72657 92.8782 5.14789C92.3502 4.56922 91.4539 4.5288 90.8761 5.05762C90.2984 5.58644 90.2581 6.48425 90.786 7.06292C91.314 7.6416 92.2103 7.68202 92.788 7.1532Z" fill="#EAEEF9"/>
<path d="M22.7549 69.2949L15.5811 88.1904H21.8692L30.3716 72.7547L22.7549 69.2949Z" fill="#CED7E2"/>
<path d="M60.9272 69.2949L68.1011 88.1904H61.8129L53.3105 72.7547L60.9272 69.2949Z" fill="#CED7E2"/>
<path d="M45.0749 76.6579C64.0045 76.6579 79.3499 61.2873 79.3499 42.3266C79.3499 23.366 64.0045 7.99536 45.0749 7.99536C26.1453 7.99536 10.7998 23.366 10.7998 42.3266C10.7998 61.2873 26.1453 76.6579 45.0749 76.6579Z" fill="#CED7E2"/>
<path d="M41.8864 76.6579C60.816 76.6579 76.1615 61.2873 76.1615 42.3266C76.1615 23.366 60.816 7.99536 41.8864 7.99536C22.9568 7.99536 7.61133 23.366 7.61133 42.3266C7.61133 61.2873 22.9568 76.6579 41.8864 76.6579Z" fill="#E1E5ED"/>
<path d="M41.8867 68.2305C56.1695 68.2305 67.748 56.633 67.748 42.3268C67.748 28.0206 56.1695 16.4231 41.8867 16.4231C27.6039 16.4231 16.0254 28.0206 16.0254 42.3268C16.0254 56.633 27.6039 68.2305 41.8867 68.2305Z" fill="white"/>
<path d="M41.8855 60.5125C51.9128 60.5125 60.0416 52.3704 60.0416 42.3267C60.0416 32.2829 51.9128 24.1409 41.8855 24.1409C31.8582 24.1409 23.7295 32.2829 23.7295 42.3267C23.7295 52.3704 31.8582 60.5125 41.8855 60.5125Z" fill="#E1E5ED"/>
<path d="M41.8859 52.351C47.4131 52.351 51.8939 47.8629 51.8939 42.3266C51.8939 36.7903 47.4131 32.3022 41.8859 32.3022C36.3586 32.3022 31.8779 36.7903 31.8779 42.3266C31.8779 47.8629 36.3586 52.351 41.8859 52.351Z" fill="white"/>
<g filter="url(#filter0_d_1198_14907)">
<path d="M90.5973 66.6335C90.5973 67.9642 90.4201 69.2948 90.1544 70.5368C89.9773 71.3352 89.7116 72.0449 89.4459 72.7546C87.7631 77.1901 84.2205 80.7386 79.7922 82.4241C79.4379 82.5128 79.1722 82.6902 78.818 82.7789C77.1352 83.3112 75.4525 83.5773 73.5926 83.5773C64.2046 83.5773 56.5879 75.9482 56.5879 66.5448C56.5879 57.1414 64.2046 49.5122 73.5926 49.5122C82.9806 49.6009 90.5973 57.2301 90.5973 66.6335Z" fill="url(#paint0_linear_1198_14907)"/>
<path d="M90.5973 66.6335C90.5973 67.9642 90.4201 69.2948 90.1544 70.5368C89.9773 71.3352 89.7116 72.0449 89.4459 72.7546C87.7631 77.1901 84.2205 80.7386 79.7922 82.4241C79.4379 82.5128 79.1722 82.6902 78.818 82.7789C77.1352 83.3112 75.4525 83.5773 73.5926 83.5773C64.2046 83.5773 56.5879 75.9482 56.5879 66.5448C56.5879 57.1414 64.2046 49.5122 73.5926 49.5122C82.9806 49.6009 90.5973 57.2301 90.5973 66.6335Z" fill="url(#paint1_linear_1198_14907)"/>
</g>
<path d="M90.1536 70.9803C89.9764 71.69 89.7107 72.3997 89.445 73.1094C87.7623 77.3675 84.2492 80.3145 79.998 82L70.5804 72.8433L69.252 71.5126L78.64 63.085L81.7398 61.3108L90.065 69.6497L90.1536 70.9803Z" fill="url(#paint2_linear_1198_14907)"/>
<path d="M90.1536 70.9803C89.9764 71.69 89.7107 72.3997 89.445 73.1094C87.7623 77.3675 84.2492 80.3145 79.998 82L70.5804 72.8433L69.252 71.5126L78.64 63.085L81.7398 61.3108L90.065 69.6497L90.1536 70.9803Z" fill="url(#paint3_linear_1198_14907)"/>
<path d="M71.821 73.2867C71.2896 73.2867 70.7582 73.1093 70.4039 72.6658L66.507 68.7625C65.7099 67.9641 65.7099 66.7221 66.507 65.9237C67.3041 65.1253 68.544 65.1253 69.3411 65.9237L71.821 68.4076L78.9063 61.3107C79.7033 60.5123 80.9433 60.5123 81.7404 61.3107C82.5375 62.1091 82.5375 63.3511 81.7404 64.1495L73.238 72.6658C72.8838 73.1093 72.3524 73.2867 71.821 73.2867Z" fill="url(#paint4_linear_1198_14907)"/>
<path d="M24.5272 36.2943L42.1518 40.9073C42.9489 41.0847 43.3918 41.9718 43.2146 42.7702C43.0375 43.5686 42.1518 44.0122 41.3547 43.8348L2.65137 33.7217C1.85427 33.5443 1.41144 32.6571 1.58857 31.8587C1.76571 31.0603 2.65137 30.6168 3.44846 30.7942L16.7334 34.2539" fill="#1C3754"/>
<path d="M19.2132 32.1249L18.7704 31.2378C18.239 30.1733 17.1762 29.2861 16.0248 29.02L3.97984 25.9151C3.09418 25.7377 2.38565 26.5361 2.82848 27.3345L5.57403 32.9233L0.437194 36.3831C-0.271335 36.9153 -0.0942026 37.9799 0.791458 38.246L12.8364 41.3509C13.9878 41.7057 15.3163 41.4396 16.2905 40.7299L20.4531 37.8911C21.1617 37.4476 21.3388 36.5605 20.9845 35.8508L19.2132 32.1249Z" fill="#E8125C"/>
<path d="M1.76562 88.9001H81.4751" stroke="#EAEEF9" stroke-width="2" stroke-miterlimit="10" stroke-linecap="round" stroke-linejoin="round"/>
<defs>
<filter id="filter0_d_1198_14907" x="48.5879" y="46.5122" width="50.0098" height="50.0652" filterUnits="userSpaceOnUse" color-interpolation-filters="sRGB">
<feFlood flood-opacity="0" result="BackgroundImageFix"/>
<feColorMatrix in="SourceAlpha" type="matrix" values="0 0 0 0 0 0 0 0 0 0 0 0 0 0 0 0 0 0 127 0" result="hardAlpha"/>
<feOffset dy="5"/>
<feGaussianBlur stdDeviation="4"/>
<feColorMatrix type="matrix" values="0 0 0 0 0.1125 0 0 0 0 0.295916 0 0 0 0 1 0 0 0 0.22 0"/>
<feBlend mode="normal" in2="BackgroundImageFix" result="effect1_dropShadow_1198_14907"/>
<feBlend mode="normal" in="SourceGraphic" in2="effect1_dropShadow_1198_14907" result="shape"/>
</filter>
<linearGradient id="paint0_linear_1198_14907" x1="64.4565" y1="52.6586" x2="83.2167" y2="81.1825" gradientUnits="userSpaceOnUse">
<stop stop-color="#83A6FF"/>
<stop offset="1" stop-color="#5A78FF"/>
</linearGradient>
<linearGradient id="paint1_linear_1198_14907" x1="73.5776" y1="50.3411" x2="73.5776" y2="84.7794" gradientUnits="userSpaceOnUse">
<stop stop-color="#FF6EA0"/>
<stop offset="1" stop-color="#FF75A5"/>
</linearGradient>
<linearGradient id="paint2_linear_1198_14907" x1="75.2257" y1="66.115" x2="82.3783" y2="73.2558" gradientUnits="userSpaceOnUse">
<stop stop-color="#4F6AFF"/>
<stop offset="1" stop-color="#657EFF" stop-opacity="0"/>
</linearGradient>
<linearGradient id="paint3_linear_1198_14907" x1="75.0591" y1="67.1837" x2="84.4529" y2="76.4833" gradientUnits="userSpaceOnUse">
<stop stop-color="#E8125C"/>
<stop offset="1" stop-color="#FF6DA0"/>
</linearGradient>
<linearGradient id="paint4_linear_1198_14907" x1="78.468" y1="69.3644" x2="71.4327" y2="62.3405" gradientUnits="userSpaceOnUse">
<stop offset="0.0113208" stop-color="#C2D1FF"/>
<stop offset="1" stop-color="white"/>
</linearGradient>
</defs>
</svg>