<svg width="145" height="129" viewBox="0 0 145 129" fill="none" xmlns="http://www.w3.org/2000/svg">
<path d="M141.988 38.6338C141.988 38.9186 141.988 39.1084 141.988 39.3932C141.988 39.7729 141.988 40.1526 141.891 40.5323C141.891 40.7221 141.891 40.817 141.793 41.0069C141.696 41.3866 141.696 41.7663 141.599 42.146C141.599 42.3358 141.502 42.4307 141.502 42.6206C141.308 43.3799 141.016 44.2343 140.627 44.9936C140.53 45.1835 140.433 45.2784 140.433 45.4683C140.142 45.9429 139.85 46.5124 139.559 46.987C139.461 47.1769 139.364 47.2718 139.267 47.4616C138.198 48.9804 136.838 50.3093 135.283 51.3535C135.089 51.4484 134.895 51.6382 134.7 51.7332C134.603 51.8281 134.506 51.8281 134.409 51.923C134.409 51.923 134.409 51.923 134.312 51.923C134.117 52.0179 133.826 52.2078 133.632 52.3027C133.437 52.3976 133.34 52.4925 133.146 52.4925C132.951 52.5875 132.854 52.6824 132.66 52.6824C132.368 52.7773 132.077 52.9671 131.688 53.0621C131.494 53.157 131.202 53.2519 131.008 53.2519C130.522 53.4418 130.036 53.5367 129.453 53.6316C129.162 53.7265 128.773 53.7265 128.482 53.8214C128.093 53.8214 127.802 53.9164 127.413 53.9164C127.121 53.9164 126.83 53.9164 126.538 53.9164C126.441 53.9164 125.567 53.9164 120.223 53.9164H115.85C114.49 53.9164 112.935 53.9164 111.284 53.9164H110.312C108.466 53.9164 106.425 53.9164 104.19 53.9164H74.6522C73.4862 53.9164 72.3202 53.9164 71.2514 53.7265C70.9599 53.6316 70.5713 53.6316 70.2798 53.5367C62.0207 51.8281 56.0936 44.7089 56.0936 36.3557C56.0936 35.4064 56.1908 34.5521 56.288 33.6029L56.4823 32.6537C58.2313 24.5852 65.713 18.4153 74.8465 18.795C74.9437 18.4153 75.138 18.0356 75.2352 17.6559C75.6239 16.7067 76.0125 15.7574 76.4983 14.8082C76.7898 14.2387 77.0813 13.5742 77.47 13.0047C81.8424 5.69561 88.9355 1.51901 96.4172 0.379941C96.7087 0.379941 97.0974 0.285018 97.3889 0.285018C97.6804 0.285018 97.9719 0.190095 98.2634 0.190095C98.3605 0.190095 98.4577 0.190095 98.5549 0.190095C98.7492 0.190095 98.9435 0.190095 99.1379 0.190095C102.927 0.000249743 106.814 0.474863 110.409 1.61394C110.603 1.70886 110.701 1.70886 110.895 1.80378C116.336 3.70224 121.097 7.21438 124.401 12.1504C124.595 12.4351 124.79 12.8148 124.984 13.0996C126.053 14.9031 126.927 16.8965 127.51 18.9848C127.607 19.1746 127.704 19.4594 127.704 19.6493C127.996 20.8833 128.287 22.2122 128.482 23.5411C129.356 23.636 130.231 23.8259 131.008 24.1106C131.3 24.2056 131.591 24.3005 131.785 24.3954C131.98 24.4903 132.174 24.5852 132.466 24.6802C133.146 24.9649 133.729 25.2497 134.312 25.6294C134.312 25.6294 134.409 25.6294 134.409 25.7243C134.798 25.9142 135.089 26.1989 135.478 26.3888C135.575 26.4837 135.769 26.5786 135.866 26.6735C135.964 26.7685 136.061 26.8634 136.158 26.9583C136.255 27.0532 136.449 27.1482 136.547 27.338C136.644 27.4329 136.741 27.5278 136.838 27.6228C136.935 27.7177 137.032 27.8126 137.13 27.9075C137.227 28.0025 137.324 28.0974 137.324 28.0974C137.421 28.1923 137.615 28.3822 137.713 28.4771C138.004 28.7618 138.198 28.9517 138.393 29.2365C138.49 29.3314 138.587 29.4263 138.684 29.6161C139.753 31.1349 140.627 32.7486 141.113 34.6471C141.113 34.8369 141.21 35.0267 141.21 35.2166C141.308 35.4064 141.308 35.6912 141.308 35.8811C141.308 36.0709 141.405 36.3557 141.405 36.5455C141.988 37.21 141.988 37.8744 141.988 38.6338Z" fill="#EDF1F6"/>
<path d="M141.988 38.6332C141.988 38.9179 141.988 39.1078 141.988 39.3925C141.988 39.7722 141.988 40.1519 141.89 40.5316C141.89 40.7215 141.89 40.8164 141.793 41.0062C141.696 41.3859 141.696 41.7656 141.599 42.1453C141.599 42.3351 141.502 42.4301 141.502 42.6199C141.307 43.4742 141.016 44.2336 140.627 44.993C140.53 45.1828 140.433 45.2777 140.433 45.4676C140.141 45.9422 139.85 46.5117 139.558 46.9864C139.461 47.1762 139.364 47.2711 139.267 47.461C138.198 48.9797 136.838 50.3086 135.283 51.2579C135.089 51.3528 134.894 51.5426 134.7 51.6376C134.603 51.7325 134.506 51.7325 134.409 51.8274C134.409 51.8274 134.409 51.8274 134.311 51.8274C134.117 51.9223 133.923 52.1122 133.631 52.2071C133.437 52.302 133.34 52.3969 133.146 52.3969C132.951 52.4919 132.854 52.5868 132.66 52.5868C132.368 52.6817 132.077 52.8716 131.688 52.9665C131.494 53.0614 131.202 53.1563 131.008 53.1563C130.522 53.3462 130.036 53.4411 129.453 53.536C129.162 53.6309 128.773 53.6309 128.482 53.6309C128.093 53.6309 127.801 53.7259 127.413 53.7259C127.121 53.7259 126.83 53.7259 126.538 53.7259C124.303 53.7259 122.166 53.2513 120.223 52.3969C119.931 52.302 119.542 52.1122 119.251 51.9223C118.085 51.3528 117.016 50.4985 116.044 49.6442C112.935 46.8914 111.089 42.9047 111.089 38.5382C111.089 30.185 118.085 23.3506 126.635 23.3506C127.316 23.3506 127.996 23.4455 128.676 23.4455C129.55 23.5404 130.425 23.7303 131.299 24.015C131.591 24.11 131.882 24.2049 132.077 24.2998C132.271 24.3947 132.465 24.4897 132.757 24.5846C133.437 24.8693 134.02 25.1541 134.603 25.5338H134.7C135.089 25.7237 135.38 26.0084 135.769 26.1983C135.866 26.2932 136.06 26.3881 136.158 26.483C136.255 26.578 136.352 26.6729 136.546 26.7678C136.643 26.8627 136.838 26.9577 136.935 27.1475C137.032 27.2424 137.129 27.3373 137.226 27.4323C137.324 27.5272 137.421 27.6221 137.518 27.717C137.615 27.812 137.712 27.9069 137.712 27.9069C137.809 28.0018 138.004 28.1916 138.101 28.2866C138.392 28.5713 138.587 28.8561 138.781 29.046C138.878 29.1409 138.975 29.2358 139.073 29.4256C140.141 30.9444 141.016 32.5581 141.502 34.4565C141.502 34.6464 141.599 34.8362 141.599 34.9312C141.696 35.121 141.696 35.4058 141.793 35.5956C141.793 35.7855 141.89 36.0702 141.89 36.2601C141.988 37.2093 141.988 37.8738 141.988 38.6332Z" fill="url(#paint0_linear_2241_6134)"/>
<path d="M101.178 53.9161C116.419 53.9161 128.773 41.8466 128.773 26.9581C128.773 12.0695 116.419 0 101.178 0C85.9382 0 73.5835 12.0695 73.5835 26.9581C73.5835 41.8466 85.9382 53.9161 101.178 53.9161Z" fill="url(#paint1_linear_2241_6134)"/>
<path d="M83.0086 28.0967C83.0086 28.3815 82.8142 28.5713 82.5227 28.5713H72.4175C71.8345 28.5713 71.2516 29.0459 71.2516 29.7104V53.6309C70.9601 53.536 70.5714 53.536 70.2799 53.4411V29.7104C70.2799 28.5713 71.2516 27.6221 72.4175 27.6221H82.6199C82.8142 27.6221 83.0086 27.8119 83.0086 28.0967Z" fill="#DCE2ED"/>
<path d="M107.299 38.064C105.55 39.2031 103.51 39.8675 101.275 39.8675C95.2507 39.8675 90.2952 35.0265 90.2952 29.1413C90.2952 23.2561 95.2507 18.415 101.275 18.415C107.299 18.415 112.255 23.2561 112.255 29.1413C112.255 32.8433 110.311 36.1656 107.299 38.064Z" fill="url(#paint2_linear_2241_6134)"/>
<path d="M99.8176 33.1279C99.429 33.1279 99.1375 33.033 98.846 32.7482L96.0282 29.9954C95.5424 29.5208 95.5424 28.6665 96.0282 28.1919C96.514 27.7173 97.3885 27.7173 97.8743 28.1919L99.7205 29.9954L104.482 25.3442C104.967 24.8696 105.842 24.8696 106.328 25.3442C106.814 25.8188 106.814 26.6731 106.328 27.1477L100.595 32.7482C100.498 33.033 100.206 33.1279 99.8176 33.1279Z" fill="white"/>
<path d="M120.806 36.8307C120.612 37.3055 120.126 37.5904 119.543 37.5904C118.766 37.5904 118.183 37.0207 118.183 36.261C118.183 35.5013 118.766 34.9316 119.543 34.9316C120.32 34.9316 120.903 35.5013 120.903 36.261C121.001 36.3559 121.001 36.6408 120.806 36.8307Z" stroke="#DCE2ED" stroke-width="1.17273" stroke-miterlimit="10"/>
<path d="M110.7 44.8043C111.451 44.8043 112.06 44.2091 112.06 43.4749C112.06 42.7407 111.451 42.1455 110.7 42.1455C109.948 42.1455 109.339 42.7407 109.339 43.4749C109.339 44.2091 109.948 44.8043 110.7 44.8043Z" stroke="#DCE2ED" stroke-width="1.17273" stroke-miterlimit="10"/>
<path d="M127.024 36.7361C127.775 36.7361 128.384 36.1409 128.384 35.4066C128.384 34.6724 127.775 34.0772 127.024 34.0772C126.272 34.0772 125.663 34.6724 125.663 35.4066C125.663 36.1409 126.272 36.7361 127.024 36.7361Z" stroke="#DCE2ED" stroke-width="1.17273" stroke-miterlimit="10"/>
<path d="M127.024 29.3317C127.775 29.3317 128.384 28.7365 128.384 28.0023C128.384 27.268 127.775 26.6729 127.024 26.6729C126.272 26.6729 125.663 27.268 125.663 28.0023C125.663 28.7365 126.272 29.3317 127.024 29.3317Z" stroke="#DCE2ED" stroke-width="1.17273" stroke-miterlimit="10"/>
<path d="M117.987 24.6813C118.738 24.6813 119.347 24.0861 119.347 23.3519C119.347 22.6177 118.738 22.0225 117.987 22.0225C117.236 22.0225 116.627 22.6177 116.627 23.3519C116.627 24.0861 117.236 24.6813 117.987 24.6813Z" stroke="#DCE2ED" stroke-width="1.17273" stroke-miterlimit="10"/>
<path d="M96.9027 15.6637C97.6539 15.6637 98.263 15.0685 98.263 14.3343C98.263 13.6001 97.6539 13.0049 96.9027 13.0049C96.1514 13.0049 95.5424 13.6001 95.5424 14.3343C95.5424 15.0685 96.1514 15.6637 96.9027 15.6637Z" stroke="#DCE2ED" stroke-width="1.17273" stroke-miterlimit="10"/>
<path d="M89.9078 20.7887C90.6591 20.7887 91.2681 20.1935 91.2681 19.4593C91.2681 18.7251 90.6591 18.1299 89.9078 18.1299C89.1565 18.1299 88.5475 18.7251 88.5475 19.4593C88.5475 20.1935 89.1565 20.7887 89.9078 20.7887Z" stroke="#DCE2ED" stroke-width="1.17273" stroke-miterlimit="10"/>
<path d="M83.9802 29.3317C84.7315 29.3317 85.3405 28.7365 85.3405 28.0023C85.3405 27.268 84.7315 26.6729 83.9802 26.6729C83.2289 26.6729 82.6199 27.268 82.6199 28.0023C82.6199 28.7365 83.2289 29.3317 83.9802 29.3317Z" stroke="#DCE2ED" stroke-width="1.17273" stroke-miterlimit="10"/>
<path d="M62.41 34.363C63.1613 34.363 63.7703 33.7678 63.7703 33.0336C63.7703 32.2994 63.1613 31.7042 62.41 31.7042C61.6587 31.7042 61.0497 32.2994 61.0497 33.0336C61.0497 33.7678 61.6587 34.363 62.41 34.363Z" stroke="#DCE2ED" stroke-width="1.17273" stroke-miterlimit="10"/>
<path d="M124.983 13.0049H119.833C119.056 13.0049 118.473 13.5744 118.473 14.3338V22.0226C118.473 22.3073 118.279 22.4972 117.987 22.4972C117.696 22.4972 117.501 22.3073 117.501 22.0226V14.3338C117.501 13.0998 118.57 12.0557 119.833 12.0557H124.4C124.594 12.4354 124.789 12.7201 124.983 13.0049Z" fill="#DCE2ED"/>
<path d="M138.004 28.4769H128.384C128.093 28.4769 127.899 28.287 127.899 28.0021C127.899 27.7173 128.093 27.5273 128.384 27.5273H137.032C137.129 27.6223 137.226 27.7173 137.324 27.8122C137.421 27.9072 137.518 28.0021 137.518 28.0021C137.712 28.192 137.907 28.287 138.004 28.4769Z" fill="#DCE2ED"/>
<path d="M120.126 37.5898V53.8216H119.154V37.5898C119.154 37.3051 119.348 37.1152 119.64 37.1152C119.931 37.1152 120.126 37.3051 120.126 37.5898Z" fill="#DCE2ED"/>
<path d="M135.186 36.925V51.1634C134.991 51.2583 134.797 51.4481 134.603 51.5431C134.506 51.638 134.408 51.638 134.311 51.7329V36.925C134.311 36.3554 133.825 35.8808 133.145 35.8808H128.481C128.19 35.8808 127.995 35.691 127.995 35.4062C127.995 35.1214 128.19 34.9316 128.481 34.9316H133.145C134.214 34.9316 135.186 35.7859 135.186 36.925Z" fill="#DCE2ED"/>
<path d="M111.089 44.8985V53.8212H110.118V44.8985C110.118 44.6137 110.312 44.4238 110.604 44.4238C110.895 44.4238 111.089 44.6137 111.089 44.8985Z" fill="#DCE2ED"/>
<path d="M97.3894 0.285156V13.0048C97.3894 13.2896 97.195 13.4794 96.9036 13.4794C96.6121 13.4794 96.4177 13.2896 96.4177 13.0048V0.380079C96.7092 0.285156 97.0979 0.285156 97.3894 0.285156Z" fill="#DCE2ED"/>
<path d="M89.0324 19.4588C89.0324 19.7436 88.838 19.9335 88.5465 19.9335H78.9272C77.664 19.9335 76.5952 18.8893 76.5952 17.6553V14.7127C76.8867 14.0483 77.1782 13.4787 77.5669 12.9092V17.6553C77.5669 18.4147 78.1499 18.9842 78.9272 18.9842H88.5465C88.838 18.9842 89.0324 19.1741 89.0324 19.4588Z" fill="#DCE2ED"/>
<path d="M56.5795 32.5585H61.0491C61.3406 32.5585 61.5349 32.7484 61.5349 33.0333C61.5349 33.3182 61.3406 33.5081 61.0491 33.5081H56.3851L56.5795 32.5585Z" fill="#DCE2ED"/>
<path d="M81.0646 123.969C73.68 124.159 64.838 123.969 58.6194 123.874C52.4008 124.064 43.5588 124.159 36.1742 123.969C43.4616 119.887 45.9879 112.388 46.3766 107.452H70.7651C71.2509 112.388 73.7772 119.982 81.0646 123.969Z" fill="url(#paint3_linear_2241_6134)"/>
<path d="M36.9524 125.204H80.2882C80.8712 125.204 81.4541 124.729 81.4541 124.064C81.4541 123.495 80.9683 122.925 80.2882 122.925H36.9524C36.3694 122.925 35.7864 123.4 35.7864 124.064C35.7864 124.729 36.2723 125.204 36.9524 125.204Z" fill="#EBF0F6"/>
<path d="M104.482 44.6139V106.693C104.482 108.212 103.219 109.351 101.761 109.351H15.3811C13.9236 109.351 12.6605 108.117 12.6605 106.693V44.6139C12.6605 43.19 13.9236 41.9561 15.3811 41.9561H101.761C103.316 41.9561 104.482 43.0951 104.482 44.6139Z" fill="#F5F8FF"/>
<path d="M104.482 44.6139V98.0554H12.6605V44.6139C12.6605 43.19 13.9236 41.9561 15.3811 41.9561H101.761C103.316 41.9561 104.482 43.0951 104.482 44.6139Z" fill="#1C3754"/>
<path d="M101.178 45.2783H15.964V95.0178H101.178V45.2783Z" fill="white"/>
<path d="M58.6201 106.219C59.8544 106.219 60.8549 105.242 60.8549 104.036C60.8549 102.83 59.8544 101.853 58.6201 101.853C57.3859 101.853 56.3853 102.83 56.3853 104.036C56.3853 105.242 57.3859 106.219 58.6201 106.219Z" fill="#DBDFE6"/>
<path d="M120.805 74.325V72.4258" stroke="#E8ECF3" stroke-width="1.17273" stroke-linecap="round" stroke-linejoin="round"/>
<path d="M120.805 70.0543V66.4473" stroke="#E8ECF3" stroke-width="1.17273" stroke-linecap="round" stroke-linejoin="round" stroke-dasharray="2.93 2.93"/>
<path d="M120.805 65.3074V63.4082" stroke="#E8ECF3" stroke-width="1.17273" stroke-linecap="round" stroke-linejoin="round"/>
<path d="M120.707 79.0719C121.459 79.0719 122.068 78.4767 122.068 77.7425C122.068 77.0083 121.459 76.4131 120.707 76.4131C119.956 76.4131 119.347 77.0083 119.347 77.7425C119.347 78.4767 119.956 79.0719 120.707 79.0719Z" stroke="#E8ECF3" stroke-width="1.17273" stroke-miterlimit="10"/>
<path d="M120.707 61.0367C121.459 61.0367 122.068 60.4416 122.068 59.7073C122.068 58.9731 121.459 58.3779 120.707 58.3779C119.956 58.3779 119.347 58.9731 119.347 59.7073C119.347 60.4416 119.956 61.0367 120.707 61.0367Z" stroke="#E8ECF3" stroke-width="1.17273" stroke-miterlimit="10"/>
<path d="M2.45691 71.4773V69.5781" stroke="#E8ECF3" stroke-width="1.17273" stroke-linecap="round" stroke-linejoin="round"/>
<path d="M2.4574 65.9721V37.4952C2.4574 33.5085 5.66385 30.376 9.7448 30.376H41.8094" stroke="#E8ECF3" stroke-width="1.17273" stroke-linecap="round" stroke-linejoin="round" stroke-dasharray="4.49 4.49"/>
<path d="M43.5576 30.376H45.5009" stroke="#E8ECF3" stroke-width="1.17273" stroke-linecap="round" stroke-linejoin="round"/>
<path d="M2.36031 76.2233C3.1116 76.2233 3.72063 75.6281 3.72063 74.8939C3.72063 74.1597 3.1116 73.5645 2.36031 73.5645C1.60903 73.5645 1 74.1597 1 74.8939C1 75.6281 1.60903 76.2233 2.36031 76.2233Z" stroke="#E8ECF3" stroke-width="1.17273" stroke-miterlimit="10"/>
<path d="M49.097 31.61C49.8483 31.61 50.4573 31.0148 50.4573 30.2806C50.4573 29.5464 49.8483 28.9512 49.097 28.9512C48.3457 28.9512 47.7367 29.5464 47.7367 30.2806C47.7367 31.0148 48.3457 31.61 49.097 31.61Z" stroke="#E8ECF3" stroke-width="1.17273" stroke-miterlimit="10"/>
<path d="M22.4739 122.166C22.4739 123.684 21.2108 124.918 19.6561 124.918H4.49834C2.94369 124.918 1.68054 123.684 1.68054 122.166V87.3289C1.68054 85.8102 2.94369 84.5762 4.49834 84.5762H19.7533C21.3079 84.5762 22.5711 85.8102 22.5711 87.3289V122.166H22.4739Z" fill="white"/>
<path d="M19.7533 84.5762C21.3079 84.5762 22.5711 85.8102 22.5711 87.3289V122.261C22.5711 123.779 21.3079 125.013 19.7533 125.013H4.49834C2.94369 125.013 1.68054 123.779 1.68054 122.261V87.3289C1.68054 85.8102 2.94369 84.5762 4.49834 84.5762H19.7533Z" fill="#1C3754"/>
<path d="M19.7536 85.9053C20.5309 85.9053 21.1139 86.4748 21.1139 87.2342V122.166C21.1139 122.925 20.5309 123.495 19.7536 123.495H4.49862C3.7213 123.495 3.13831 122.925 3.13831 122.166V87.3291C3.13831 86.5697 3.7213 86.0002 4.49862 86.0002H6.73342C7.02492 86.0002 7.21925 86.19 7.21925 86.4748C7.21925 87.0443 7.70508 87.519 8.28807 87.519H16.0613C16.6443 87.519 17.1301 87.0443 17.1301 86.4748C17.1301 86.19 17.3244 86.0002 17.6159 86.0002H19.7536V85.9053Z" fill="white"/>
<path d="M13.4374 86.3804H11.397C11.2026 86.3804 11.1055 86.1904 11.1055 86.0955C11.1055 85.9056 11.2998 85.8106 11.397 85.8106H13.4374C13.6318 85.8106 13.7289 86.0005 13.7289 86.0955C13.7289 86.2854 13.6318 86.3804 13.4374 86.3804Z" fill="#2D5887"/>
<path d="M10.231 86.3804H10.1338C9.93951 86.3804 9.84235 86.1904 9.84235 86.0955C9.84235 85.9056 10.0367 85.8106 10.1338 85.8106H10.231C10.4253 85.8106 10.5225 86.0005 10.5225 86.0955C10.5225 86.2854 10.4253 86.3804 10.231 86.3804Z" fill="#2D5887"/>
<path d="M145 124.254V126.057C145 127.671 143.542 129 141.793 129H77.7615C76.0125 129 74.555 127.671 74.555 126.057V124.254H103.51C103.705 124.918 104.385 125.393 105.259 125.393H114.296C115.073 125.393 115.753 124.918 116.045 124.254H145Z" fill="#CED7E2"/>
<path d="M145 124.254C145 125.868 143.542 127.198 141.793 127.198H77.7615C76.0125 127.198 74.555 125.868 74.555 124.254H103.51C103.705 124.919 104.385 125.393 105.259 125.393H114.296C115.073 125.393 115.753 124.919 116.045 124.254H145Z" fill="#E4E9F1"/>
<path d="M141.405 124.253H78.1506V85.1453C78.1506 83.9113 79.2195 82.8672 80.4826 82.8672H139.073C140.336 82.8672 141.405 83.9113 141.405 85.1453V124.253Z" fill="#E4E9F1"/>
<path d="M125.664 124.443H81.1625V86.1895H138.199V124.443H132.174" fill="white"/>
<path d="M121.874 117.421H97.6796C97.0966 117.421 96.6108 116.946 96.6108 116.376V115.712C96.6108 115.142 97.0966 114.667 97.6796 114.667H121.874C122.457 114.667 122.943 115.142 122.943 115.712V116.376C122.845 116.946 122.457 117.421 121.874 117.421Z" fill="white"/>
<path d="M121.485 114.761C122.262 114.761 122.845 115.331 122.845 116.09C122.845 116.85 122.262 117.419 121.485 117.419H97.9711C97.1938 117.419 96.6108 116.85 96.6108 116.09C96.6108 115.331 97.1938 114.761 97.9711 114.761H121.485ZM121.485 113.527H97.9711C96.5136 113.527 95.3477 114.667 95.3477 116.09C95.3477 117.514 96.5136 118.653 97.9711 118.653H121.485C122.943 118.653 124.109 117.514 124.109 116.09C124.109 114.667 122.943 113.527 121.485 113.527Z" fill="#E6EAFF"/>
<path d="M106.036 116.661H98.0687C97.8743 116.661 97.68 116.471 97.68 116.281V115.996C97.68 115.806 97.8743 115.616 98.0687 115.616H106.036C106.231 115.616 106.425 115.806 106.425 115.996V116.281C106.425 116.471 106.328 116.661 106.036 116.661Z" fill="url(#paint4_linear_2241_6134)"/>
<path d="M105.842 94.4482C107.202 93.5938 108.757 93.1192 110.506 93.1192C115.169 93.1192 119.056 96.8212 119.056 101.472C119.056 106.124 115.267 109.826 110.506 109.826C105.744 109.826 101.955 106.124 101.955 101.472C102.052 98.4349 103.51 95.872 105.842 94.4482Z" fill="#F94895"/>
<path d="M111.089 97.2007L113.615 99.6687C113.906 99.9534 113.906 100.428 113.615 100.808C113.324 101.093 112.838 101.093 112.449 100.808L111.283 99.6687V104.984C111.283 105.459 110.894 105.744 110.506 105.744C110.117 105.744 109.728 105.364 109.728 104.984V99.6687L108.562 100.808C108.271 101.093 107.785 101.093 107.396 100.808C107.202 100.618 107.202 100.428 107.202 100.238C107.202 100.048 107.299 99.8585 107.396 99.6687L109.923 97.2007C110.117 97.0108 110.311 97.0108 110.506 97.0108C110.7 97.0108 110.992 97.1058 111.089 97.2007Z" fill="white"/>
<path d="M71.5424 83.5334H45.5992C45.0162 83.5334 44.5304 83.0586 44.5304 82.4888V81.7292C44.5304 81.1594 45.0162 80.6846 45.5992 80.6846H71.5424C72.1254 80.6846 72.6112 81.1594 72.6112 81.7292V82.4888C72.7083 83.0586 72.2225 83.5334 71.5424 83.5334Z" fill="white"/>
<path d="M71.2506 80.6842C72.0279 80.6842 72.7081 81.3487 72.7081 82.108C72.7081 82.8674 72.0279 83.5319 71.2506 83.5319H45.9876C45.2103 83.5319 44.5301 82.8674 44.5301 82.108C44.5301 81.3487 45.2103 80.6842 45.9876 80.6842H71.2506ZM71.2506 79.4502H45.9876C44.433 79.4502 43.267 80.6842 43.267 82.108C43.267 83.6268 44.5301 84.7659 45.9876 84.7659H71.2506C72.8052 84.7659 73.9712 83.5319 73.9712 82.108C73.9712 80.6842 72.7081 79.4502 71.2506 79.4502Z" fill="#E6EAFF"/>
<path d="M54.635 82.7735H46.0845C45.793 82.7735 45.5986 82.5836 45.5986 82.2987V82.0139C45.5986 81.729 45.793 81.5391 46.0845 81.5391H54.635C54.9265 81.5391 55.1208 81.729 55.1208 82.0139V82.2987C55.1208 82.5836 54.9265 82.7735 54.635 82.7735Z" fill="url(#paint5_linear_2241_6134)"/>
<path d="M54.4411 58.9473C55.8986 57.9981 57.6475 57.5234 59.4937 57.5234C64.5463 57.5234 68.6272 61.5102 68.6272 66.4462C68.6272 71.3822 64.5463 75.3689 59.4937 75.3689C54.4411 75.3689 50.3601 71.3822 50.3601 66.4462C50.263 63.2188 51.9148 60.466 54.4411 58.9473Z" fill="#F94895"/>
<path d="M60.0772 61.89L62.7978 64.5479C63.0893 64.8326 63.0893 65.4022 62.7978 65.6869C62.5063 65.9717 61.9233 65.9717 61.6318 65.6869L60.3687 64.5479V70.2432C60.3687 70.7179 59.98 71.0975 59.4942 71.0975C59.0083 71.0975 58.6197 70.7179 58.6197 70.2432V64.5479L57.3565 65.7819C57.065 66.0666 56.482 66.0666 56.1905 65.7819C55.9962 65.592 55.899 65.4022 55.899 65.2123C55.899 65.0225 55.9962 64.7377 56.1905 64.6428L58.9112 61.985C59.1055 61.7951 59.2998 61.7002 59.4942 61.7002C59.6885 61.7002 59.8828 61.7951 60.0772 61.89Z" fill="white"/>
<path d="M18.0045 111.44H6.15038C5.85888 111.44 5.66455 111.25 5.66455 110.965V110.68C5.66455 110.395 5.85888 110.205 6.15038 110.205H18.0045C18.296 110.205 18.4904 110.395 18.4904 110.68V110.965C18.4904 111.155 18.296 111.44 18.0045 111.44Z" fill="white"/>
<path d="M17.8097 110.11C18.1984 110.11 18.4899 110.395 18.4899 110.774C18.4899 111.154 18.1984 111.439 17.8097 111.439H6.3442C5.95554 111.439 5.66405 111.154 5.66405 110.774C5.66405 110.395 5.95554 110.11 6.3442 110.11H17.8097ZM17.8097 109.54H6.3442C5.66405 109.54 5.08105 110.11 5.08105 110.774C5.08105 111.439 5.66405 112.009 6.3442 112.009H17.9069C18.587 112.009 19.17 111.439 19.17 110.774C19.0729 110.11 18.587 109.54 17.8097 109.54Z" fill="#E6EAFF"/>
<path d="M10.2312 111.06H6.34454C6.24737 111.06 6.15021 110.965 6.15021 110.87V110.775C6.15021 110.68 6.24737 110.585 6.34454 110.585H10.2312C10.3283 110.585 10.4255 110.68 10.4255 110.775V110.87C10.5226 110.965 10.4255 111.06 10.2312 111.06Z" fill="url(#paint6_linear_2241_6134)"/>
<path d="M9.54986 97.0105C10.4243 96.441 11.4932 96.1562 12.562 96.1562C15.5741 96.1562 18.1004 98.5293 18.1004 101.472C18.1004 104.415 15.6713 106.788 12.562 106.788C9.45269 106.788 7.02356 104.415 7.02356 101.472C7.12072 99.5735 8.09238 97.9598 9.54986 97.0105Z" fill="#F94895"/>
<path d="M12.9506 98.8149L14.6024 100.334C14.7967 100.524 14.7967 100.808 14.6024 100.998C14.408 101.188 14.1165 101.188 13.825 100.998L13.0477 100.239V103.656C13.0477 103.941 12.8534 104.131 12.5619 104.131C12.2704 104.131 12.0761 103.941 12.0761 103.656V100.239L11.2987 100.998C11.1044 101.188 10.8129 101.188 10.5214 100.998C10.4243 100.903 10.3271 100.808 10.3271 100.618C10.3271 100.524 10.4243 100.334 10.5214 100.239L12.1732 98.72C12.2704 98.6251 12.3676 98.5302 12.5619 98.5302C12.7562 98.5302 12.8534 98.72 12.9506 98.8149Z" fill="white"/>
<defs>
<linearGradient id="paint0_linear_2241_6134" x1="109.283" y1="20.304" x2="122.724" y2="35.3132" gradientUnits="userSpaceOnUse">
<stop stop-color="white"/>
<stop offset="0.9942" stop-color="white" stop-opacity="0"/>
</linearGradient>
<linearGradient id="paint1_linear_2241_6134" x1="80.2623" y1="11.2009" x2="89.3611" y2="18.3803" gradientUnits="userSpaceOnUse">
<stop stop-color="white"/>
<stop offset="0.9942" stop-color="white" stop-opacity="0"/>
</linearGradient>
<linearGradient id="paint2_linear_2241_6134" x1="90.2773" y1="29.074" x2="112.265" y2="29.074" gradientUnits="userSpaceOnUse">
<stop stop-color="#FF66A9"/>
<stop offset="1" stop-color="#F53689"/>
</linearGradient>
<linearGradient id="paint3_linear_2241_6134" x1="58.6103" y1="123.558" x2="58.6103" y2="108.752" gradientUnits="userSpaceOnUse">
<stop stop-color="#F5F8FF"/>
<stop offset="0.9913" stop-color="#D8E0EB"/>
</linearGradient>
<linearGradient id="paint4_linear_2241_6134" x1="97.6197" y1="116.086" x2="106.473" y2="116.086" gradientUnits="userSpaceOnUse">
<stop stop-color="#83A6FF"/>
<stop offset="1" stop-color="#5A78FF"/>
</linearGradient>
<linearGradient id="paint5_linear_2241_6134" x1="45.5871" y1="82.1637" x2="55.0879" y2="82.1637" gradientUnits="userSpaceOnUse">
<stop stop-color="#83A6FF"/>
<stop offset="1" stop-color="#5A78FF"/>
</linearGradient>
<linearGradient id="paint6_linear_2241_6134" x1="6.13826" y1="110.769" x2="10.4814" y2="110.769" gradientUnits="userSpaceOnUse">
<stop stop-color="#83A6FF"/>
<stop offset="1" stop-color="#5A78FF"/>
</linearGradient>
</defs>
</svg>