<svg width="444" height="414" viewBox="0 0 444 414" fill="none" xmlns="http://www.w3.org/2000/svg">
<path d="M216.773 148.409C199.107 134.082 189.906 110.205 193.219 87.7963C196.899 62.4493 214.933 57.6738 224.133 61.7146C230.758 64.6534 234.806 73.4697 231.126 80.082C224.869 91.8372 200.947 87.0617 196.163 66.8575C194.323 59.5105 196.163 51.4288 200.579 45.1839C207.94 35.2655 221.557 31.592 233.702 29.7553C236.647 29.7553 239.591 29.3879 242.167 29.0206C248.792 28.2859 256.888 27.1838 265.353 26.0818" stroke="#D5DAE8" stroke-width="3.69644" stroke-miterlimit="10" stroke-linecap="round" stroke-linejoin="round"/>
<path d="M283.755 30.4897L272.346 35.6326L274.186 16.1631" fill="#D5DAE8"/>
<path d="M356.993 6.61227L351.841 9.55106L292.219 42.9798L276.762 20.2042L274.186 16.1633L263.145 0L347.424 5.87758L356.993 6.61227Z" fill="white"/>
<path d="M356.993 6.61214L351.841 9.55093L276.762 20.204L274.186 16.1632L347.424 5.87744L356.993 6.61214Z" fill="#D5DAE8"/>
<path d="M56.191 124.423C61.0235 122.855 63.6677 117.674 62.097 112.851C60.5263 108.027 55.3355 105.388 50.5029 106.956C45.6704 108.524 43.0262 113.705 44.5969 118.528C46.1676 123.352 51.3585 125.991 56.191 124.423Z" fill="#EAEEF9"/>
<path d="M76.2749 94.459C79.5611 93.393 81.3591 89.8698 80.291 86.5899C79.2229 83.3099 75.6932 81.5151 72.4071 82.5812C69.1209 83.6473 67.3229 87.1704 68.391 90.4504C69.4591 93.7304 72.9888 95.5251 76.2749 94.459Z" fill="#EAEEF9"/>
<path d="M151.873 51.3234C157.574 46.1226 157.973 37.2929 152.762 31.6018C147.552 25.9106 138.705 25.5131 133.004 30.714C127.302 35.9148 126.904 44.7444 132.114 50.4356C137.325 56.1267 146.171 56.5242 151.873 51.3234Z" fill="#EAEEF9"/>
<path d="M439.226 122.946C441.626 120.756 441.794 117.038 439.6 114.642C437.406 112.246 433.682 112.078 431.281 114.268C428.88 116.458 428.713 120.176 430.906 122.572C433.1 124.968 436.825 125.136 439.226 122.946Z" fill="#EAEEF9"/>
<path d="M287.803 306.001V407.022C287.067 407.389 286.331 407.389 285.595 407.757C277.13 409.961 268.297 411.798 259.464 412.9V306.001H287.803Z" fill="#4988FD"/>
<path d="M287.803 306.001V407.022C287.067 407.389 286.331 407.389 285.595 407.757C277.13 409.961 268.297 411.798 259.464 412.9V306.001H287.803Z" fill="white"/>
<path d="M313.932 306.001V395.267C312.092 396.369 310.252 397.104 308.412 397.838C307.676 398.206 306.94 398.573 306.204 398.94H305.836C305.1 399.308 303.996 399.675 303.26 400.042C297.739 402.614 291.85 404.451 285.962 406.287V306.001H313.932Z" fill="#2767F4"/>
<path d="M313.932 306.001V395.267C312.092 396.369 310.252 397.104 308.412 397.838C307.676 398.206 306.94 398.573 306.204 398.94H305.836C305.1 399.308 303.996 399.675 303.26 400.042C297.739 402.614 291.85 404.451 285.962 406.287V306.001H313.932Z" fill="#D5DAE8"/>
<path opacity="0.1" d="M313.932 344.573V389.022C312.46 389.757 310.988 390.492 309.516 391.226C308.78 391.594 308.044 391.961 307.308 392.329H306.94C306.204 392.696 305.1 393.063 304.364 393.431C298.843 396.002 292.955 397.839 287.066 399.676C286.698 399.676 286.33 400.043 285.962 400.043V390.492C286.33 389.39 286.698 388.288 287.066 387.186C292.587 372.859 299.579 361.471 307.676 351.92C309.516 349.349 311.724 346.777 313.932 344.573Z" fill="#062C78"/>
<path opacity="0.1" d="M313.933 306.001H259.464V337.593H313.933V306.001Z" fill="#062C78"/>
<path d="M429.495 194.328V307.471H341.166V307.838H164.142V104.694H332.334C334.542 104.327 336.75 104.327 339.326 104.327C342.271 104.327 344.847 104.327 347.791 104.694C351.471 105.062 354.784 105.429 358.096 106.164C375.394 109.837 390.851 118.654 402.996 130.409C419.558 146.94 429.495 169.715 429.495 194.328Z" fill="url(#paint0_linear_1198_13297)"/>
<path d="M358.098 106.531V190.654C358.098 193.593 355.89 195.797 352.945 195.797C350.001 195.797 347.793 193.593 347.793 190.654V104.695C351.105 105.062 354.786 105.797 358.098 106.531Z" fill="url(#paint1_linear_1198_13297)"/>
<path d="M354.785 220.777C365.964 220.777 375.027 211.731 375.027 200.572C375.027 189.414 365.964 180.368 354.785 180.368C343.606 180.368 334.543 189.414 334.543 200.572C334.543 211.731 343.606 220.777 354.785 220.777Z" fill="#EAEEF9"/>
<path d="M358.097 218.205C369.682 218.205 379.075 209.159 379.075 198.001C379.075 186.842 369.682 177.797 358.097 177.797C346.511 177.797 337.119 186.842 337.119 198.001C337.119 209.159 346.511 218.205 358.097 218.205Z" fill="#D5DAE8"/>
<path d="M359.202 218.205C370.381 218.205 379.444 209.159 379.444 198.001C379.444 186.842 370.381 177.797 359.202 177.797C348.023 177.797 338.96 186.842 338.96 198.001C338.96 209.159 348.023 218.205 359.202 218.205Z" fill="#EAEEF9"/>
<path d="M359.201 205.715C363.47 205.715 366.93 202.261 366.93 198.001C366.93 193.74 363.47 190.287 359.201 190.287C354.933 190.287 351.473 193.74 351.473 198.001C351.473 202.261 354.933 205.715 359.201 205.715Z" fill="#D5DAE8"/>
<path d="M252.104 185.511V307.838H71.7671V185.511C71.7671 146.94 99.0016 114.613 135.069 106.531C140.957 105.062 146.846 104.695 153.103 104.695H171.504C211.988 104.695 245.479 134.082 251.736 173.021C251.736 176.695 252.104 181.103 252.104 185.511Z" fill="#E8125C"/>
<path d="M365.09 99.9187V197.266C365.09 200.205 362.882 202.409 359.938 202.409C356.993 202.409 354.785 200.205 354.785 197.266V99.9187H365.09Z" fill="white"/>
<path d="M223.397 256.042C223.397 263.757 217.14 270.002 209.412 270.002C65.1423 270.002 74.3431 270.736 69.5587 267.798C65.5103 265.226 62.9341 260.818 62.9341 256.042C71.3989 160.164 69.9267 161.266 75.8153 155.756C81.3358 150.981 73.6071 152.45 217.14 152.45C221.557 152.45 225.605 154.654 228.181 157.593C232.966 163.838 231.862 161.634 223.397 256.042Z" fill="white"/>
<path d="M229.653 159.797C156.782 221.511 158.622 222.613 147.949 222.613C136.54 222.613 137.644 221.144 72.8701 159.797C78.3906 149.511 75.0783 152.45 217.508 152.45C222.66 152.45 227.444 155.388 229.653 159.797Z" fill="#EAEEF9"/>
<path d="M54.1008 180.001H6.25638C4.04818 180.001 2.20801 178.164 2.20801 175.96C2.20801 173.756 4.04818 171.919 6.25638 171.919H54.1008C56.309 171.919 58.1492 173.756 58.1492 175.96C58.1492 178.164 56.309 180.001 54.1008 180.001Z" fill="url(#paint2_linear_1198_13297)"/>
<path d="M51.8917 202.776H24.2891C22.0809 202.776 20.2407 200.94 20.2407 198.736C20.2407 196.532 22.0809 194.695 24.2891 194.695H51.8917C54.0999 194.695 55.94 196.532 55.94 198.736C55.94 200.94 54.0999 202.776 51.8917 202.776Z" fill="url(#paint3_linear_1198_13297)"/>
<path d="M49.3164 224.45H33.8589C31.6507 224.45 29.8105 222.613 29.8105 220.409C29.8105 218.205 31.6507 216.368 33.8589 216.368H49.6844C51.8926 216.368 53.7328 218.205 53.7328 220.409C53.7328 222.613 51.8926 224.45 49.3164 224.45Z" fill="url(#paint4_linear_1198_13297)"/>
<path d="M202.419 223.348H185.857C184.753 223.348 184.017 224.083 184.017 225.185L183.649 227.389L182.913 233.266L182.545 237.307L181.809 241.715C181.809 242.083 181.809 242.45 181.809 242.817C182.177 243.552 182.913 244.287 183.649 244.287H200.21C201.314 244.287 202.05 243.552 202.05 242.45L204.259 225.919C204.627 224.45 203.891 223.348 202.419 223.348ZM198.37 238.409C198.37 238.777 198.002 239.511 197.266 239.511H189.169H188.065C187.329 239.511 186.961 238.777 186.961 238.409L187.329 235.47L187.697 231.43L188.065 229.593C188.065 229.225 188.433 228.491 189.169 228.491H198.37C199.106 228.491 199.474 229.225 199.474 229.593L198.37 238.409Z" fill="url(#paint5_linear_1198_13297)"/>
<path d="M189.17 228.124C188.434 228.124 188.066 228.491 188.066 229.226L187.698 231.062C185.858 232.164 184.386 232.899 182.913 233.266C181.809 233.634 180.705 233.634 179.601 233.634C176.289 233.634 173.713 232.532 171.504 231.43C168.192 229.96 167.456 229.96 166.352 231.062C165.248 232.164 163.776 232.164 162.672 231.43C161.567 230.328 161.567 228.858 162.304 227.756C165.984 223.348 170.4 225.185 173.713 226.654C177.025 228.124 179.601 229.593 183.649 227.389C184.018 227.022 184.754 227.022 185.122 226.654C186.226 225.919 188.066 226.287 188.802 227.389C189.17 227.389 189.17 227.756 189.17 228.124Z" fill="url(#paint6_linear_1198_13297)"/>
<path d="M189.168 239.144L188.8 239.511C186.224 241.348 184.016 242.083 182.176 242.45C181.44 242.45 180.704 242.45 180.336 242.45C177.023 242.45 174.447 241.348 172.239 240.246C168.926 238.776 168.19 238.776 167.086 239.879C165.982 240.981 164.51 240.981 163.406 240.246C162.302 239.144 162.302 237.674 163.038 236.572C166.718 232.164 171.135 234.001 174.079 235.47C176.655 236.572 179.231 237.674 182.176 236.94C183.28 236.572 184.016 236.205 185.488 235.47C185.856 235.103 186.592 235.103 187.328 235.103L186.96 238.042C186.96 238.776 187.328 239.144 188.064 239.144H189.168Z" fill="url(#paint7_linear_1198_13297)"/>
<path opacity="0.5" d="M252.102 202.409L250.998 172.654C244.741 134.082 211.25 104.327 170.767 104.327H152.365C146.108 104.327 140.22 105.062 134.331 106.164L132.123 108.001L177.759 295.348L251.734 299.389V202.409H252.102Z" fill="url(#paint8_linear_1198_13297)"/>
<path d="M414.775 96.6126C416.247 97.7147 415.511 100.286 413.302 100.286H365.458H354.417V60.2451H413.302C415.143 60.2451 416.247 62.4492 414.775 63.9186L399.317 76.7758C397.109 78.6125 397.109 81.9187 399.317 83.7554L414.775 96.6126Z" fill="url(#paint9_linear_1198_13297)"/>
<path d="M287.802 407.022C288.17 407.022 288.171 407.022 288.539 407.022C288.171 407.022 287.434 407.39 287.066 407.39C287.066 407.022 287.434 407.022 287.802 407.022Z" fill="#D5DAE8"/>
<path d="M288.906 406.656C289.274 406.656 289.274 406.656 289.642 406.288C289.274 406.288 288.537 406.656 288.169 406.656C288.537 406.656 288.537 406.656 288.906 406.656Z" fill="#D5DAE8"/>
<path d="M353.313 326.206C353.313 326.206 352.945 326.941 352.208 328.41C347.792 336.492 332.703 364.41 325.71 388.288C325.71 388.288 325.342 388.655 324.974 388.655C321.294 390.859 317.613 392.696 313.933 394.533C312.093 395.635 310.253 396.369 308.412 397.104C307.676 397.471 306.94 397.839 306.204 398.206H305.836C305.1 398.573 303.996 398.941 303.26 399.308C297.739 401.88 291.851 403.716 285.962 405.553C285.226 405.92 284.122 406.288 283.386 406.288C283.018 406.288 282.65 406.655 282.282 406.655C281.914 406.655 281.546 406.655 281.546 407.022C283.018 402.247 284.49 397.471 286.33 393.431C291.851 379.104 298.844 367.716 306.94 358.165C309.516 355.226 312.093 352.288 314.669 349.716C325.342 339.063 336.751 332.083 347.424 328.41C348.896 327.675 351.104 326.941 353.313 326.206Z" fill="#D5DAE8"/>
<path d="M353.313 326.206C353.313 326.206 352.945 326.941 352.209 328.41C338.223 340.532 325.342 359.635 313.933 384.247C312.093 388.655 310.253 392.696 308.413 397.471C307.677 397.839 306.941 398.206 306.205 398.573H305.836C305.1 398.941 303.996 399.308 303.26 399.676C303.628 398.941 303.996 398.573 303.996 398.573C307.309 390.492 310.621 382.777 313.933 375.798C323.87 355.594 334.911 339.43 346.688 328.41C348.896 327.675 351.105 326.941 353.313 326.206Z" fill="#EAEEF9"/>
<path d="M302.523 407.39C301.787 409.226 301.419 411.063 300.683 412.9" stroke="white" stroke-width="3.69644" stroke-miterlimit="10"/>
<path d="M252.103 172.654C245.847 134.082 211.62 104.327 171.136 104.327H152.734C146.478 104.327 140.589 105.062 134.7 106.164C108.938 112.041 87.9601 130.042 77.6551 153.552C78.7593 152.817 80.5994 152.45 84.2798 152.082C94.2167 131.878 112.986 116.45 135.805 111.307C140.957 110.205 146.846 109.47 152.366 109.47H170.768C208.307 109.47 239.59 136.286 245.479 173.021C246.215 176.695 246.583 180.736 246.583 184.776V301.593H77.2871V269.267C74.3428 269.267 72.8707 268.899 71.7666 268.532V307.104H253.207V185.511C253.207 181.103 252.839 176.695 252.103 172.654Z" fill="#D21355"/>
<path d="M253.207 294.981V307.838H6.62461C2.94427 307.838 0 304.9 0 301.593C0 297.92 2.94427 294.981 6.62461 294.981H253.207Z" fill="#D21355"/>
<defs>
<linearGradient id="paint0_linear_1198_13297" x1="164.169" y1="206.199" x2="429.559" y2="206.199" gradientUnits="userSpaceOnUse">
<stop stop-color="#E8125C"/>
<stop offset="1" stop-color="#E8125C"/>
</linearGradient>
<linearGradient id="paint1_linear_1198_13297" x1="352.917" y1="183.165" x2="352.917" y2="134.454" gradientUnits="userSpaceOnUse">
<stop stop-color="#E8125C"/>
<stop offset="1" stop-color="#FF6565" stop-opacity="0"/>
</linearGradient>
<linearGradient id="paint2_linear_1198_13297" x1="2.215" y1="175.827" x2="58.0999" y2="175.827" gradientUnits="userSpaceOnUse">
<stop stop-color="#FF66A9"/>
<stop offset="1" stop-color="#F53689"/>
</linearGradient>
<linearGradient id="paint3_linear_1198_13297" x1="20.1138" y1="198.731" x2="56.0228" y2="198.731" gradientUnits="userSpaceOnUse">
<stop stop-color="#FF66A9"/>
<stop offset="1" stop-color="#F53689"/>
</linearGradient>
<linearGradient id="paint4_linear_1198_13297" x1="29.7093" y1="220.426" x2="53.5598" y2="220.426" gradientUnits="userSpaceOnUse">
<stop stop-color="#FF66A9"/>
<stop offset="1" stop-color="#F53689"/>
</linearGradient>
<linearGradient id="paint5_linear_1198_13297" x1="181.788" y1="233.588" x2="204.548" y2="233.588" gradientUnits="userSpaceOnUse">
<stop stop-color="#FF66A9"/>
<stop offset="1" stop-color="#F53689"/>
</linearGradient>
<linearGradient id="paint6_linear_1198_13297" x1="161.924" y1="229.309" x2="189.303" y2="229.309" gradientUnits="userSpaceOnUse">
<stop stop-color="#FF66A9"/>
<stop offset="1" stop-color="#F53689"/>
</linearGradient>
<linearGradient id="paint7_linear_1198_13297" x1="162.286" y1="238.443" x2="189.165" y2="238.443" gradientUnits="userSpaceOnUse">
<stop stop-color="#FF66A9"/>
<stop offset="1" stop-color="#F53689"/>
</linearGradient>
<linearGradient id="paint8_linear_1198_13297" x1="247.54" y1="199.855" x2="171.37" y2="203.404" gradientUnits="userSpaceOnUse">
<stop stop-color="#E8125C"/>
<stop offset="1" stop-color="#450000" stop-opacity="0"/>
</linearGradient>
<linearGradient id="paint9_linear_1198_13297" x1="354.811" y1="80.0981" x2="415.646" y2="80.0981" gradientUnits="userSpaceOnUse">
<stop stop-color="#FF66A9"/>
<stop offset="1" stop-color="#F53689"/>
</linearGradient>
</defs>
</svg>