<svg width="64" height="64" viewBox="0 0 64 64" fill="none" xmlns="http://www.w3.org/2000/svg">
<circle cx="32" cy="32" r="32" fill="#E8125C"/>
<g clip-path="url(#clip0_1757_18213)">
<path d="M39.5269 25.8264V25.7764C39.508 25.7764 39.4895 25.7768 39.4701 25.7779H32.8587C32.5791 25.7603 32.3048 25.8602 32.1006 26.0545C31.8961 26.2488 31.78 26.5202 31.78 26.8041C31.78 27.0881 31.8961 27.3595 32.1006 27.5541L32.1006 27.5542C32.3048 27.7481 32.5794 27.8483 32.8591 27.8304H39.4702C39.7451 27.8483 40.0152 27.7522 40.2186 27.5647C40.4224 27.3767 40.5418 27.1128 40.55 26.8341L40.55 26.8341C40.5578 26.555 40.4536 26.2848 40.2606 26.0853C40.0678 25.8857 39.8023 25.7742 39.5265 25.7764L39.5269 25.8264ZM39.5269 25.8264C39.5082 25.8264 39.4902 25.8268 39.4715 25.8279L39.5269 25.8264ZM48.0559 23.9207L48.057 23.9206C48.6098 23.9082 49.05 23.451 49.05 22.8922C49.05 22.3334 48.6094 21.8762 48.0567 21.8638H48.0556L32.8579 21.8641C32.5846 21.8583 32.3211 21.9638 32.1259 22.1572C31.9307 22.3507 31.8209 22.6157 31.8209 22.8922C31.8209 23.1687 31.9307 23.4337 32.1259 23.6272C32.3211 23.8206 32.5849 23.9265 32.8583 23.9206L48.0559 23.9207ZM32.8574 38.5162L32.8563 38.5162C32.3035 38.5286 31.8633 38.9859 31.8633 39.5446C31.8633 40.103 32.3039 40.5603 32.8566 40.5727H32.8577L48.0559 40.5727L48.057 40.5727C48.6098 40.5603 49.05 40.103 49.05 39.5446C49.05 38.9859 48.6094 38.5286 48.0567 38.5162H48.0556L32.8574 38.5162ZM39.5444 42.4285H39.5439C39.5252 42.4285 39.5064 42.4288 39.4866 42.4303H32.8585C32.5799 42.4146 32.3078 42.516 32.1054 42.7099C31.9027 42.9042 31.7878 43.1744 31.7878 43.4569C31.7878 43.7394 31.9027 44.0097 32.1054 44.2039C32.3078 44.3979 32.5802 44.4993 32.8589 44.4839H39.4876C39.76 44.4967 40.0255 44.3983 40.2253 44.2107C40.425 44.0232 40.5422 43.7619 40.55 43.4862C40.5578 43.2104 40.4558 42.9428 40.2668 42.744C40.0778 42.5448 39.8171 42.4315 39.5444 42.4285ZM18.6003 23.7227L18.6003 23.7227C18.4103 23.9226 18.3079 24.1921 18.3168 24.4693C18.3257 24.7463 18.4445 25.0084 18.6466 25.1956L21.0508 27.5461C21.2736 27.7644 21.5834 27.8673 21.8907 27.826L21.8907 27.826C22.1984 27.7843 22.4702 27.6027 22.629 27.3332C22.629 27.3332 22.629 27.3331 22.629 27.3331L25.7484 22.0579L25.7484 22.0579L26.7974 20.2848L26.7974 20.2848L26.9612 20.0075C26.9613 20.0074 26.9613 20.0073 26.9614 20.0072C27.1619 19.6782 27.1637 19.2628 26.9653 18.9323C26.7668 18.6017 26.4014 18.4113 26.02 18.441L26.0199 18.441C25.6941 18.4665 25.4012 18.6489 25.2315 18.9299C24.212 18.3116 23.025 17.95 21.7553 17.95C18.0067 17.95 14.95 21.0514 14.95 24.8486C14.95 28.6459 18.0067 31.7444 21.7553 31.7444C25.5038 31.7444 28.5644 28.646 28.5644 24.8486C28.5644 24.1907 28.4719 23.5542 28.2996 22.9514C28.1826 22.5421 27.862 22.3264 27.5136 22.3045C27.1668 22.2828 26.7944 22.4528 26.5667 22.8072C26.3804 23.0972 26.3447 23.4523 26.418 23.7834C26.4937 24.1257 26.5338 24.4821 26.5338 24.8486C26.5338 27.5347 24.4043 29.6879 21.7552 29.6879C19.1065 29.6879 16.9816 27.5347 16.9816 24.8486C16.9816 22.1625 19.1066 20.0065 21.7553 20.0065C22.6488 20.0065 23.4801 20.2566 24.1935 20.6852L21.5416 25.1658L20.0556 23.7155C19.8634 23.5174 19.6013 23.4068 19.3273 23.4079C19.0526 23.409 18.7907 23.5228 18.6003 23.7227ZM21.7553 34.6021C18.0067 34.6021 14.95 37.7045 14.95 41.5018C14.95 45.2991 18.0067 48.3976 21.7553 48.3976C25.5038 48.3976 28.5644 45.2991 28.5644 41.5018C28.5644 39.7258 28.0815 38.3179 26.7916 36.8791C26.276 36.304 25.9109 36.0016 25.2733 35.6086C24.2445 34.9745 23.0429 34.6021 21.7553 34.6021ZM21.7553 36.6586C22.6665 36.6586 23.3748 36.8363 24.2339 37.3621C24.8904 37.7639 25.2249 38.0817 25.6654 38.7132C26.3184 39.6492 26.5342 40.4596 26.5342 41.5018C26.5342 44.1878 24.4047 46.3404 21.7556 46.3404C19.1068 46.3404 16.9819 44.1879 16.9819 41.5018C16.9819 38.8157 19.1066 36.6586 21.7553 36.6586Z" fill="white" stroke="white" stroke-width="0.1"/>
</g>
<defs>
<clipPath id="clip0_1757_18213">
<rect width="44" height="32" fill="white" transform="translate(10 16)"/>
</clipPath>
</defs>
</svg>