<svg width="571" height="376" viewBox="0 0 571 376" fill="none" xmlns="http://www.w3.org/2000/svg">
<path d="M501.373 66.1306V362.076C501.373 369.58 495.27 375.677 487.29 375.677H14.0835C6.10286 375.677 0 369.58 0 362.076V66.1306C0 58.6264 6.10286 52.5293 14.0835 52.5293H487.29C495.27 52.5293 501.373 58.6264 501.373 66.1306Z" fill="white"/>
<path d="M465.695 350.818H158.205C150.224 350.818 143.652 344.252 143.652 336.279V109.747C143.652 101.774 150.224 95.208 158.205 95.208H465.695C473.676 95.208 480.248 101.774 480.248 109.747V336.748C479.779 344.721 473.676 350.818 465.695 350.818Z" fill="#E6EDF5"/>
<path d="M23.9417 80.2001C27.3122 80.2001 30.0446 77.4703 30.0446 74.103C30.0446 70.7356 27.3122 68.0059 23.9417 68.0059C20.5712 68.0059 17.8388 70.7356 17.8388 74.103C17.8388 77.4703 20.5712 80.2001 23.9417 80.2001Z" fill="#E6ECF5"/>
<path d="M41.3114 80.2001C44.6819 80.2001 47.4142 77.4703 47.4142 74.103C47.4142 70.7356 44.6819 68.0059 41.3114 68.0059C37.9409 68.0059 35.2085 70.7356 35.2085 74.103C35.2085 77.4703 37.9409 80.2001 41.3114 80.2001Z" fill="#E6ECF5"/>
<path d="M59.1518 80.2001C62.5223 80.2001 65.2546 77.4703 65.2546 74.103C65.2546 70.7356 62.5223 68.0059 59.1518 68.0059C55.7813 68.0059 53.0489 70.7356 53.0489 74.103C53.0489 77.4703 55.7813 80.2001 59.1518 80.2001Z" fill="#E6ECF5"/>
<path d="M339.885 129.446H176.517C174.639 129.446 173.7 128.039 173.7 126.632C173.7 124.756 175.108 123.818 176.517 123.818H339.885C341.763 123.818 342.702 125.225 342.702 126.632C343.172 128.039 341.763 129.446 339.885 129.446Z" fill="#CED7E2"/>
<path d="M339.885 146.33H176.517C174.639 146.33 173.7 144.923 173.7 143.516C173.7 141.64 175.108 140.702 176.517 140.702H339.885C341.763 140.702 342.702 142.109 342.702 143.516C343.172 144.923 341.763 146.33 339.885 146.33Z" fill="#CED7E2"/>
<path d="M258.671 164.623H176.517C174.639 164.623 173.7 163.216 173.7 161.809C173.7 159.933 175.108 158.995 176.517 158.995H258.671C260.548 158.995 261.487 160.402 261.487 161.809C261.957 163.216 260.548 164.623 258.671 164.623Z" fill="url(#paint0_linear_1757_18260)"/>
<path d="M117.362 355.04H28.1665C22.5331 355.04 18.308 350.819 18.308 345.191V104.12C18.308 98.4916 22.5331 94.2705 28.1665 94.2705H117.362C122.996 94.2705 127.221 98.4916 127.221 104.12V344.722C127.221 350.35 122.996 355.04 117.362 355.04Z" fill="#1C3754"/>
<path d="M72.7649 127.57C78.7282 127.57 83.5623 122.74 83.5623 116.782C83.5623 110.825 78.7282 105.995 72.7649 105.995C66.8017 105.995 61.9676 110.825 61.9676 116.782C61.9676 122.74 66.8017 127.57 72.7649 127.57Z" fill="#2D5887"/>
<path d="M107.503 140.707H38.4938C37.5549 140.707 36.616 139.768 36.616 138.829C36.616 137.89 37.5549 136.951 38.4938 136.951H107.034C107.972 136.951 108.911 137.89 108.911 138.829C109.381 139.768 108.442 140.707 107.503 140.707Z" fill="#2D5887"/>
<path d="M107.503 154.776H38.4938C37.5549 154.776 36.616 153.837 36.616 152.898C36.616 151.959 37.5549 151.021 38.4938 151.021H107.034C107.972 151.021 108.911 151.959 108.911 152.898C109.381 153.837 108.442 154.776 107.503 154.776Z" fill="#2D5887"/>
<path d="M107.503 179.635H38.4938C37.5549 179.635 36.616 178.696 36.616 177.757C36.616 176.818 37.5549 175.879 38.4938 175.879H107.034C107.972 175.879 108.911 176.818 108.911 177.757C109.381 178.696 108.442 179.635 107.503 179.635Z" fill="#2D5887"/>
<path d="M63.3747 194.173H38.0243C37.5549 194.173 36.616 193.704 36.616 192.765V191.357C36.616 190.887 37.0854 189.948 38.0243 189.948H63.3747C63.8441 189.948 64.783 190.418 64.783 191.357V192.765C64.783 193.704 64.3136 194.173 63.3747 194.173Z" fill="#2D5887"/>
<path d="M107.503 220.437H38.4938C37.5549 220.437 36.616 219.498 36.616 218.559C36.616 217.621 37.5549 216.682 38.4938 216.682H107.034C107.972 216.682 108.911 217.621 108.911 218.559C109.381 219.498 108.442 220.437 107.503 220.437Z" fill="#2D5887"/>
<path d="M63.3747 234.978H38.0243C37.5549 234.978 36.616 234.509 36.616 233.57V232.161C36.616 231.692 37.0854 230.753 38.0243 230.753H63.3747C63.8441 230.753 64.783 231.222 64.783 232.161V233.57C64.783 234.039 64.3136 234.978 63.3747 234.978Z" fill="#2D5887"/>
<path d="M107.503 260.772H38.4938C37.5549 260.772 36.616 259.833 36.616 258.894C36.616 257.956 37.5549 257.017 38.4938 257.017H107.034C107.972 257.017 108.911 257.956 108.911 258.894C109.381 259.833 108.442 260.772 107.503 260.772Z" fill="#2D5887"/>
<path d="M63.3747 275.313H38.0243C37.5549 275.313 36.616 274.844 36.616 273.905V272.496C36.616 272.027 37.0854 271.088 38.0243 271.088H63.3747C63.8441 271.088 64.783 271.557 64.783 272.496V273.905C64.783 274.844 64.3136 275.313 63.3747 275.313Z" fill="url(#paint1_linear_1757_18260)"/>
<path d="M569.443 214.805L570.851 325.961C570.851 329.713 567.565 332.996 563.809 332.996H455.366C451.611 332.996 448.325 329.713 448.325 325.961V183.382C448.325 179.63 451.611 176.347 455.366 176.347H534.234L569.443 214.805Z" fill="white"/>
<path d="M501.375 310.955H497.62C496.681 310.955 496.212 310.016 496.212 309.547C496.212 308.608 497.15 308.139 497.62 308.139H501.375C502.314 308.139 502.784 309.078 502.784 309.547C503.253 310.016 502.314 310.955 501.375 310.955Z" fill="#E3EAF2"/>
<path d="M490.575 310.955H467.572C466.633 310.955 466.164 310.016 466.164 309.547C466.164 308.608 467.103 308.139 467.572 308.139H490.575C491.514 308.139 491.984 309.078 491.984 309.547C491.984 310.016 491.514 310.955 490.575 310.955Z" fill="#E3EAF2"/>
<path d="M520.62 199.801H468.511C467.103 199.801 466.164 198.862 466.164 197.454C466.164 196.045 467.103 195.106 468.511 195.106H520.62C522.028 195.106 522.967 196.045 522.967 197.454C522.498 198.862 521.559 199.801 520.62 199.801Z" fill="#CED7E2"/>
<path d="M488.228 211.996H468.511C467.103 211.996 466.164 211.057 466.164 209.649C466.164 208.241 467.103 207.302 468.511 207.302H488.228C489.636 207.302 490.575 208.241 490.575 209.649C490.575 211.057 489.636 211.996 488.228 211.996Z" fill="#CED7E2"/>
<path d="M534.237 176.347V206.832C534.237 211.053 537.992 214.805 542.217 214.805H569.445" fill="#CED7E2"/>
<path d="M552.074 235.442H524.846H496.679H470.389C467.573 235.442 465.225 237.787 465.225 240.601V287.971C465.225 290.786 467.573 293.131 470.389 293.131H552.074C554.891 293.131 557.238 290.786 557.238 287.971V241.071C557.707 237.787 555.36 235.442 552.074 235.442ZM498.556 277.184V266.397H523.437V277.184H498.556ZM523.437 280.467V290.317H498.556V280.467H523.437ZM523.437 252.796V263.583H498.556V252.796H523.437ZM498.556 249.513V238.725H523.437V249.513H498.556ZM554.421 263.583H526.723V252.796H554.421V263.583ZM495.27 263.583H468.512V252.796H495.27V263.583ZM468.512 266.866H495.27V277.653H468.512V266.866ZM526.723 266.866H554.421V277.653H526.723V266.866ZM554.421 241.071V249.982H526.723V239.194H552.074C553.482 238.725 554.421 239.663 554.421 241.071ZM470.389 238.725H495.27V249.513H468.512V240.601C468.512 239.663 469.451 238.725 470.389 238.725ZM468.512 287.971V280.467H495.27V290.317H470.389C469.451 290.317 468.512 289.379 468.512 287.971ZM552.074 290.317H526.723V280.467H554.421V287.971C554.421 289.379 553.482 290.317 552.074 290.317Z" fill="#E3EAF2"/>
<path d="M230.969 214.338L232.378 325.962C232.378 329.714 229.092 332.997 225.336 332.997H116.893C113.137 332.997 109.851 329.714 109.851 325.962V182.445C109.851 178.693 113.137 175.41 116.893 175.41H195.761L230.969 214.338Z" fill="white"/>
<path d="M212.19 291.258H146.937C145.998 291.258 145.528 290.319 145.528 289.85C145.528 288.911 146.467 288.441 146.937 288.441H212.19C213.129 288.441 213.599 289.38 213.599 289.85C213.599 290.319 213.129 291.258 212.19 291.258Z" fill="#E3EAF2"/>
<path d="M138.957 291.258H127.69C126.751 291.258 126.282 290.319 126.282 289.85C126.282 288.911 127.221 288.441 127.69 288.441H138.957C139.896 288.441 140.366 289.38 140.366 289.85C140.366 290.319 139.896 291.258 138.957 291.258Z" fill="#E3EAF2"/>
<path d="M211.722 273.906H182.616C181.677 273.906 181.208 272.967 181.208 272.497C181.208 272.028 182.146 271.089 182.616 271.089H211.722C212.661 271.089 213.13 272.028 213.13 272.497C213.13 272.967 212.661 273.906 211.722 273.906Z" fill="#E3EAF2"/>
<path d="M170.41 273.906H127.69C126.751 273.906 126.282 272.967 126.282 272.497C126.282 272.028 127.221 271.089 127.69 271.089H170.41C171.349 271.089 171.819 272.028 171.819 272.497C171.819 272.967 171.349 273.906 170.41 273.906Z" fill="#E3EAF2"/>
<path d="M212.66 256.082H201.393C200.454 256.082 199.985 255.143 199.985 254.674C199.985 254.205 200.924 253.266 201.393 253.266H212.66C213.599 253.266 214.068 254.205 214.068 254.674C214.068 255.143 213.599 256.082 212.66 256.082Z" fill="#E3EAF2"/>
<path d="M190.596 256.082H128.629C127.69 256.082 127.22 255.143 127.22 254.674C127.22 254.205 128.159 253.266 128.629 253.266H190.596C191.535 253.266 192.004 254.205 192.004 254.674C192.004 255.143 191.535 256.082 190.596 256.082Z" fill="#E3EAF2"/>
<path d="M162.901 310.488H158.676C157.738 310.488 157.268 309.549 157.268 309.079C157.268 308.14 158.207 307.671 158.676 307.671H162.432C163.371 307.671 163.84 308.61 163.84 309.079C164.31 309.549 163.84 310.488 162.901 310.488Z" fill="#E3EAF2"/>
<path d="M151.632 310.488H128.629C127.69 310.488 127.22 309.549 127.22 309.079C127.22 308.14 128.159 307.671 128.629 307.671H151.632C152.571 307.671 153.04 308.61 153.04 309.079C153.51 309.549 152.571 310.488 151.632 310.488Z" fill="#E3EAF2"/>
<path d="M213.13 238.729H172.757C171.818 238.729 171.349 237.79 171.349 237.32C171.349 236.851 172.288 235.912 172.757 235.912H212.661C213.6 235.912 214.069 236.851 214.069 237.32C214.069 237.79 214.069 238.729 213.13 238.729Z" fill="#E3EAF2"/>
<path d="M160.082 238.729H129.098C128.159 238.729 127.689 237.79 127.689 237.32C127.689 236.851 128.628 235.912 129.098 235.912H160.082C161.02 235.912 161.49 236.851 161.49 237.32C161.49 237.79 161.02 238.729 160.082 238.729Z" fill="#E3EAF2"/>
<path d="M181.677 198.864H129.568C128.159 198.864 127.22 197.926 127.22 196.517C127.22 195.109 128.159 194.17 129.568 194.17H181.677C183.085 194.17 184.024 195.109 184.024 196.517C184.024 197.926 183.085 198.864 181.677 198.864Z" fill="#CED7E2"/>
<path d="M149.754 211.528H130.037C128.628 211.528 127.689 210.589 127.689 209.18C127.689 207.772 128.628 206.833 130.037 206.833H149.754C151.162 206.833 152.101 207.772 152.101 209.18C151.631 210.589 150.693 211.528 149.754 211.528Z" fill="#CED7E2"/>
<path d="M195.293 175.41V206.365C195.293 210.586 199.049 214.338 203.274 214.338H230.502" fill="#CED7E2"/>
<path d="M399.501 214.338L400.909 325.962C400.909 329.714 397.623 332.997 393.867 332.997H285.424C281.669 332.997 278.383 329.714 278.383 325.962V182.445C278.383 178.693 281.669 175.41 285.424 175.41H364.292L399.501 214.338Z" fill="white"/>
<path d="M380.722 291.258H315.468C314.529 291.258 314.06 290.319 314.06 289.85C314.06 288.911 314.999 288.441 315.468 288.441H380.722C381.661 288.441 382.13 289.38 382.13 289.85C382.13 290.319 381.661 291.258 380.722 291.258Z" fill="#E3EAF2"/>
<path d="M307.489 291.258H296.222C295.283 291.258 294.814 290.319 294.814 289.85C294.814 288.911 295.753 288.441 296.222 288.441H307.489C308.428 288.441 308.897 289.38 308.897 289.85C308.897 290.319 308.428 291.258 307.489 291.258Z" fill="#E3EAF2"/>
<path d="M380.253 273.437H351.148C350.209 273.437 349.739 272.498 349.739 272.028C349.739 271.09 350.678 270.62 351.148 270.62H380.253C381.192 270.62 381.662 271.559 381.662 272.028C382.131 272.967 381.192 273.437 380.253 273.437Z" fill="#E3EAF2"/>
<path d="M338.942 273.437H296.691C295.752 273.437 295.283 272.498 295.283 272.028C295.283 271.09 296.222 270.62 296.691 270.62H338.942C339.881 270.62 340.35 271.559 340.35 272.028C340.82 272.967 339.881 273.437 338.942 273.437Z" fill="#E3EAF2"/>
<path d="M380.727 256.082H369.46C368.521 256.082 368.052 255.143 368.052 254.674C368.052 254.205 368.991 253.266 369.46 253.266H380.727C381.666 253.266 382.135 254.205 382.135 254.674C382.135 255.143 381.666 256.082 380.727 256.082Z" fill="#E3EAF2"/>
<path d="M359.128 256.082H297.16C296.221 256.082 295.752 255.143 295.752 254.674C295.752 254.205 296.691 253.266 297.16 253.266H359.128C360.067 253.266 360.536 254.205 360.536 254.674C360.536 255.143 360.067 256.082 359.128 256.082Z" fill="#E3EAF2"/>
<path d="M331.433 310.488H327.677C326.738 310.488 326.269 309.549 326.269 309.079C326.269 308.61 327.208 307.671 327.677 307.671H331.433C332.372 307.671 332.841 308.61 332.841 309.079C332.841 309.549 332.372 310.488 331.433 310.488Z" fill="#E3EAF2"/>
<path d="M320.163 310.488H297.16C296.221 310.488 295.752 309.549 295.752 309.079C295.752 308.61 296.691 307.671 297.16 307.671H320.163C321.102 307.671 321.572 308.61 321.572 309.079C321.572 309.549 321.102 310.488 320.163 310.488Z" fill="#E3EAF2"/>
<path d="M381.662 238.729H341.758C340.819 238.729 340.35 237.79 340.35 237.32C340.35 236.851 341.289 235.912 341.758 235.912H381.662C382.6 235.912 383.07 236.851 383.07 237.32C383.07 237.79 382.6 238.729 381.662 238.729Z" fill="#E3EAF2"/>
<path d="M328.613 238.729H297.629C296.691 238.729 296.221 237.79 296.221 237.32C296.221 236.851 297.16 235.912 297.629 235.912H328.613C329.552 235.912 330.022 236.851 330.022 237.32C330.022 237.79 329.552 238.729 328.613 238.729Z" fill="#E3EAF2"/>
<path d="M350.208 198.864H298.099C296.691 198.864 295.752 197.926 295.752 196.517C295.752 195.109 296.691 194.17 298.099 194.17H350.208C351.617 194.17 352.556 195.109 352.556 196.517C352.556 197.926 351.617 198.864 350.208 198.864Z" fill="#CED7E2"/>
<path d="M318.285 211.528H298.568C297.16 211.528 296.221 210.589 296.221 209.18C296.221 207.772 297.16 206.833 298.568 206.833H318.285C319.694 206.833 320.633 207.772 320.633 209.18C320.163 210.589 319.224 211.528 318.285 211.528Z" fill="#CED7E2"/>
<path d="M363.825 175.41V206.365C363.825 210.586 367.58 214.338 371.805 214.338H399.034" fill="#CED7E2"/>
<path d="M448.326 126.164H275.568C270.405 126.164 266.649 121.943 266.649 117.252V8.91119C266.649 3.75208 270.874 0 275.568 0H448.326C453.49 0 457.246 4.22109 457.246 8.91119V117.252C457.246 122.412 453.021 126.164 448.326 126.164Z" fill="url(#paint2_linear_1757_18260)"/>
<path d="M361.945 57.6883C372.575 57.6883 381.192 49.079 381.192 38.4589C381.192 27.8388 372.575 19.2295 361.945 19.2295C351.315 19.2295 342.697 27.8388 342.697 38.4589C342.697 49.079 351.315 57.6883 361.945 57.6883Z" fill="white"/>
<path d="M422.504 80.1999H301.855C299.977 80.1999 298.569 78.7929 298.569 76.9169C298.569 75.0408 299.977 73.6338 301.855 73.6338H422.034C423.912 73.6338 425.32 75.0408 425.32 76.9169C425.79 78.7929 424.381 80.1999 422.504 80.1999Z" fill="white"/>
<path d="M422.504 105.527H301.855C299.977 105.527 298.569 104.12 298.569 102.244C298.569 100.368 299.977 98.9609 301.855 98.9609H422.034C423.912 98.9609 425.32 100.368 425.32 102.244C425.79 104.12 424.381 105.527 422.504 105.527Z" fill="white"/>
<defs>
<linearGradient id="paint0_linear_1757_18260" x1="173.319" y1="161.514" x2="261.772" y2="161.514" gradientUnits="userSpaceOnUse">
<stop stop-color="#FF66A9"/>
<stop offset="1" stop-color="#F53689"/>
</linearGradient>
<linearGradient id="paint1_linear_1757_18260" x1="36.6554" y1="273.246" x2="64.6985" y2="273.246" gradientUnits="userSpaceOnUse">
<stop stop-color="#FF66A9"/>
<stop offset="1" stop-color="#F53689"/>
</linearGradient>
<linearGradient id="paint2_linear_1757_18260" x1="266.267" y1="63.0218" x2="457.215" y2="63.0218" gradientUnits="userSpaceOnUse">
<stop stop-color="#FF83C6"/>
<stop offset="1" stop-color="#E8125C"/>
</linearGradient>
</defs>
</svg>