<svg width="25" height="22" viewBox="0 0 25 22" fill="none" xmlns="http://www.w3.org/2000/svg">
<path d="M15.9076 6.98529L16.0239 7.22092L16.284 7.25876L23.238 8.27076L23.2386 8.27085C23.2998 8.27967 23.3573 8.30545 23.4046 8.34527C23.4518 8.38508 23.487 8.43734 23.5062 8.49612C23.5253 8.55491 23.5275 8.61787 23.5127 8.67788C23.4979 8.73789 23.4665 8.79255 23.4222 8.83566L23.4222 8.83571L18.3892 13.7357L18.2007 13.9192L18.2452 14.1785L19.4331 21.1044C19.4331 21.1044 19.4332 21.1045 19.4332 21.1045C19.4436 21.1655 19.4368 21.2282 19.4134 21.2855C19.3901 21.3429 19.3512 21.3926 19.3011 21.429C19.251 21.4654 19.1917 21.4871 19.1299 21.4916C19.0681 21.496 19.0063 21.4831 18.9515 21.4543L18.9514 21.4543L12.7324 18.1893L12.4999 18.0672L12.2674 18.1893L6.04839 21.4568C6.04829 21.4569 6.04818 21.4569 6.04807 21.457C5.99318 21.4856 5.93139 21.4983 5.86965 21.4938C5.80779 21.4892 5.74843 21.4675 5.69827 21.431C5.64812 21.3945 5.60914 21.3447 5.58575 21.2873C5.56241 21.2299 5.55551 21.1673 5.56581 21.1062C5.56584 21.1061 5.56586 21.106 5.56588 21.1058L6.75376 14.1845L6.79826 13.9252L6.60975 13.7417L1.57675 8.84171L1.5767 8.84166C1.5324 8.79855 1.50106 8.74389 1.48623 8.68388C1.4714 8.62387 1.47367 8.56091 1.49278 8.50212C1.51189 8.44334 1.54708 8.39108 1.59437 8.35126C1.64165 8.31145 1.69914 8.28567 1.76032 8.27685L1.76132 8.27671L8.71532 7.25971L8.9751 7.22171L9.09131 6.9863L12.2012 0.686535C12.2287 0.630899 12.2712 0.584056 12.3239 0.55129C12.3766 0.518525 12.4374 0.50114 12.4995 0.501099C12.5616 0.501057 12.6224 0.51836 12.6751 0.551055C12.7278 0.583689 12.7703 0.630359 12.7979 0.685818C12.7979 0.685924 12.798 0.68603 12.798 0.686135L15.9076 6.98529Z" stroke="#E8125C"/>
</svg>