<svg width="497" height="468" viewBox="0 0 497 468" fill="none" xmlns="http://www.w3.org/2000/svg">
<path d="M453.559 77.7783C460.987 77.7783 466.667 83.4587 466.667 90.8869V377.966C466.667 385.394 460.987 391.075 453.559 391.075H13.1086C5.68041 391.075 0 385.394 0 377.966V90.8869C0 83.4587 5.68041 77.7783 13.1086 77.7783H453.559Z" fill="white"/>
<path d="M466.667 90.8869V117.541H0V90.8869C0 83.4587 5.68041 77.7783 13.1086 77.7783H453.559C460.987 77.7783 466.667 83.4587 466.667 90.8869Z" fill="url(#paint0_linear_1748_11669)"/>
<path opacity="0.8" d="M20.9714 103.122C24.1086 103.122 26.6518 100.578 26.6518 97.4411C26.6518 94.3039 24.1086 91.7607 20.9714 91.7607C17.8342 91.7607 15.291 94.3039 15.291 97.4411C15.291 100.578 17.8342 103.122 20.9714 103.122Z" fill="white"/>
<path opacity="0.5" d="M37.1394 103.122C40.2766 103.122 42.8198 100.578 42.8198 97.4411C42.8198 94.3039 40.2766 91.7607 37.1394 91.7607C34.0022 91.7607 31.459 94.3039 31.459 97.4411C31.459 100.578 34.0022 103.122 37.1394 103.122Z" fill="white"/>
<path opacity="0.2" d="M53.3064 103.122C56.4436 103.122 58.9868 100.578 58.9868 97.4411C58.9868 94.3039 56.4436 91.7607 53.3064 91.7607C50.1692 91.7607 47.626 94.3039 47.626 97.4411C47.626 100.578 50.1692 103.122 53.3064 103.122Z" fill="white"/>
<path d="M426.032 238.14H280.089C277.467 238.14 274.846 235.955 274.846 232.896V181.773C274.846 179.151 277.03 176.529 280.089 176.529H426.032C428.654 176.529 431.275 178.714 431.275 181.773V233.333C430.838 235.955 428.654 238.14 426.032 238.14Z" fill="#E6ECF5"/>
<path d="M430.838 323.784C430.838 326.405 428.654 329.027 425.595 329.027H280.089C277.467 329.027 274.846 326.842 274.846 323.784V272.223C274.846 269.601 277.03 266.979 280.089 266.979H426.032C428.654 266.979 431.275 269.164 431.275 272.223V323.784H430.838Z" fill="#E6ECF5"/>
<g opacity="0.1" filter="url(#filter0_f_1748_11669)">
<path d="M339.511 166.43H144.629C140.696 166.43 137.638 163.371 137.638 159.438V16.9913C137.638 13.0587 140.696 10 144.629 10H339.511C343.443 10 346.502 13.0587 346.502 16.9913V159.875C346.502 163.371 343.443 166.43 339.511 166.43Z" fill="black"/>
</g>
<path d="M339.511 166.43H144.629C140.696 166.43 137.638 163.371 137.638 159.438V16.9913C137.638 13.0587 140.696 10 144.629 10H339.511C343.443 10 346.502 13.0587 346.502 16.9913V159.875C346.502 163.371 343.443 166.43 339.511 166.43Z" fill="white"/>
<path d="M279.215 40.2003H207.118C205.37 40.2003 203.622 38.4524 203.622 36.7046C203.622 34.9568 205.37 33.209 207.118 33.209H279.215C280.963 33.209 282.711 34.9568 282.711 36.7046C282.711 38.4524 280.963 40.2003 279.215 40.2003Z" fill="#F2539D"/>
<path d="M258.241 61.1742H166.917C165.606 61.1742 164.732 60.3003 164.732 58.9895C164.732 57.6786 165.606 56.8047 166.917 56.8047H258.241C259.552 56.8047 260.425 57.6786 260.425 58.9895C260.425 60.3003 259.552 61.1742 258.241 61.1742Z" fill="url(#paint1_linear_1748_11669)"/>
<path d="M318.101 61.1742H272.221C270.91 61.1742 270.036 60.3003 270.036 58.9895C270.036 57.6786 270.91 56.8047 272.221 56.8047H318.101C319.412 56.8047 320.286 57.6786 320.286 58.9895C320.286 60.3003 319.412 61.1742 318.101 61.1742Z" fill="url(#paint2_linear_1748_11669)"/>
<path d="M318.103 77.3408H258.241H254.308H166.917C165.606 77.3408 164.732 78.2147 164.732 79.5255C164.732 80.8363 165.606 81.7102 166.917 81.7102H254.308H258.241H318.103C319.414 81.7102 320.288 80.8363 320.288 79.5255C320.288 78.6516 319.414 77.3408 318.103 77.3408Z" fill="url(#paint3_linear_1748_11669)"/>
<path d="M318.103 98.3145H258.241H254.308H166.917C165.606 98.3145 164.732 99.1883 164.732 100.499C164.732 101.81 165.606 102.684 166.917 102.684H254.308H258.241H318.103C319.414 102.684 320.288 101.81 320.288 100.499C320.288 99.1883 319.414 98.3145 318.103 98.3145Z" fill="url(#paint4_linear_1748_11669)"/>
<path d="M318.103 118.852H258.241H254.308H166.917C165.606 118.852 164.732 119.725 164.732 121.036C164.732 122.347 165.606 123.221 166.917 123.221H254.308H258.241H318.103C319.414 123.221 320.288 122.347 320.288 121.036C320.288 119.725 319.414 118.852 318.103 118.852Z" fill="url(#paint5_linear_1748_11669)"/>
<path d="M488.956 405.494H347.382C343.45 405.494 339.954 402.435 339.954 398.066V350.875C339.954 346.942 343.013 343.446 347.382 343.446H488.956C492.888 343.446 496.384 346.505 496.384 350.875V398.066C495.947 402.435 492.888 405.494 488.956 405.494Z" fill="white"/>
<path d="M469.293 367.915H368.794C367.046 367.915 366.172 366.604 366.172 365.294C366.172 363.546 367.483 362.672 368.794 362.672H468.856C470.604 362.672 471.478 363.983 471.478 365.294C471.915 366.604 470.604 367.915 469.293 367.915Z" fill="url(#paint6_linear_1748_11669)"/>
<path d="M434.337 388.453H368.794C367.046 388.453 366.172 387.142 366.172 385.831C366.172 384.083 367.483 383.209 368.794 383.209H434.337C436.085 383.209 436.958 384.52 436.958 385.831C436.958 387.142 435.648 388.453 434.337 388.453Z" fill="url(#paint7_linear_1748_11669)"/>
<path d="M401.564 199.688H303.686C302.375 199.688 301.064 198.377 301.064 197.066C301.064 195.755 302.375 194.444 303.686 194.444H401.564C402.875 194.444 404.186 195.755 404.186 197.066C404.186 198.377 402.875 199.688 401.564 199.688Z" fill="url(#paint8_linear_1748_11669)"/>
<path d="M367.481 219.788H303.686C302.375 219.788 301.064 218.477 301.064 217.166C301.064 215.855 302.375 214.544 303.686 214.544H367.481C368.792 214.544 370.103 215.855 370.103 217.166C370.103 218.477 368.792 219.788 367.481 219.788Z" fill="url(#paint9_linear_1748_11669)"/>
<path d="M401.564 290.138H303.686C302.375 290.138 301.064 288.827 301.064 287.516C301.064 286.205 302.375 284.895 303.686 284.895H401.564C402.875 284.895 404.186 286.205 404.186 287.516C404.186 289.264 402.875 290.138 401.564 290.138Z" fill="url(#paint10_linear_1748_11669)"/>
<path d="M367.481 310.674H303.686C302.375 310.674 301.064 309.363 301.064 308.052C301.064 306.742 302.375 305.431 303.686 305.431H367.481C368.792 305.431 370.103 306.742 370.103 308.052C370.103 309.363 368.792 310.674 367.481 310.674Z" fill="url(#paint11_linear_1748_11669)"/>
<path d="M234.645 329.9H38.0155C33.209 329.9 29.2764 325.967 29.2764 321.161V185.705C29.2764 180.898 33.209 176.966 38.0155 176.966H234.645C239.451 176.966 243.384 180.898 243.384 185.705V321.161C243.384 325.967 239.451 329.9 234.645 329.9Z" fill="#E6ECF5"/>
<path d="M139.83 297.129H69.043L104.436 256.929L139.83 297.129Z" fill="#CED7E2"/>
<path d="M198.815 297.129H96.5674L147.691 239.014L198.815 297.129Z" fill="white"/>
<path d="M95.6979 242.073C103.179 242.073 109.244 236.008 109.244 228.527C109.244 221.046 103.179 214.981 95.6979 214.981C88.2169 214.981 82.1523 221.046 82.1523 228.527C82.1523 236.008 88.2169 242.073 95.6979 242.073Z" fill="#CED7E2"/>
<path opacity="0.6" d="M243.001 420C280.556 420 311.001 389.779 311.001 352.5C311.001 315.221 280.556 285 243.001 285C205.446 285 175.001 315.221 175.001 352.5C175.001 389.779 205.446 420 243.001 420Z" fill="white"/>
<path fill-rule="evenodd" clip-rule="evenodd" d="M190.766 298.679C161.746 327.746 161.746 374.577 190.766 403.321C217.702 430.001 259.918 432.195 288.791 409.126L299.113 419.49C297.425 421.699 297.659 425.041 299.814 426.936L336.677 463.673C342.116 469.442 351.181 469.442 356.922 463.673C362.361 458.208 362.361 449.1 356.922 443.331L320.059 406.594C317.816 404.623 314.535 404.48 312.383 406.165L301.883 395.71C324.055 366.579 321.839 325.03 295.236 298.679C266.217 269.935 219.463 269.612 190.766 298.679ZM283.306 391.694C261.058 413.979 224.622 413.979 202.374 391.694C180.125 369.409 180.125 332.914 202.374 310.629C224.622 288.344 261.058 288.344 283.306 310.629C305.877 332.914 305.877 369.086 283.306 391.694Z" fill="url(#paint12_linear_1748_11669)"/>
<path d="M244.231 390C241.315 390 239.047 387.756 239.047 384.872C239.047 381.987 241.639 379.423 244.555 379.423C247.471 379.423 250.063 381.667 250.063 384.551C249.739 387.756 247.471 390 244.555 390H244.231Z" fill="#F260A4"/>
<path d="M244.313 373.629C241.397 373.629 239.047 371.429 239.047 368.526V367.885V357.308C239.047 351.859 242.611 347.051 247.795 345.128C252.007 343.846 254.598 339.679 254.275 335.513C253.951 330.705 250.063 326.538 244.879 326.218H244.231C240.019 326.218 236.131 329.103 234.835 333.269C234.187 335.513 231.919 336.795 229.652 336.795C229.004 336.795 228.356 336.795 227.708 336.474C225.116 335.513 223.496 332.949 224.144 330.064C226.736 321.41 234.835 315 244.231 315H245.527C251.035 315.321 256.218 317.564 259.782 321.731C263.346 325.897 265.29 331.026 264.966 336.474C264.642 344.487 258.486 351.859 251.035 354.744C250.387 355.064 249.874 355.658 249.874 356.759V368.526C249.874 371.429 247.279 373.629 244.313 373.629Z" fill="#F260A4"/>
<defs>
<filter id="filter0_f_1748_11669" x="127.638" y="0" width="228.864" height="176.43" filterUnits="userSpaceOnUse" color-interpolation-filters="sRGB">
<feFlood flood-opacity="0" result="BackgroundImageFix"/>
<feBlend mode="normal" in="SourceGraphic" in2="BackgroundImageFix" result="shape"/>
<feGaussianBlur stdDeviation="5" result="effect1_foregroundBlur_1748_11669"/>
</filter>
<linearGradient id="paint0_linear_1748_11669" x1="-0.74894" y1="97.5785" x2="305.03" y2="97.5785" gradientUnits="userSpaceOnUse">
<stop stop-color="#F2539D"/>
<stop offset="1" stop-color="#F2539D"/>
</linearGradient>
<linearGradient id="paint1_linear_1748_11669" x1="164.649" y1="59.0013" x2="260.46" y2="59.0013" gradientUnits="userSpaceOnUse">
<stop stop-color="#CED7E2"/>
<stop offset="1" stop-color="#F0F3F7"/>
</linearGradient>
<linearGradient id="paint2_linear_1748_11669" x1="269.913" y1="59.0013" x2="320.504" y2="59.0013" gradientUnits="userSpaceOnUse">
<stop stop-color="#CED7E2"/>
<stop offset="1" stop-color="#F0F3F7"/>
</linearGradient>
<linearGradient id="paint3_linear_1748_11669" x1="164.649" y1="79.7667" x2="320.507" y2="79.7667" gradientUnits="userSpaceOnUse">
<stop stop-color="#CED7E2"/>
<stop offset="1" stop-color="#F0F3F7"/>
</linearGradient>
<linearGradient id="paint4_linear_1748_11669" x1="164.649" y1="100.533" x2="320.507" y2="100.533" gradientUnits="userSpaceOnUse">
<stop stop-color="#CED7E2"/>
<stop offset="1" stop-color="#F0F3F7"/>
</linearGradient>
<linearGradient id="paint5_linear_1748_11669" x1="164.649" y1="121.299" x2="320.507" y2="121.299" gradientUnits="userSpaceOnUse">
<stop stop-color="#CED7E2"/>
<stop offset="1" stop-color="#F0F3F7"/>
</linearGradient>
<linearGradient id="paint6_linear_1748_11669" x1="366.067" y1="364.996" x2="471.917" y2="364.996" gradientUnits="userSpaceOnUse">
<stop stop-color="#CED7E2"/>
<stop offset="1" stop-color="#E6ECF5"/>
</linearGradient>
<linearGradient id="paint7_linear_1748_11669" x1="366.067" y1="385.813" x2="437.087" y2="385.813" gradientUnits="userSpaceOnUse">
<stop stop-color="#CED7E2"/>
<stop offset="1" stop-color="#E6ECF5"/>
</linearGradient>
<linearGradient id="paint8_linear_1748_11669" x1="300.887" y1="196.849" x2="404.127" y2="196.849" gradientUnits="userSpaceOnUse">
<stop stop-color="#CED7E2"/>
<stop offset="1" stop-color="#E6ECF5"/>
</linearGradient>
<linearGradient id="paint9_linear_1748_11669" x1="300.887" y1="217.152" x2="370.156" y2="217.152" gradientUnits="userSpaceOnUse">
<stop stop-color="#CED7E2"/>
<stop offset="1" stop-color="#E6ECF5"/>
</linearGradient>
<linearGradient id="paint10_linear_1748_11669" x1="300.887" y1="287.609" x2="404.127" y2="287.609" gradientUnits="userSpaceOnUse">
<stop stop-color="#CED7E2"/>
<stop offset="1" stop-color="#E6ECF5"/>
</linearGradient>
<linearGradient id="paint11_linear_1748_11669" x1="300.887" y1="307.911" x2="370.156" y2="307.911" gradientUnits="userSpaceOnUse">
<stop stop-color="#CED7E2"/>
<stop offset="1" stop-color="#E6ECF5"/>
</linearGradient>
<linearGradient id="paint12_linear_1748_11669" x1="197.501" y1="277" x2="448.001" y2="606" gradientUnits="userSpaceOnUse">
<stop stop-color="#F2539D"/>
<stop offset="0.628125" stop-color="#FCD1E5"/>
<stop offset="1" stop-color="white"/>
</linearGradient>
</defs>
</svg>