<svg width="574" height="531" viewBox="0 0 574 531" fill="none" xmlns="http://www.w3.org/2000/svg">
<path d="M240.441 205.848L233.286 186.075C231.635 181.132 226.681 177.836 221.728 177.836H96.237C85.7794 177.836 77.5234 186.075 77.5234 196.51V476.624V430.488H504.082V232.76C504.082 222.325 495.826 214.086 485.368 214.086H252C247.046 214.086 242.092 210.791 240.441 205.848Z" fill="#CED7E2"/>
<path d="M187.054 161.908L272.366 310.204C275.118 315.147 273.467 321.738 268.513 324.484L123.208 405.772C118.255 408.518 111.65 406.871 108.898 401.928L1.57026 209.693C-1.73212 204.749 0.469468 198.159 5.42305 195.412L111.099 136.643L187.054 161.908Z" fill="white"/>
<path d="M109.996 177.837L40.095 216.834C38.4438 217.932 36.2422 217.383 35.6918 215.735C34.591 214.087 35.1414 211.89 36.7926 211.341L106.693 172.345C108.344 171.246 110.546 171.796 111.096 173.443C112.197 175.091 111.647 177.288 109.996 177.837Z" fill="#CED7E2"/>
<path d="M76.42 219.03L49.4505 233.86C47.7993 234.958 45.5977 234.409 45.0473 232.761C43.9465 231.114 44.4969 228.917 46.1481 228.367L72.5672 213.538C74.2184 212.439 76.42 212.989 76.9704 214.636C78.6216 215.735 78.0712 217.932 76.42 219.03Z" fill="#E6EDF5"/>
<path d="M111.094 136.643L134.21 177.837C137.513 183.329 145.218 185.526 150.722 182.23L187.599 161.908" fill="#E6EDF5"/>
<path d="M195.309 252.534C190.906 243.197 184.852 232.761 177.146 225.072C173.293 221.227 167.789 218.481 161.735 218.481C155.681 218.481 150.177 220.678 144.122 223.424C133.665 227.818 123.757 232.761 114.401 238.803C105.594 243.746 95.6871 249.238 89.0824 257.477C80.276 269.011 85.2296 281.094 91.2839 293.178C95.6871 302.515 101.742 312.95 109.447 320.64C115.501 326.682 123.757 328.878 132.013 326.132C142.471 323.386 162.285 312.401 171.642 306.909C179.898 301.966 189.255 297.022 195.309 289.882C206.868 277.799 202.464 265.716 195.309 252.534ZM124.308 265.166C122.657 261.871 123.757 259.674 127.61 260.223C138.068 260.772 148.525 260.772 158.432 261.322C162.285 261.322 163.386 263.519 161.735 266.814C156.781 275.602 151.828 284.39 146.324 293.727C144.122 297.022 141.921 297.022 140.269 294.276C139.719 292.628 125.959 267.913 124.308 265.166Z" fill="#CED7E2"/>
<path d="M573.437 256.378L476.567 381.605C473.265 385.999 467.21 386.549 462.807 383.253L341.719 288.234C337.316 284.939 336.766 278.897 340.068 274.503L466.109 114.673C469.412 110.28 475.466 109.73 479.869 113.026L567.933 182.23L573.437 256.378Z" fill="white"/>
<path d="M412.721 303.613L408.318 300.318C407.217 299.219 407.217 298.121 408.318 297.022C409.419 295.924 410.519 295.924 411.62 296.473L416.023 299.768C417.124 300.318 417.124 301.965 416.574 303.064C415.473 304.162 413.822 304.162 412.721 303.613Z" fill="#E3EAF2"/>
<path d="M400.611 293.726L374.742 273.404C373.641 272.855 373.641 271.207 374.192 270.109C374.742 269.01 376.393 269.011 377.494 269.56L403.363 289.882C404.464 290.431 404.464 292.079 403.913 293.177C403.363 294.276 401.712 294.825 400.611 293.726Z" fill="#E3EAF2"/>
<path d="M532.155 195.962L473.813 150.375C472.712 149.276 472.161 147.629 473.262 145.981C474.363 144.883 476.014 144.333 477.665 145.432L536.008 191.019C537.108 192.117 537.659 193.765 536.558 195.413C535.457 197.061 533.806 197.061 532.155 195.962Z" fill="#CED7E2"/>
<path d="M485.371 181.682L463.355 164.106C462.255 163.007 461.704 161.36 462.805 159.712C463.906 158.064 465.557 158.064 467.208 159.163L489.224 176.739C490.325 177.837 490.875 179.485 489.775 181.133C488.674 182.78 486.472 182.78 485.371 181.682Z" fill="#CED7E2"/>
<path d="M567.931 182.23L540.961 216.283C537.109 221.226 538.209 228.366 543.163 232.211L573.985 256.378" fill="#E6EDF5"/>
<path d="M536.008 264.067L505.736 240.45L474.364 215.734L445.192 192.666C441.89 189.919 436.936 190.469 434.735 194.313L392.905 247.041C390.153 250.336 390.703 255.279 394.005 257.476L485.371 329.427C488.674 332.173 493.627 331.624 495.829 327.779L537.659 275.052C539.861 271.207 539.311 266.813 536.008 264.067ZM439.138 263.518L448.495 251.435L476.565 273.404L467.208 285.488L439.138 263.518ZM464.456 288.783L455.65 299.768L427.58 277.798L436.386 266.813L464.456 288.783ZM488.674 258.025L479.317 270.109L451.247 248.139L460.604 236.056L488.674 258.025ZM463.356 232.211L473.263 220.128L501.333 242.097L491.976 254.181L463.356 232.211ZM513.992 297.022L483.17 272.855L492.527 260.772L523.349 284.938L513.992 297.022ZM447.944 244.844L418.223 221.226L427.58 209.143L457.301 232.76L447.944 244.844ZM414.921 225.071L444.642 248.688L435.285 260.772L405.564 237.154L414.921 225.071ZM480.418 276.151L511.24 300.317L501.883 312.401L471.061 288.234L480.418 276.151ZM533.807 271.757L526.101 281.643L495.279 257.476L504.635 245.393L533.256 267.912C534.907 268.461 534.907 270.658 533.807 271.757ZM441.89 195.412L469.41 217.382L460.053 229.465L430.332 205.847L438.037 195.961C438.588 194.863 440.789 194.863 441.89 195.412ZM396.207 249.238L402.812 240.999L432.533 264.616L423.727 275.601L396.207 253.632C395.106 252.533 395.106 250.336 396.207 249.238ZM488.123 325.033L459.503 302.514L468.309 291.529L499.131 315.696L491.976 324.484C490.875 326.132 489.224 326.132 488.123 325.033Z" fill="#E3EAF2"/>
<path d="M414.367 133.347L398.406 309.654C397.855 315.696 392.351 320.09 386.297 319.541L214.573 301.965C208.518 301.416 204.115 295.923 204.666 289.882L227.782 63.5936C228.333 57.5519 233.837 53.158 239.891 53.7072L364.281 66.3398L414.367 133.347Z" fill="white"/>
<path d="M364.827 66.8892L359.874 115.223C359.323 121.813 364.277 128.404 371.432 128.954L414.914 133.348" fill="#E6EDF5"/>
<path d="M375.293 262.42L234.391 246.492C231.088 245.943 228.336 243.197 228.887 239.901L239.344 149.825C239.895 146.53 242.647 143.784 245.949 144.333L386.851 159.712C390.154 160.261 392.906 163.007 392.355 166.303L381.898 256.379C381.347 260.223 378.595 262.42 375.293 262.42Z" fill="#E6EDF5"/>
<path d="M311.998 240.999L247.051 233.31L283.377 200.355L311.998 240.999Z" fill="#CED7E2"/>
<path d="M365.931 247.041L271.812 236.056L325.201 188.821L365.931 247.041Z" fill="white"/>
<path d="M278.419 186.076C285.41 186.076 291.078 180.42 291.078 173.443C291.078 166.466 285.41 160.811 278.419 160.811C271.427 160.811 265.76 166.466 265.76 173.443C265.76 180.42 271.427 186.076 278.419 186.076Z" fill="url(#paint0_linear_1573_5889)"/>
<path d="M332.91 97.0975L247.598 87.2111C246.498 87.2111 245.397 86.1126 245.947 85.0141V83.9156C245.947 82.8172 247.048 81.7187 248.149 82.2679L333.46 92.1543C334.561 92.1543 335.662 93.2528 335.112 94.3513V95.4497C335.112 96.5482 334.011 97.6467 332.91 97.0975Z" fill="#CED7E2"/>
<path d="M332.364 113.025L245.952 103.139C244.851 103.139 243.75 102.041 244.301 100.942V99.8436C244.301 98.7451 245.401 97.6467 246.502 98.1959L332.915 108.082C334.016 108.082 335.116 109.181 334.566 110.279V111.378C334.566 112.476 333.465 113.025 332.364 113.025Z" fill="#E6EDF5"/>
<path d="M335.106 279.446L227.778 267.363C226.127 267.363 225.026 265.715 225.577 264.067C225.577 262.42 227.228 261.321 228.879 261.87L335.656 273.954C337.308 273.954 338.408 275.601 337.858 277.249C337.858 278.897 336.757 279.995 335.106 279.446Z" fill="#E6EDF5"/>
<path d="M319.7 128.405L244.296 119.617C242.645 119.617 241.544 117.969 242.094 116.322C242.094 114.674 243.746 113.575 245.397 114.125L320.801 122.912C322.452 122.912 323.553 124.56 323.003 126.208C322.452 127.306 321.352 128.405 319.7 128.405Z" fill="#E6EDF5"/>
<path d="M374.743 300.317L225.585 282.742C223.934 282.742 222.833 281.094 223.383 279.446C223.383 277.798 225.035 276.7 226.686 277.249L375.844 294.276C377.495 294.276 378.596 295.923 378.045 297.571C378.045 299.219 376.394 300.317 374.743 300.317Z" fill="#E6EDF5"/>
<path d="M376.944 284.389L347.773 281.093C346.121 281.093 345.021 279.446 345.571 277.798C345.571 276.15 347.222 275.052 348.873 275.601L378.044 278.896C379.696 278.896 380.796 280.544 380.246 282.192C379.696 283.84 378.595 284.938 376.944 284.389Z" fill="url(#paint1_linear_1573_5889)"/>
<path d="M512.766 311.81L481.158 452.624C479.182 460.865 469.305 467.315 457.451 467.315H115.685C103.832 467.315 93.9541 461.224 91.9786 452.624L66.2967 337.25C64.3212 328.651 73.7049 320.41 86.052 320.41H278.666C284.593 320.41 289.531 317.543 291.507 313.602L296.94 301.419C298.915 297.478 303.854 294.612 309.781 294.612H493.505C505.358 294.97 514.742 302.853 512.766 311.81Z" fill="white"/>
<path d="M537.656 292.629L502.431 508.481C500.229 521.114 489.221 531 476.012 531H95.1362C81.9266 531 70.9187 521.663 68.7171 508.481L40.0964 331.625C37.8948 318.443 48.3523 305.811 62.1123 305.811H276.768C283.372 305.811 288.876 301.417 291.078 295.375L297.132 276.701C299.334 270.659 304.838 266.265 311.443 266.265H516.191C529.4 266.814 539.858 278.898 537.656 292.629Z" fill="white"/>
<path d="M220.08 31.1885C217.878 32.287 215.677 31.1885 214.576 28.9916L205.219 5.92337C204.118 3.7264 205.219 1.52943 207.421 0.430941C209.622 -0.667544 211.824 0.430941 212.925 2.62791L222.281 25.6961C223.382 28.4423 222.281 30.6393 220.08 31.1885Z" fill="url(#paint2_linear_1573_5889)"/>
<path d="M203.017 53.1584C201.916 54.2569 200.815 54.8061 199.164 54.2569L175.497 49.8629C173.295 49.3137 171.644 47.1167 172.195 44.9197C172.745 42.7228 174.947 41.075 177.148 41.6243L200.815 46.0182C203.017 46.5675 204.668 48.7644 204.118 50.9614C203.567 52.0599 203.567 52.6091 203.017 53.1584Z" fill="url(#paint3_linear_1573_5889)"/>
<path d="M251.456 28.4425C250.906 28.4425 250.355 27.8933 249.254 27.8933C247.603 26.2456 247.053 24.0486 248.704 21.8516L263.565 2.62812C265.216 0.980391 267.418 0.431148 269.619 2.07888C271.27 3.7266 271.821 5.92357 270.17 8.12055L255.309 27.344C254.208 27.8933 252.557 28.4425 251.456 28.4425Z" fill="url(#paint4_linear_1573_5889)"/>
<path d="M209.621 389.295H90.7352C88.5336 389.295 86.332 387.647 86.332 384.901C86.332 382.155 87.9832 380.507 90.7352 380.507H210.172C212.373 380.507 214.575 382.155 214.575 384.901C214.575 387.647 212.373 389.295 209.621 389.295Z" fill="#E6EDF5"/>
<path d="M169.994 415.109H98.4422C96.2407 415.109 94.0391 413.461 94.0391 410.715C94.0391 407.969 95.6903 406.321 98.4422 406.321H169.994C172.196 406.321 174.397 407.969 174.397 410.715C174.397 413.461 172.196 415.109 169.994 415.109Z" fill="#E6EDF5"/>
<defs>
<linearGradient id="paint0_linear_1573_5889" x1="266.322" y1="172.291" x2="290.953" y2="175.131" gradientUnits="userSpaceOnUse">
<stop stop-color="#FF66A9"/>
<stop offset="1" stop-color="#F53689"/>
</linearGradient>
<linearGradient id="paint1_linear_1573_5889" x1="345.202" y1="278.18" x2="379.87" y2="282.177" gradientUnits="userSpaceOnUse">
<stop stop-color="#83A6FF"/>
<stop offset="1" stop-color="#5A78FF"/>
</linearGradient>
<linearGradient id="paint2_linear_1573_5889" x1="209.95" y1="17.6747" x2="217.573" y2="14.5113" gradientUnits="userSpaceOnUse">
<stop stop-color="#FF66A9"/>
<stop offset="1" stop-color="#F53689"/>
</linearGradient>
<linearGradient id="paint3_linear_1573_5889" x1="187.18" y1="52.3726" x2="188.72" y2="44.2754" gradientUnits="userSpaceOnUse">
<stop stop-color="#FF66A9"/>
<stop offset="1" stop-color="#F53689"/>
</linearGradient>
<linearGradient id="paint4_linear_1573_5889" x1="262.466" y1="17.2326" x2="255.946" y2="12.1728" gradientUnits="userSpaceOnUse">
<stop stop-color="#FF66A9"/>
<stop offset="1" stop-color="#F53689"/>
</linearGradient>
</defs>
</svg>