<svg width="21" height="22" viewBox="0 0 21 22" fill="none" xmlns="http://www.w3.org/2000/svg">
<g clip-path="url(#clip0_1757_8393)">
<path d="M21.0003 11.2412C21.0003 10.5275 20.9413 9.80985 20.8153 9.10767H10.7109V13.151H16.4973C16.2571 14.4551 15.4856 15.6087 14.3559 16.3417V18.9653H17.808C19.8352 17.1365 21.0003 14.4358 21.0003 11.2412Z" fill="#4285F4"/>
<path d="M10.7107 21.4999C13.5999 21.4999 16.0365 20.5701 17.8117 18.9651L14.3596 16.3416C13.3992 16.982 12.1593 17.3447 10.7146 17.3447C7.91989 17.3447 5.55025 15.4966 4.70002 13.012H1.1377V15.7165C2.95625 19.2622 6.66028 21.4999 10.7107 21.4999V21.4999Z" fill="#34A853"/>
<path d="M4.69599 13.0121C4.24725 11.7081 4.24725 10.296 4.69599 8.99193V6.28735H1.1376C-0.381803 9.25428 -0.381803 12.7498 1.1376 15.7167L4.69599 13.0121V13.0121Z" fill="#FBBC04"/>
<path d="M10.7107 4.65522C12.238 4.63207 13.7141 5.19536 14.8202 6.22935L17.8787 3.23156C15.942 1.44908 13.3716 0.46911 10.7107 0.499975C6.66028 0.499975 2.95625 2.73771 1.1377 6.28723L4.69608 8.9918C5.54238 6.50328 7.91595 4.65522 10.7107 4.65522V4.65522Z" fill="#EA4335"/>
</g>
<defs>
<clipPath id="clip0_1757_8393">
<rect width="21" height="21" fill="white" transform="translate(0 0.5)"/>
</clipPath>
</defs>
</svg>