<svg width="167" height="57" viewBox="0 0 167 57" fill="none" xmlns="http://www.w3.org/2000/svg">
<g clip-path="url(#clip0_1284_1855)">
<path fill-rule="evenodd" clip-rule="evenodd" d="M160.813 56.3625H6.18746C2.77729 56.3625 0 53.186 0 49.3172V7.04531C0 3.16248 2.77729 0 6.18746 0H160.813C164.22 0 167 3.16248 167 7.04531V49.3172C167 53.186 164.22 56.3625 160.813 56.3625Z" fill="black"/>
<path fill-rule="evenodd" clip-rule="evenodd" d="M160.813 1.12795C163.673 1.12795 166.014 3.78795 166.014 7.04531V49.3172C166.014 52.5746 163.688 55.2346 160.813 55.2346H6.18746C3.32722 55.2346 0.986184 52.5746 0.986184 49.3172V7.04531C0.986184 3.78795 3.31186 1.12795 6.18746 1.12795H160.813ZM160.813 0H6.18746C2.77729 0 0 3.17654 0 7.04531V49.3172C0 53.2 2.77729 56.3625 6.18746 56.3625H160.813C164.22 56.3625 167 53.2 167 49.3172V7.04531C167 3.17654 164.22 0 160.813 0Z" fill="#A6A6A6"/>
<path d="M87.9733 19.4472C86.8581 19.4472 85.9181 19.0571 85.1746 18.2891C84.4373 17.5425 84.0256 16.5134 84.0441 15.4627C84.0441 14.3414 84.425 13.3921 85.1746 12.6394C85.915 11.8714 86.8551 11.4813 87.9702 11.4813C89.0731 11.4813 90.0132 11.8714 90.7689 12.6394C91.5185 13.4167 91.8995 14.366 91.8995 15.4627C91.8872 16.5871 91.5062 17.5364 90.7689 18.286C90.0286 19.0602 89.0885 19.4472 87.9733 19.4472ZM54.7914 19.4472C53.7008 19.4472 52.7546 19.0632 51.9805 18.3044C51.2124 17.5487 50.8223 16.5933 50.8223 15.4658C50.8223 14.3383 51.2124 13.3829 51.9805 12.6272C52.7393 11.8683 53.6855 11.4843 54.7914 11.4843C55.3321 11.4843 55.8575 11.5919 56.3613 11.81C56.8559 12.022 57.2583 12.3107 57.5563 12.664L57.6301 12.7531L56.7975 13.5703L56.7115 13.4689C56.2415 12.9098 55.6117 12.6364 54.7791 12.6364C54.0357 12.6364 53.3875 12.9006 52.8529 13.4228C52.3153 13.9482 52.0419 14.6363 52.0419 15.4689C52.0419 16.3014 52.3153 16.9896 52.8529 17.5149C53.3875 18.0371 54.0357 18.3014 54.7791 18.3014C55.5717 18.3014 56.2384 18.0371 56.7576 17.5149C57.0648 17.2077 57.2553 16.7776 57.3229 16.2338H54.6532V15.0849H58.4687L58.4841 15.1893C58.5118 15.3828 58.5394 15.5825 58.5394 15.7669C58.5394 16.8267 58.2199 17.6839 57.5871 18.3167C56.8682 19.0663 55.9281 19.4472 54.7914 19.4472ZM98.91 19.2844H97.7334L94.1298 13.5181L94.1605 14.5564V19.2814H92.9839V11.6472H94.3264L94.3633 11.7055L97.7518 17.137L97.7211 16.1017V11.6472H98.91V19.2844ZM79.1318 19.2844H77.9398V12.7961H75.8723V11.6472H81.1962V12.7961H79.1287V19.2844H79.1318ZM74.9015 19.2844H73.7126V11.6472H74.9015V19.2844ZM68.2196 19.2844H67.0307V12.7961H64.9632V11.6472H70.2872V12.7961H68.2196V19.2844ZM64.2105 19.2721H59.6515V11.6472H64.2105V12.7961H60.8435V14.8913H63.8818V16.028H60.8435V18.1232H64.2105V19.2721ZM86.0471 17.4995C86.5786 18.031 87.2237 18.2983 87.9733 18.2983C88.7444 18.2983 89.3742 18.0371 89.8995 17.4995C90.4218 16.9773 90.686 16.2922 90.686 15.4658C90.686 14.6394 90.4218 13.9512 89.9026 13.4321C89.3711 12.9006 88.7229 12.6333 87.9764 12.6333C87.2053 12.6333 86.5755 12.8944 86.0532 13.4321C85.531 13.9543 85.2668 14.6394 85.2668 15.4658C85.2668 16.2922 85.5279 16.9803 86.0471 17.4995Z" fill="white"/>
<path fill-rule="evenodd" clip-rule="evenodd" d="M83.9326 29.9475C81.0295 29.9475 78.6762 32.1503 78.6762 35.1886C78.6762 38.1992 81.0448 40.4296 83.9326 40.4296C86.8357 40.4296 89.189 38.2115 89.189 35.1886C89.189 32.1503 86.8357 29.9475 83.9326 29.9475ZM83.9326 38.3528C82.3443 38.3528 80.9772 37.038 80.9772 35.1763C80.9772 33.2869 82.3474 31.9997 83.9326 31.9997C85.5209 31.9997 86.888 33.2869 86.888 35.1763C86.891 37.0503 85.5209 38.3528 83.9326 38.3528ZM72.4644 29.9475C69.5613 29.9475 67.208 32.1503 67.208 35.1886C67.208 38.1992 69.5766 40.4296 72.4644 40.4296C75.3675 40.4296 77.7208 38.2115 77.7208 35.1886C77.7208 32.1503 75.3645 29.9475 72.4644 29.9475ZM72.4644 38.3528C70.8761 38.3528 69.509 37.038 69.509 35.1763C69.509 33.2869 70.8792 31.9997 72.4644 31.9997C74.0527 31.9997 75.4198 33.2869 75.4198 35.1763C75.4198 37.0503 74.0527 38.3528 72.4644 38.3528ZM58.8181 31.5481V33.7662H64.142C63.9792 35.0104 63.5676 35.9289 62.9378 36.5587C62.1575 37.339 60.9532 38.187 58.8304 38.187C55.5586 38.187 52.9995 35.5449 52.9995 32.2731C52.9995 29.0013 55.5586 26.3593 58.8304 26.3593C60.5968 26.3593 61.884 27.0567 62.8395 27.9476L64.4124 26.3747C63.0852 25.1028 61.3188 24.129 58.8427 24.129C54.3543 24.129 50.5879 27.7848 50.5879 32.2608C50.5879 36.7492 54.3512 40.3927 58.8427 40.3927C61.2666 40.3927 63.0852 39.6001 64.523 38.1071C65.9884 36.6417 66.4523 34.5741 66.4523 32.906C66.4523 32.3868 66.4123 31.9198 66.3294 31.5235H58.815C58.8181 31.5205 58.8181 31.5481 58.8181 31.5481ZM114.635 33.2746C114.196 32.098 112.869 29.9353 110.147 29.9353C107.45 29.9353 105.207 32.0581 105.207 35.1763C105.207 38.1194 107.425 40.4173 110.408 40.4173C112.804 40.4173 114.199 38.9519 114.774 38.0917L112.995 36.8997C112.405 37.7753 111.585 38.3498 110.42 38.3498C109.244 38.3498 108.42 37.8152 107.874 36.7615L114.881 33.8583C114.881 33.8614 114.635 33.2746 114.635 33.2746ZM107.49 35.0257C107.434 33.0012 109.062 31.9721 110.227 31.9721C111.145 31.9721 111.91 32.4237 112.171 33.0811L107.49 35.0257ZM101.797 40.1039H104.098V24.7065H101.797V40.1039ZM98.0182 31.1119H97.9353C97.4161 30.4944 96.4299 29.9353 95.1704 29.9353C92.556 29.9353 90.1475 32.2363 90.1475 35.1916C90.1475 38.1347 92.5437 40.4081 95.1704 40.4081C96.4146 40.4081 97.4161 39.8459 97.9353 39.2161H98.0182V39.9688C98.0182 41.9687 96.9491 43.047 95.2257 43.047C93.8156 43.047 92.94 42.0332 92.5837 41.1853L90.5837 42.0209C91.1582 43.4034 92.6912 45.1146 95.2226 45.1146C97.9199 45.1146 100.206 43.5263 100.206 39.6524V30.2486H98.0305V31.1119H98.0182ZM95.3762 38.3528C93.7879 38.3528 92.4608 37.0257 92.4608 35.1916C92.4608 33.3422 93.7879 32.0028 95.3762 32.0028C96.9491 32.0028 98.1688 33.3576 98.1688 35.1916C98.1841 37.0257 96.9522 38.3528 95.3762 38.3528ZM125.409 24.7065H119.907V40.1039H122.208V34.2731H125.412C127.959 34.2731 130.463 32.4267 130.463 29.4959C130.463 26.5652 127.968 24.7065 125.409 24.7065ZM125.477 32.1226H122.205V26.8386H125.477C127.2 26.8386 128.174 28.261 128.174 29.4806C128.174 30.6879 127.188 32.1226 125.477 32.1226ZM139.685 29.9199C138.014 29.9199 136.291 30.6603 135.578 32.2731L137.618 33.121C138.057 32.2731 138.862 31.9844 139.713 31.9844C140.905 31.9844 142.109 32.6971 142.137 33.9689V34.1318C141.725 33.8983 140.822 33.5419 139.741 33.5419C137.538 33.5419 135.304 34.7462 135.304 37.0042C135.304 39.0717 137.111 40.3989 139.123 40.3989C140.668 40.3989 141.519 39.7015 142.051 38.8935H142.134V40.0855H144.352V34.1871C144.352 31.4406 142.312 29.9199 139.685 29.9199ZM139.396 38.3528C138.644 38.3528 137.59 37.9842 137.59 37.038C137.59 35.846 138.905 35.3944 140.026 35.3944C141.04 35.3944 141.519 35.6125 142.121 35.9136C141.956 37.296 140.788 38.3406 139.396 38.3528ZM152.444 30.2486L149.802 36.9274H149.719L146.982 30.2486H144.505L148.613 39.5848L146.272 44.7736H148.668L154.987 30.2486H152.444ZM131.732 40.1039H134.033V24.7065H131.732V40.1039Z" fill="white"/>
<path fill-rule="evenodd" clip-rule="evenodd" d="M12.8532 12.4274C12.4968 12.8114 12.291 13.3982 12.291 14.1662V41.4067C12.291 42.1747 12.4968 42.7615 12.8655 43.1301L12.9607 43.2131L28.223 27.9508V27.6098L12.9484 12.3445L12.8532 12.4274Z" fill="url(#paint0_linear_1284_1855)"/>
<path fill-rule="evenodd" clip-rule="evenodd" d="M33.3014 33.0533L28.2109 27.9628V27.6064L33.3014 22.5159L33.412 22.5835L39.4334 26.0058C41.1568 26.9766 41.1568 28.5803 39.4334 29.5634L33.412 32.9857L33.3014 33.0533Z" fill="url(#paint1_linear_1284_1855)"/>
<path fill-rule="evenodd" clip-rule="evenodd" d="M33.4121 32.9858L28.211 27.7848L12.8535 43.1422C13.4157 43.7444 14.3589 43.812 15.4126 43.2252L33.4121 32.9858Z" fill="url(#paint2_linear_1284_1855)"/>
<path fill-rule="evenodd" clip-rule="evenodd" d="M33.4121 22.5839L15.4126 12.3599C14.3589 11.7577 13.4126 11.8407 12.8535 12.4428L28.211 27.7849L33.4121 22.5839Z" fill="url(#paint3_linear_1284_1855)"/>
<path opacity="0.2" fill-rule="evenodd" clip-rule="evenodd" d="M33.3009 32.8753L15.4243 43.0317C14.4259 43.6062 13.535 43.5663 12.9605 43.044L12.8652 43.1393L12.9605 43.2222C13.535 43.7414 14.4259 43.7844 15.4243 43.2099L33.4238 32.9859L33.3009 32.8753Z" fill="black"/>
<path opacity="0.12" fill-rule="evenodd" clip-rule="evenodd" d="M39.4325 29.3853L33.2852 32.8752L33.3958 32.9858L39.4171 29.5635C40.2804 29.072 40.7043 28.4268 40.7043 27.7848C40.6521 28.3746 40.2128 28.9337 39.4325 29.3853Z" fill="black"/>
<path opacity="0.25" fill-rule="evenodd" clip-rule="evenodd" d="M15.4123 12.5378L39.4331 26.1841C40.2134 26.6234 40.6528 27.1979 40.7203 27.7847C40.7203 27.1426 40.2964 26.4975 39.4331 26.0059L15.4123 12.3596C13.6888 11.3735 12.291 12.1968 12.291 14.166V14.3442C12.291 12.3719 13.6888 11.5639 15.4123 12.5378Z" fill="white"/>
</g>
<defs>
<linearGradient id="paint0_linear_1284_1855" x1="26.8541" y1="13.8726" x2="2.40634" y2="20.3867" gradientUnits="userSpaceOnUse">
<stop stop-color="#00A0FF"/>
<stop offset="0.007" stop-color="#00A1FF"/>
<stop offset="0.26" stop-color="#00BEFF"/>
<stop offset="0.512" stop-color="#00D2FF"/>
<stop offset="0.76" stop-color="#00DFFF"/>
<stop offset="1" stop-color="#00E3FF"/>
</linearGradient>
<linearGradient id="paint1_linear_1284_1855" x1="41.6808" y1="27.7846" x2="11.8723" y2="27.7846" gradientUnits="userSpaceOnUse">
<stop stop-color="#FFE000"/>
<stop offset="0.409" stop-color="#FFBD00"/>
<stop offset="0.775" stop-color="#FFA500"/>
<stop offset="1" stop-color="#FF9C00"/>
</linearGradient>
<linearGradient id="paint2_linear_1284_1855" x1="30.5837" y1="30.6151" x2="10.9575" y2="63.6474" gradientUnits="userSpaceOnUse">
<stop stop-color="#FF3A44"/>
<stop offset="1" stop-color="#C31162"/>
</linearGradient>
<linearGradient id="paint3_linear_1284_1855" x1="8.98646" y1="3.36671" x2="17.7424" y2="18.1198" gradientUnits="userSpaceOnUse">
<stop stop-color="#32A071"/>
<stop offset="0.069" stop-color="#2DA771"/>
<stop offset="0.476" stop-color="#15CF74"/>
<stop offset="0.801" stop-color="#06E775"/>
<stop offset="1" stop-color="#00F076"/>
</linearGradient>
<clipPath id="clip0_1284_1855">
<rect width="167" height="56.3625" fill="white"/>
</clipPath>
</defs>
</svg>