<svg width="103" height="42" viewBox="0 0 103 42" fill="none" xmlns="http://www.w3.org/2000/svg">
<path d="M10.88 12.7833H1.08808C1.08808 11.2232 2.31981 9.95951 3.84055 9.95951H10.88C11.2791 9.95951 11.6025 9.62772 11.6025 9.21827V3.27984C11.6025 1.7197 12.8342 0.456055 14.355 0.456055V9.21827C14.355 11.1865 12.7985 12.7833 10.88 12.7833Z" fill="#E8125C"/>
<path d="M1 9.55995L10.9749 0.461702L3.17445 0.456055C2.02254 0.456055 1.08808 1.41473 1.08808 2.59649L1 9.55995Z" fill="#E8125C"/>
<path d="M26.2677 17.7447H22.139V5.44428C22.139 5.032 21.7784 4.69739 21.3352 4.69739H16.2101V0.461702H21.3352C24.0547 0.461702 26.2677 2.69673 26.2677 5.44428V17.7447Z" fill="#E8125C"/>
<path d="M25.1887 41.4561H5.94343C3.21711 41.4561 1 39.1815 1 36.3859V14.7953H5.1287V36.3859C5.1287 36.8462 5.4934 37.2218 5.94343 37.2218H25.1901C25.5658 37.2218 25.8727 36.9083 25.8727 36.5215V20.8551C25.8727 19.6282 24.8997 18.63 23.7037 18.63H13.0173V14.3943H23.7024C27.1746 14.3943 30 17.2929 30 20.8551V36.5215C30 39.2422 27.8421 41.4561 25.1887 41.4561Z" fill="#E8125C"/>
<path d="M36.515 28.2477C36.364 28.2477 36.2403 28.1991 36.1442 28.1019C36.0481 28.0047 36 27.8797 36 27.7269V14.1852C36 14.0324 36.0481 13.9074 36.1442 13.8102C36.2403 13.713 36.364 13.6644 36.515 13.6644H42.7983C43.9794 13.6644 44.9477 13.8311 45.703 14.1644C46.4584 14.4977 47.0146 14.9769 47.3717 15.6019C47.7425 16.213 47.928 16.9422 47.928 17.7894C47.928 18.2894 47.8318 18.7338 47.6395 19.1227C47.461 19.4977 47.2344 19.8102 46.9597 20.0602C46.6988 20.3102 46.4515 20.4908 46.2181 20.6019C46.74 20.8519 47.2001 21.2616 47.5983 21.8311C48.0104 22.4005 48.2164 23.0672 48.2164 23.8311C48.2164 24.7477 48.0104 25.5394 47.5983 26.2061C47.2001 26.8588 46.6095 27.3658 45.8267 27.7269C45.0576 28.0741 44.1099 28.2477 42.9837 28.2477H36.515ZM39.6876 25.5394H42.5717C43.1623 25.5394 43.6086 25.3658 43.9108 25.0186C44.2129 24.6713 44.364 24.2755 44.364 23.8311C44.364 23.3449 44.206 22.9352 43.8902 22.6019C43.588 22.2686 43.1485 22.1019 42.5717 22.1019H39.6876V25.5394ZM39.6876 19.4561H42.3863C42.9494 19.4561 43.3683 19.3102 43.643 19.0186C43.9314 18.7269 44.0756 18.3519 44.0756 17.8936C44.0756 17.4491 43.9314 17.088 43.643 16.8102C43.3683 16.5186 42.9494 16.3727 42.3863 16.3727H39.6876V19.4561Z" fill="#E8125C"/>
<path d="M52.0502 28.2477C51.8992 28.2477 51.7756 28.1991 51.6794 28.1019C51.5833 28.0047 51.5352 27.8797 51.5352 27.7269V14.1852C51.5352 14.0324 51.5833 13.9074 51.6794 13.8102C51.7756 13.713 51.8992 13.6644 52.0502 13.6644H57.6537C59.4254 13.6644 60.8194 14.0811 61.8357 14.9144C62.8657 15.7338 63.3808 16.9005 63.3808 18.4144C63.3808 19.4005 63.1404 20.2338 62.6597 20.9144C62.1928 21.5949 61.5747 22.1088 60.8056 22.4561L63.6486 27.5811C63.6898 27.6644 63.7104 27.7408 63.7104 27.8102C63.7104 27.9213 63.6623 28.0255 63.5662 28.1227C63.4838 28.2061 63.3808 28.2477 63.2572 28.2477H60.5378C60.2769 28.2477 60.0846 28.1852 59.961 28.0602C59.8374 27.9213 59.7481 27.7963 59.6932 27.6852L57.3447 23.1019H55.2228V27.7269C55.2228 27.8797 55.1747 28.0047 55.0786 28.1019C54.9824 28.1991 54.8588 28.2477 54.7078 28.2477H52.0502ZM55.2228 20.1644H57.6125C58.258 20.1644 58.7387 20.0047 59.0546 19.6852C59.3842 19.3658 59.549 18.9283 59.549 18.3727C59.549 17.8311 59.391 17.3936 59.0752 17.0602C58.773 16.7269 58.2855 16.5602 57.6125 16.5602H55.2228V20.1644Z" fill="#E8125C"/>
<path d="M67.3239 28.2477C67.1728 28.2477 67.0492 28.1991 66.9531 28.1019C66.857 28.0047 66.8089 27.8797 66.8089 27.7269V14.1852C66.8089 14.0324 66.857 13.9074 66.9531 13.8102C67.0492 13.713 67.1728 13.6644 67.3239 13.6644H70.0844C70.2355 13.6644 70.3591 13.713 70.4553 13.8102C70.5514 13.9074 70.5995 14.0324 70.5995 14.1852V27.7269C70.5995 27.8797 70.5514 28.0047 70.4553 28.1019C70.3591 28.1991 70.2355 28.2477 70.0844 28.2477H67.3239Z" fill="#E8125C"/>
<path d="M80.4306 28.4561C79.1259 28.4561 78.0066 28.2408 77.0727 27.8102C76.1525 27.3797 75.4315 26.7477 74.9096 25.9144C74.4014 25.0811 74.1199 24.0463 74.0649 22.8102C74.0512 22.2408 74.0443 21.6297 74.0443 20.9769C74.0443 20.3241 74.0512 19.6991 74.0649 19.1019C74.1199 17.8936 74.4083 16.8727 74.9302 16.0394C75.4521 15.1922 76.18 14.5533 77.1139 14.1227C78.0478 13.6783 79.1534 13.4561 80.4306 13.4561C81.3371 13.4561 82.1748 13.5741 82.9439 13.8102C83.713 14.0324 84.386 14.3658 84.9628 14.8102C85.5396 15.2408 85.986 15.7686 86.3019 16.3936C86.6315 17.0047 86.8032 17.6991 86.8169 18.4769C86.8306 18.6019 86.7894 18.7061 86.6933 18.7894C86.6109 18.8727 86.5079 18.9144 86.3843 18.9144H83.6032C83.4246 18.9144 83.2873 18.8797 83.1911 18.8102C83.095 18.7269 83.0126 18.5811 82.9439 18.3727C82.7517 17.6366 82.4358 17.1366 81.9963 16.8727C81.5705 16.5949 81.0418 16.4561 80.41 16.4561C79.6546 16.4561 79.0572 16.6713 78.6177 17.1019C78.1782 17.5186 77.9379 18.2199 77.8967 19.2061C77.8555 20.3449 77.8555 21.5116 77.8967 22.7061C77.9379 23.6922 78.1782 24.4005 78.6177 24.8311C79.0572 25.2477 79.6546 25.4561 80.41 25.4561C81.0418 25.4561 81.5774 25.3172 82.0169 25.0394C82.4564 24.7616 82.7654 24.2616 82.9439 23.5394C82.9989 23.3311 83.0744 23.1922 83.1705 23.1227C83.2804 23.0394 83.4246 22.9977 83.6032 22.9977H86.3843C86.5079 22.9977 86.6109 23.0394 86.6933 23.1227C86.7894 23.2061 86.8306 23.3102 86.8169 23.4352C86.8032 24.213 86.6315 24.9144 86.3019 25.5394C85.986 26.1505 85.5396 26.6783 84.9628 27.1227C84.386 27.5533 83.713 27.8866 82.9439 28.1227C82.1748 28.3449 81.3371 28.4561 80.4306 28.4561Z" fill="#E8125C"/>
<path d="M90.5281 28.2477C90.3771 28.2477 90.2535 28.1991 90.1573 28.1019C90.0612 28.0047 90.0131 27.8797 90.0131 27.7269V14.1852C90.0131 14.0324 90.0612 13.9074 90.1573 13.8102C90.2535 13.713 90.3771 13.6644 90.5281 13.6644H93.1239C93.2749 13.6644 93.3985 13.713 93.4947 13.8102C93.5908 13.9074 93.6389 14.0324 93.6389 14.1852V18.8102L97.4501 14.0602C97.505 13.9769 97.5943 13.8936 97.7179 13.8102C97.8552 13.713 98.0338 13.6644 98.2535 13.6644H101.22C101.344 13.6644 101.447 13.713 101.529 13.8102C101.611 13.8936 101.653 13.9908 101.653 14.1019C101.653 14.1991 101.625 14.2824 101.57 14.3519L96.6466 20.6436L101.962 27.5602C102.017 27.6158 102.044 27.6991 102.044 27.8102C102.044 27.9213 101.996 28.0255 101.9 28.1227C101.817 28.2061 101.721 28.2477 101.611 28.2477H98.5419C98.2947 28.2477 98.1024 28.1922 97.9651 28.0811C97.8415 27.9699 97.7591 27.8866 97.7179 27.8311L93.6389 22.6852V27.7269C93.6389 27.8797 93.5908 28.0047 93.4947 28.1019C93.3985 28.1991 93.2749 28.2477 93.1239 28.2477H90.5281Z" fill="#E8125C"/>
</svg>