<svg width="582" height="496" viewBox="0 0 582 496" fill="none" xmlns="http://www.w3.org/2000/svg">
<g filter="url(#filter0_d_1198_17845)">
<path d="M507 94.2552V340.745C507 347.123 503.227 352 498.292 352H205.708C200.773 352 197 347.123 197 340.745V94.2552C197 87.8773 200.773 83 205.708 83H498.292C503.227 83 507 87.8773 507 94.2552Z" fill="white"/>
</g>
<path d="M507 94.1526V107H197V94.1526C197 87.8328 200.773 83 205.708 83H498.292C502.936 83 507 87.8328 507 94.1526Z" fill="url(#paint0_linear_1198_17845)"/>
<circle cx="210.552" cy="94.8651" r="3.38804" fill="#FDFDFD"/>
<circle opacity="0.6" cx="220.716" cy="94.8651" r="3.38804" fill="#FDFDFD"/>
<circle opacity="0.4" cx="230.88" cy="94.8651" r="3.38804" fill="#FDFDFD"/>
<g filter="url(#filter1_d_1198_17845)">
<path d="M472.488 335.668H318.694C314.961 335.668 311.975 332.667 311.975 328.917V134.267C311.975 130.516 314.961 127.516 318.694 127.516H472.488C476.221 127.516 479.207 130.516 479.207 134.267V328.917C479.207 332.667 476.221 335.668 472.488 335.668Z" fill="white"/>
</g>
<path d="M457.928 282.786H334.744C331.757 282.786 329.518 280.536 329.518 277.536V198.776C329.518 195.775 331.757 193.525 334.744 193.525H457.555C460.541 193.525 462.781 195.775 462.781 198.776V277.536C463.154 280.536 460.914 282.786 457.928 282.786Z" fill="#E6EDF5"/>
<path d="M401.558 270.785H344.445L373.188 238.531L401.558 270.785Z" fill="#CED7E2"/>
<path d="M448.224 270.785H366.475L407.536 224.279L448.224 270.785Z" fill="white"/>
<path d="M366.097 226.529C372.075 226.529 376.922 221.659 376.922 215.653C376.922 209.646 372.075 204.776 366.097 204.776C360.118 204.776 355.271 209.646 355.271 215.653C355.271 221.659 360.118 226.529 366.097 226.529Z" fill="#CED7E2"/>
<path d="M461.663 148.144H331.386C329.893 148.144 329.146 147.019 329.146 145.894C329.146 144.394 330.266 143.644 331.386 143.644H461.29C462.783 143.644 463.53 144.769 463.53 145.894C463.903 147.019 462.783 148.144 461.663 148.144Z" fill="#E6EDF5"/>
<path d="M461.663 161.646H331.386C329.893 161.646 329.146 160.52 329.146 159.395C329.146 157.895 330.266 157.145 331.386 157.145H461.29C462.783 157.145 463.53 158.27 463.53 159.395C463.903 160.52 462.783 161.646 461.663 161.646Z" fill="#E6EDF5"/>
<path d="M425.081 303.038H331.386C329.893 303.038 329.146 301.913 329.146 300.788C329.146 299.288 330.266 298.538 331.386 298.538H425.081C426.574 298.538 427.321 299.663 427.321 300.788C427.321 301.913 426.201 303.038 425.081 303.038Z" fill="#E6EDF5"/>
<path d="M397.085 176.272H331.386C329.893 176.272 329.146 175.147 329.146 174.022C329.146 172.522 330.266 171.771 331.386 171.771H396.711C398.204 171.771 398.951 172.897 398.951 174.022C399.324 175.147 398.204 176.272 397.085 176.272Z" fill="url(#paint1_linear_1198_17845)"/>
<path d="M461.663 316.916H331.386C329.893 316.916 329.146 315.79 329.146 314.665C329.146 313.165 330.266 312.415 331.386 312.415H461.29C462.783 312.415 463.53 313.54 463.53 314.665C463.903 315.79 462.783 316.916 461.663 316.916Z" fill="#E6EDF5"/>
<path d="M461.658 303.038H436.275C434.782 303.038 434.035 301.913 434.035 300.788C434.035 299.288 435.155 298.538 436.275 298.538H461.658C463.151 298.538 463.898 299.663 463.898 300.788C463.898 301.913 462.778 303.038 461.658 303.038Z" fill="url(#paint2_linear_1198_17845)"/>
<path d="M290.695 334.543H219.398C214.918 334.543 211.559 331.168 211.559 326.667V134.267C211.559 129.767 214.918 126.391 219.398 126.391H290.322C294.801 126.391 298.161 129.767 298.161 134.267V326.667C298.534 331.168 294.801 334.543 290.695 334.543Z" fill="#1C3754"/>
<path d="M255.236 152.645C259.978 152.645 263.822 148.783 263.822 144.019C263.822 139.255 259.978 135.393 255.236 135.393C250.494 135.393 246.65 139.255 246.65 144.019C246.65 148.783 250.494 152.645 255.236 152.645Z" fill="#2D5887"/>
<path d="M282.479 163.146H227.979C227.233 163.146 226.486 162.396 226.486 161.645C226.486 160.895 227.233 160.145 227.979 160.145H282.479C283.226 160.145 283.972 160.895 283.972 161.645C283.972 162.396 283.226 163.146 282.479 163.146Z" fill="#2D5887"/>
<path d="M282.479 174.772H227.979C227.233 174.772 226.486 174.022 226.486 173.272C226.486 172.522 227.233 171.771 227.979 171.771H282.479C283.226 171.771 283.972 172.522 283.972 173.272C283.972 174.022 283.226 174.772 282.479 174.772Z" fill="#2D5887"/>
<path d="M282.479 194.65H227.979C227.233 194.65 226.486 193.9 226.486 193.15C226.486 192.025 226.86 191.274 227.979 191.274H282.479C283.226 191.274 283.972 192.025 283.972 192.775C283.972 193.9 283.226 194.65 282.479 194.65Z" fill="#2D5887"/>
<path d="M247.766 206.276H227.235C226.862 206.276 226.115 205.901 226.115 205.151V204.026C226.115 203.651 226.489 202.901 227.235 202.901H247.393C247.766 202.901 248.512 203.276 248.512 204.026V205.151C248.512 205.901 248.139 206.276 247.766 206.276Z" fill="#2D5887"/>
<path d="M282.479 226.904H227.979C227.233 226.904 226.486 226.154 226.486 225.404C226.486 224.654 227.233 223.904 227.979 223.904H282.479C283.226 223.904 283.972 224.654 283.972 225.404C283.972 226.154 283.226 226.904 282.479 226.904Z" fill="#2D5887"/>
<path d="M247.766 238.53H227.235C226.862 238.53 226.115 238.155 226.115 237.405V236.28C226.115 235.905 226.489 235.155 227.235 235.155H247.393C247.766 235.155 248.512 235.53 248.512 236.28V237.405C248.512 238.155 248.139 238.53 247.766 238.53Z" fill="#2D5887"/>
<path d="M282.479 259.158H227.979C227.233 259.158 226.486 258.408 226.486 257.658C226.486 256.908 227.233 256.157 227.979 256.157H282.479C283.226 256.157 283.972 256.908 283.972 257.658C283.972 258.783 283.226 259.158 282.479 259.158Z" fill="#2D5887"/>
<path d="M247.766 270.785H227.235C226.862 270.785 226.115 270.41 226.115 269.659V268.534C226.115 268.159 226.489 267.409 227.235 267.409H247.393C247.766 267.409 248.512 267.784 248.512 268.534V270.035C248.512 270.41 248.139 270.785 247.766 270.785Z" fill="url(#paint3_linear_1198_17845)"/>
<path d="M545.648 72.009C553.482 72.009 559.833 65.6283 559.833 57.7572C559.833 49.8861 553.482 43.5054 545.648 43.5054C537.814 43.5054 531.463 49.8861 531.463 57.7572C531.463 65.6283 537.814 72.009 545.648 72.009Z" fill="#EAEEF9"/>
<path d="M243.287 54.3818C246.792 54.3818 249.633 51.5272 249.633 48.0059C249.633 44.4847 246.792 41.6301 243.287 41.6301C239.783 41.6301 236.941 44.4847 236.941 48.0059C236.941 51.5272 239.783 54.3818 243.287 54.3818Z" fill="#EAEEF9"/>
<path d="M529.223 12.0015C532.521 12.0015 535.195 9.3149 535.195 6.00077C535.195 2.68664 532.521 0 529.223 0C525.924 0 523.25 2.68664 523.25 6.00077C523.25 9.3149 525.924 12.0015 529.223 12.0015Z" fill="#EAEEF9"/>
<path d="M258.22 400.926C261.106 400.926 263.446 398.576 263.446 395.676C263.446 392.776 261.106 390.425 258.22 390.425C255.334 390.425 252.994 392.776 252.994 395.676C252.994 398.576 255.334 400.926 258.22 400.926Z" fill="url(#paint4_linear_1198_17845)"/>
<path d="M146.995 245.564L239.37 322.753C244.774 327.142 245.546 335.144 240.914 340.566L171.183 424.208C166.808 429.629 158.832 430.404 153.428 425.757L44.5851 334.886C39.1815 330.498 38.4096 322.495 43.0412 317.074L98.8779 249.953L146.995 245.564Z" fill="#E1EAF2"/>
<path d="M146.996 245.564L130.27 265.959C127.44 269.315 122.294 269.831 118.691 266.733L98.6211 249.953L146.996 245.564Z" fill="#CED7E2"/>
<g filter="url(#filter2_d_1198_17845)">
<path d="M260.982 354.765L253.263 360.187L160.373 426.016C153.94 430.663 144.934 429.114 140.56 422.66L47.9274 291.001C43.2958 284.547 44.8397 275.512 51.2725 271.123L132.069 214.071L186.104 223.364L256.35 323.012L264.584 334.629C268.959 341.341 267.415 350.119 260.982 354.765Z" fill="#F0F5FA"/>
</g>
<path d="M186.102 223.363L162.172 240.66C158.055 243.758 152.137 242.725 149.049 238.336L132.066 214.07H132.324L186.102 223.363Z" fill="#CED7E2"/>
<path d="M260.985 354.765L253.266 360.186V323.012H256.096L264.33 334.629C268.962 341.341 267.418 350.118 260.985 354.765Z" fill="#CED7E2"/>
<g filter="url(#filter3_d_1198_17845)">
<path d="M282.085 281.965L241.43 412.075C239.114 419.562 231.137 423.951 223.675 421.369L106.084 384.453C98.6215 382.129 94.5045 374.126 96.8203 366.382L144.68 213.037C146.996 205.551 154.973 201.162 162.435 203.744L256.869 233.174" fill="#F0F5FA"/>
</g>
<path opacity="0.5" d="M263.557 289.452L246.317 344.697C245.287 347.795 242.2 349.602 239.112 348.569L134.9 315.784C131.813 314.751 130.012 311.653 131.041 308.555L148.281 253.31C149.31 250.212 152.398 248.405 155.485 249.438L259.697 282.223C262.785 282.998 264.586 286.354 263.557 289.452Z" fill="#CED7E2"/>
<path d="M282.086 281.965L253.781 273.188C248.893 271.639 246.062 266.476 247.606 261.313L256.355 232.916H256.612L282.086 281.965Z" fill="#E6EDF5"/>
<path d="M242.972 264.41L211.58 261.312C206.177 260.796 202.06 255.891 202.832 250.212L206.177 218.717H206.434L242.972 264.41Z" fill="#CED7E2"/>
<g filter="url(#filter4_d_1198_17845)">
<path d="M242.972 255.117V400.458C242.972 408.977 236.282 415.69 227.791 415.69H96.3045C87.8132 415.69 81.123 408.977 81.123 400.458V228.785C81.123 220.266 88.0705 213.554 96.3045 213.554H201.545L242.972 255.117Z" fill="white"/>
</g>
<path d="M242.972 255.117L211.322 255.375C205.661 255.375 201.287 250.986 201.287 245.307V213.554H201.544L242.972 255.117Z" fill="#E1EAF2"/>
<path d="M213.895 333.854H113.801C111.485 333.854 109.684 332.047 109.684 329.723V271.897C109.684 269.573 111.485 267.766 113.801 267.766H213.895C216.211 267.766 218.012 269.573 218.012 271.897V329.465C218.269 331.789 216.211 333.854 213.895 333.854Z" fill="#E6EDF5"/>
<path d="M167.579 324.819H125.895L146.737 301.068L167.579 324.819Z" fill="#CED7E2"/>
<path d="M202.315 324.819H142.104L172.209 290.742L202.315 324.819Z" fill="white"/>
<path d="M141.592 292.549C145.997 292.549 149.569 288.966 149.569 284.546C149.569 280.126 145.997 276.543 141.592 276.543C137.187 276.543 133.615 280.126 133.615 284.546C133.615 288.966 137.187 292.549 141.592 292.549Z" fill="#CED7E2"/>
<path d="M215.956 354.248H112.774C111.23 354.248 109.943 352.957 109.943 351.409C109.943 349.86 111.23 348.569 112.774 348.569H215.956C217.5 348.569 218.786 349.86 218.786 351.409C218.786 352.957 217.5 354.248 215.956 354.248Z" fill="#CED7E2"/>
<path d="M215.956 370.254H112.774C111.23 370.254 109.943 368.963 109.943 367.414C109.943 365.865 111.23 364.574 112.774 364.574H215.956C217.5 364.574 218.786 365.865 218.786 367.414C218.786 368.963 217.5 370.254 215.956 370.254Z" fill="#CED7E2"/>
<path d="M163.722 383.42C163.722 384.969 162.435 386.26 160.891 386.26H112.774C111.23 386.26 109.943 384.969 109.943 383.42C109.943 381.871 111.23 380.58 112.774 380.58H160.891C162.435 380.58 163.722 381.871 163.722 383.42Z" fill="#CED7E2"/>
<path d="M165.78 236.788H112.774C111.23 236.788 109.943 235.497 109.943 233.948C109.943 232.399 111.23 231.108 112.774 231.108H165.78C167.324 231.108 168.611 232.399 168.611 233.948C168.611 235.497 167.324 236.788 165.78 236.788Z" fill="#CED7E2"/>
<path d="M136.189 252.793H112.774C111.23 252.793 109.943 251.503 109.943 249.954C109.943 248.405 111.23 247.114 112.774 247.114H136.189C137.733 247.114 139.02 248.405 139.02 249.954C138.762 251.503 137.733 252.793 136.189 252.793Z" fill="#CED7E2"/>
<path d="M184.819 427.048C183.275 431.179 180.445 434.793 176.585 436.858C162.69 444.087 147.509 430.404 151.883 415.69H156.257C151.111 432.47 170.924 440.473 179.158 429.372C181.217 426.79 180.702 426.79 190.737 394.521C193.31 386.002 185.076 381.613 179.158 384.711C175.299 386.776 175.813 387.809 167.065 415.69C166.807 416.206 166.807 416.722 166.807 416.722C166.293 419.046 168.094 421.111 170.152 420.853C172.468 420.853 172.725 417.755 173.497 415.69C177.357 403.298 178.129 400.975 178.129 400.717C179.158 398.393 183.018 399.168 181.989 402.524C176.071 422.918 176.071 422.918 173.24 424.209C166.807 427.565 160.632 420.078 162.69 415.69C171.696 386.518 171.439 383.678 176.842 381.097C185.334 376.708 194.34 381.871 195.369 390.132C195.626 392.714 196.141 391.939 184.819 427.048Z" fill="url(#paint5_linear_1198_17845)"/>
<g filter="url(#filter5_d_1198_17845)">
<ellipse cx="162.199" cy="307.485" rx="20.3667" ry="27.495" fill="#E8125C"/>
</g>
<path d="M194.598 305.973C193.312 289.968 179.931 276.802 163.978 276.285C157.03 276.027 150.34 277.834 144.937 281.449C136.188 287.128 130.527 297.196 130.527 308.297C130.527 318.881 135.674 328.433 143.65 334.371C144.68 335.145 145.451 336.178 145.709 337.468C146.223 339.534 148.282 341.857 151.112 341.857C152.399 341.857 153.685 341.341 154.715 340.566C155.229 340.05 156.001 340.05 156.516 340.308C157.288 340.566 157.802 341.083 157.545 342.115C157.545 342.373 157.545 342.373 157.545 342.373C157.545 344.18 159.089 345.729 160.89 345.729C162.691 345.729 164.235 344.18 164.235 342.373C164.235 341.599 164.75 340.824 165.779 340.566C183.019 338.501 195.885 323.528 194.598 305.973Z" fill="#E8125C"/>
<path d="M149.309 351.925C150.872 351.925 152.139 350.654 152.139 349.086C152.139 347.517 150.872 346.246 149.309 346.246C147.746 346.246 146.479 347.517 146.479 349.086C146.479 350.654 147.746 351.925 149.309 351.925Z" fill="#E8125C"/>
<path d="M150.082 366.382C151.077 366.382 151.884 365.573 151.884 364.575C151.884 363.577 151.077 362.768 150.082 362.768C149.088 362.768 148.281 363.577 148.281 364.575C148.281 365.573 149.088 366.382 150.082 366.382Z" fill="#E8125C"/>
<path d="M161.663 355.281C162.942 355.281 163.979 354.241 163.979 352.958C163.979 351.675 162.942 350.635 161.663 350.635C160.384 350.635 159.348 351.675 159.348 352.958C159.348 354.241 160.384 355.281 161.663 355.281Z" fill="#E8125C"/>
<path d="M174.784 348.311C176.347 348.311 177.614 347.04 177.614 345.471C177.614 343.903 176.347 342.632 174.784 342.632C173.22 342.632 171.953 343.903 171.953 345.471C171.953 347.04 173.22 348.311 174.784 348.311Z" fill="#E8125C"/>
<path d="M170.413 368.705C171.407 368.705 172.214 367.896 172.214 366.898C172.214 365.9 171.407 365.091 170.413 365.091C169.418 365.091 168.611 365.9 168.611 366.898C168.611 367.896 169.418 368.705 170.413 368.705Z" fill="#E8125C"/>
<path d="M160.375 374.901C161.512 374.901 162.433 373.976 162.433 372.836C162.433 371.695 161.512 370.771 160.375 370.771C159.238 370.771 158.316 371.695 158.316 372.836C158.316 373.976 159.238 374.901 160.375 374.901Z" fill="#E8125C"/>
<path d="M162.694 393.747C163.12 393.747 163.466 393.4 163.466 392.972C163.466 392.545 163.12 392.198 162.694 392.198C162.267 392.198 161.922 392.545 161.922 392.972C161.922 393.4 162.267 393.747 162.694 393.747Z" fill="#E8125C"/>
<path d="M157.548 384.195C158.259 384.195 158.835 383.617 158.835 382.904C158.835 382.191 158.259 381.613 157.548 381.613C156.838 381.613 156.262 382.191 156.262 382.904C156.262 383.617 156.838 384.195 157.548 384.195Z" fill="#E8125C"/>
<path d="M144.937 281.19C150.083 277.834 156.001 276.027 162.691 276.027C180.446 276.027 194.855 290.484 194.855 308.297C194.855 326.109 180.446 340.566 162.691 340.566C144.937 340.566 130.527 326.109 130.527 308.297C130.527 296.938 136.188 287.128 144.937 281.19Z" fill="url(#paint6_linear_1198_17845)"/>
<path d="M192.541 319.914L174.271 301.585L168.096 299.261L161.406 296.68L151.113 305.974L161.92 316.816L160.377 324.303L174.271 338.243L192.541 319.914Z" fill="url(#paint7_linear_1198_17845)"/>
<path d="M164.748 292.033L174.269 301.585C175.555 302.875 175.555 304.683 174.269 305.973C172.982 307.264 171.181 307.264 169.895 305.973L165.52 301.585V322.237C165.52 323.786 164.234 325.335 162.433 325.335C160.889 325.335 159.345 324.044 159.345 322.237V301.585L154.97 305.973C153.684 307.264 151.883 307.264 150.596 305.973C150.082 305.457 149.824 304.683 149.824 303.908C149.824 303.134 150.082 302.359 150.596 301.843L160.117 292.291C160.631 291.775 161.403 291.517 162.175 291.517C162.947 291.517 164.234 291.517 164.748 292.033Z" fill="url(#paint8_linear_1198_17845)"/>
<defs>
<filter id="filter0_d_1198_17845" x="122.463" y="18.4632" width="459.074" height="418.074" filterUnits="userSpaceOnUse" color-interpolation-filters="sRGB">
<feFlood flood-opacity="0" result="BackgroundImageFix"/>
<feColorMatrix in="SourceAlpha" type="matrix" values="0 0 0 0 0 0 0 0 0 0 0 0 0 0 0 0 0 0 127 0" result="hardAlpha"/>
<feOffset dy="10"/>
<feGaussianBlur stdDeviation="37.2684"/>
<feColorMatrix type="matrix" values="0 0 0 0 0.397708 0 0 0 0 0.47749 0 0 0 0 0.575 0 0 0 0.18 0"/>
<feBlend mode="normal" in2="BackgroundImageFix" result="effect1_dropShadow_1198_17845"/>
<feBlend mode="normal" in="SourceGraphic" in2="effect1_dropShadow_1198_17845" result="shape"/>
</filter>
<filter id="filter1_d_1198_17845" x="237.438" y="90.2477" width="316.306" height="357.225" filterUnits="userSpaceOnUse" color-interpolation-filters="sRGB">
<feFlood flood-opacity="0" result="BackgroundImageFix"/>
<feColorMatrix in="SourceAlpha" type="matrix" values="0 0 0 0 0 0 0 0 0 0 0 0 0 0 0 0 0 0 127 0" result="hardAlpha"/>
<feOffset dy="37.2684"/>
<feGaussianBlur stdDeviation="37.2684"/>
<feColorMatrix type="matrix" values="0 0 0 0 0.397708 0 0 0 0 0.47749 0 0 0 0 0.575 0 0 0 0.18 0"/>
<feBlend mode="normal" in2="BackgroundImageFix" result="effect1_dropShadow_1198_17845"/>
<feBlend mode="normal" in="SourceGraphic" in2="effect1_dropShadow_1198_17845" result="shape"/>
</filter>
<filter id="filter2_d_1198_17845" x="0.443336" y="191.667" width="311.428" height="304.245" filterUnits="userSpaceOnUse" color-interpolation-filters="sRGB">
<feFlood flood-opacity="0" result="BackgroundImageFix"/>
<feColorMatrix in="SourceAlpha" type="matrix" values="0 0 0 0 0 0 0 0 0 0 0 0 0 0 0 0 0 0 127 0" result="hardAlpha"/>
<feOffset dy="22.4033"/>
<feGaussianBlur stdDeviation="22.4033"/>
<feColorMatrix type="matrix" values="0 0 0 0 0.397708 0 0 0 0 0.47749 0 0 0 0 0.575 0 0 0 0.18 0"/>
<feBlend mode="normal" in2="BackgroundImageFix" result="effect1_dropShadow_1198_17845"/>
<feBlend mode="normal" in="SourceGraphic" in2="effect1_dropShadow_1198_17845" result="shape"/>
</filter>
<filter id="filter3_d_1198_17845" x="51.3691" y="180.597" width="275.523" height="308.726" filterUnits="userSpaceOnUse" color-interpolation-filters="sRGB">
<feFlood flood-opacity="0" result="BackgroundImageFix"/>
<feColorMatrix in="SourceAlpha" type="matrix" values="0 0 0 0 0 0 0 0 0 0 0 0 0 0 0 0 0 0 127 0" result="hardAlpha"/>
<feOffset dy="22.4033"/>
<feGaussianBlur stdDeviation="22.4033"/>
<feColorMatrix type="matrix" values="0 0 0 0 0.397708 0 0 0 0 0.47749 0 0 0 0 0.575 0 0 0 0.18 0"/>
<feBlend mode="normal" in2="BackgroundImageFix" result="effect1_dropShadow_1198_17845"/>
<feBlend mode="normal" in="SourceGraphic" in2="effect1_dropShadow_1198_17845" result="shape"/>
</filter>
<filter id="filter4_d_1198_17845" x="36.3164" y="191.15" width="251.463" height="291.749" filterUnits="userSpaceOnUse" color-interpolation-filters="sRGB">
<feFlood flood-opacity="0" result="BackgroundImageFix"/>
<feColorMatrix in="SourceAlpha" type="matrix" values="0 0 0 0 0 0 0 0 0 0 0 0 0 0 0 0 0 0 127 0" result="hardAlpha"/>
<feOffset dy="22.4033"/>
<feGaussianBlur stdDeviation="22.4033"/>
<feColorMatrix type="matrix" values="0 0 0 0 0.397708 0 0 0 0 0.47749 0 0 0 0 0.575 0 0 0 0.18 0"/>
<feBlend mode="normal" in2="BackgroundImageFix" result="effect1_dropShadow_1198_17845"/>
<feBlend mode="normal" in="SourceGraphic" in2="effect1_dropShadow_1198_17845" result="shape"/>
</filter>
<filter id="filter5_d_1198_17845" x="115.355" y="279.99" width="93.6858" height="116.09" filterUnits="userSpaceOnUse" color-interpolation-filters="sRGB">
<feFlood flood-opacity="0" result="BackgroundImageFix"/>
<feColorMatrix in="SourceAlpha" type="matrix" values="0 0 0 0 0 0 0 0 0 0 0 0 0 0 0 0 0 0 127 0" result="hardAlpha"/>
<feOffset dy="34.6233"/>
<feGaussianBlur stdDeviation="13.2383"/>
<feColorMatrix type="matrix" values="0 0 0 0 0.1125 0 0 0 0 0.295916 0 0 0 0 1 0 0 0 0.21 0"/>
<feBlend mode="normal" in2="BackgroundImageFix" result="effect1_dropShadow_1198_17845"/>
<feBlend mode="normal" in="SourceGraphic" in2="effect1_dropShadow_1198_17845" result="shape"/>
</filter>
<linearGradient id="paint0_linear_1198_17845" x1="196.929" y1="99.7184" x2="506.915" y2="99.7184" gradientUnits="userSpaceOnUse">
<stop stop-color="#F2539D"/>
<stop offset="1" stop-color="white"/>
</linearGradient>
<linearGradient id="paint1_linear_1198_17845" x1="329.031" y1="173.734" x2="399.365" y2="173.734" gradientUnits="userSpaceOnUse">
<stop stop-color="#FF66A9"/>
<stop offset="1" stop-color="#F53689"/>
</linearGradient>
<linearGradient id="paint2_linear_1198_17845" x1="433.698" y1="300.752" x2="463.906" y2="300.752" gradientUnits="userSpaceOnUse">
<stop stop-color="#FF66A9"/>
<stop offset="1" stop-color="#F53689"/>
</linearGradient>
<linearGradient id="paint3_linear_1198_17845" x1="226.324" y1="269.302" x2="248.622" y2="269.302" gradientUnits="userSpaceOnUse">
<stop stop-color="#FF66A9"/>
<stop offset="1" stop-color="#F53689"/>
</linearGradient>
<linearGradient id="paint4_linear_1198_17845" x1="253.019" y1="395.669" x2="263.102" y2="395.669" gradientUnits="userSpaceOnUse">
<stop stop-color="#FF66A9"/>
<stop offset="1" stop-color="#F53689"/>
</linearGradient>
<linearGradient id="paint5_linear_1198_17845" x1="173.264" y1="379.981" x2="173.264" y2="434.786" gradientUnits="userSpaceOnUse">
<stop stop-color="#FF66A9"/>
<stop offset="1" stop-color="#F53689"/>
</linearGradient>
<linearGradient id="paint6_linear_1198_17845" x1="162.663" y1="277.597" x2="162.663" y2="342.843" gradientUnits="userSpaceOnUse">
<stop stop-color="#FF6EA0"/>
<stop offset="1" stop-color="#FF75A5"/>
</linearGradient>
<linearGradient id="paint7_linear_1198_17845" x1="162.623" y1="308.241" x2="181.116" y2="326.674" gradientUnits="userSpaceOnUse">
<stop stop-color="#E8125C"/>
<stop offset="1" stop-color="#FF6DA0"/>
</linearGradient>
<linearGradient id="paint8_linear_1198_17845" x1="174.613" y1="320.25" x2="157.268" y2="302.961" gradientUnits="userSpaceOnUse">
<stop offset="0.0113208" stop-color="#C2D1FF"/>
<stop offset="1" stop-color="white"/>
</linearGradient>
</defs>
</svg>