<svg width="48" height="48" viewBox="0 0 48 48" fill="none" xmlns="http://www.w3.org/2000/svg">
<path d="M24 30C31.732 30 38 23.732 38 16C38 8.26801 31.732 2 24 2C16.268 2 10 8.26801 10 16C10 23.732 16.268 30 24 30Z" stroke="#272E35" stroke-width="2" stroke-miterlimit="10" stroke-linecap="round" stroke-linejoin="round"/>
<path d="M16 46C23.732 46 30 39.732 30 32C30 24.268 23.732 18 16 18C8.26801 18 2 24.268 2 32C2 39.732 8.26801 46 16 46Z" stroke="#272E35" stroke-width="2" stroke-miterlimit="10" stroke-linecap="round" stroke-linejoin="round"/>
<path d="M32 46C39.732 46 46 39.732 46 32C46 24.268 39.732 18 32 18C24.268 18 18 24.268 18 32C18 39.732 24.268 46 32 46Z" stroke="#272E35" stroke-width="2" stroke-miterlimit="10" stroke-linecap="round" stroke-linejoin="round"/>
</svg>