<svg width="347" height="302" viewBox="0 0 347 302" fill="none" xmlns="http://www.w3.org/2000/svg">
<path d="M346.122 127.035L287.93 280.244C285.839 285.479 279.916 287.922 275.037 285.828L126.943 227.546C121.716 225.452 119.277 219.519 121.368 214.633L198.377 18.4969C200.467 13.262 206.391 10.819 211.27 12.913L318.594 55.1415L346.122 127.035Z" fill="white"/>
<path d="M279.222 222.311L190.365 187.411C188.971 187.062 188.623 185.666 188.971 184.27C189.32 182.874 190.714 182.525 192.107 182.874L280.964 217.774C282.358 218.123 282.706 219.519 282.358 220.915C281.661 221.962 280.267 222.66 279.222 222.311Z" fill="#E3EAF2"/>
<path d="M179.212 182.874L163.531 176.592C162.137 176.243 161.789 174.847 162.137 173.451C162.486 172.055 163.88 171.706 165.274 172.055L180.954 178.337C182.348 178.686 182.696 180.082 182.348 181.478C181.999 182.874 180.606 183.223 179.212 182.874Z" fill="#E3EAF2"/>
<path d="M288.281 198.23L248.557 182.525C247.163 182.176 246.814 180.78 247.163 179.384C247.511 177.988 248.905 177.639 250.299 177.988L290.023 193.693C291.417 194.042 291.765 195.438 291.417 196.834C291.068 198.23 289.675 198.579 288.281 198.23Z" fill="#E3EAF2"/>
<path d="M231.83 175.894L173.986 153.209C172.592 152.86 172.244 151.464 172.592 150.068C172.941 148.672 174.335 148.323 175.729 148.672L233.572 171.357C234.966 171.706 235.315 173.102 234.966 174.498C234.618 175.894 233.224 176.243 231.83 175.894Z" fill="#E3EAF2"/>
<path d="M298.385 174.498L283.053 168.565C281.659 168.216 281.31 166.82 281.659 165.424C282.007 164.028 283.401 163.679 284.795 164.028L300.127 169.961C301.521 170.31 301.869 171.706 301.521 173.102C301.172 174.498 299.779 174.847 298.385 174.498Z" fill="#E3EAF2"/>
<path d="M268.765 162.632L184.09 129.129C182.696 128.78 182.348 127.384 182.696 125.988C183.044 124.592 184.438 124.243 185.832 124.592L270.507 158.095C271.901 158.444 272.249 159.84 271.901 161.236C271.552 162.632 270.159 163.33 268.765 162.632Z" fill="#E3EAF2"/>
<path d="M201.512 221.962L196.285 219.868C194.891 219.519 194.543 218.123 194.891 216.727C195.24 215.331 196.634 214.982 198.027 215.331L203.254 217.425C204.648 217.774 204.997 219.17 204.648 220.566C203.951 221.962 202.557 222.311 201.512 221.962Z" fill="#E3EAF2"/>
<path d="M186.531 216.029L155.17 203.465C153.776 203.116 153.428 201.72 153.776 200.324C154.125 198.928 155.518 198.579 156.912 198.928L188.273 211.492C189.667 211.841 190.016 213.237 189.667 214.633C189.319 216.029 187.576 216.378 186.531 216.029Z" fill="#E3EAF2"/>
<path d="M308.841 150.766L254.133 129.129C252.739 128.78 252.391 127.384 252.739 125.988C253.087 124.592 254.481 124.243 255.875 124.592L310.583 146.23C311.977 146.579 312.325 147.975 311.977 149.37C311.628 150.766 309.886 151.115 308.841 150.766Z" fill="#E3EAF2"/>
<path d="M236.362 122.149L194.199 105.397C192.805 105.048 192.457 103.652 192.805 102.256C193.154 100.86 194.548 100.511 195.941 100.86L238.105 117.961C239.499 118.31 239.847 119.706 239.499 121.102C239.15 122.498 237.756 122.847 236.362 122.149Z" fill="#E3EAF2"/>
<path d="M287.581 79.9202L216.496 52.0005C214.753 51.3025 214.056 49.5575 214.753 47.8125C215.45 46.0675 217.193 45.3695 218.935 46.0675L290.02 73.9872C291.762 74.6852 292.459 76.4302 291.762 78.1752C291.065 79.9202 289.323 80.6182 287.581 79.9202Z" fill="#CED7E2"/>
<path d="M237.052 79.5711L209.873 68.7522C208.13 68.0542 207.433 66.3093 208.13 64.5643C208.827 62.8193 210.57 62.1213 212.312 62.8193L239.491 73.6382C241.234 74.3362 241.931 76.0812 241.234 77.8261C240.537 79.5711 238.446 80.2691 237.052 79.5711Z" fill="#CED7E2"/>
<path d="M318.594 55.1414L302.216 97.0209C299.777 102.954 303.262 109.934 308.837 112.028L346.122 126.686" fill="#E6EDF5"/>
<path d="M181.65 61.0745L249.599 210.096C251.69 215.331 249.599 221.264 244.372 223.358L98.7175 287.573C93.4907 289.667 87.5669 287.573 85.4762 282.338L0.801179 89.6922C-1.28956 84.4572 0.801179 78.5243 6.02803 76.4303L111.61 29.6648L181.65 61.0745Z" fill="white"/>
<path d="M202.209 175.545L114.747 214.284C113.701 214.982 112.308 214.284 111.611 213.237C110.914 212.19 111.611 210.794 112.656 210.096L200.119 171.357C201.164 170.659 202.558 171.357 203.255 172.404C203.952 173.451 203.255 175.196 202.209 175.545Z" fill="#E3EAF2"/>
<path d="M103.946 218.821L88.6139 225.452C87.5685 226.15 86.1747 225.452 85.4778 224.405C84.7809 223.358 85.4778 221.962 86.5232 221.264L101.855 214.633C102.901 213.935 104.294 214.633 104.991 215.68C105.688 217.076 105.34 218.472 103.946 218.821Z" fill="#E3EAF2"/>
<path d="M191.407 152.163L152.38 169.263C151.334 169.961 149.94 169.263 149.243 168.216C148.547 167.169 149.243 165.773 150.289 165.076L189.316 147.975C190.361 147.277 191.755 147.975 192.452 149.022C193.149 150.069 192.801 151.465 191.407 152.163Z" fill="#E3EAF2"/>
<path d="M136.004 176.592L79.2057 201.72C78.1603 202.418 76.7665 201.72 76.0696 200.673C75.3727 199.626 76.0696 198.23 77.115 197.532L133.913 172.404C134.959 171.706 136.353 172.404 137.05 173.451C137.746 174.847 137.398 176.243 136.004 176.592Z" fill="#E3EAF2"/>
<path d="M181.998 128.082L167.014 134.713C165.969 135.411 164.575 134.713 163.878 133.666C163.181 132.619 163.878 131.223 164.924 130.525L179.907 123.894C180.953 123.196 182.346 123.894 183.043 124.941C183.74 126.337 183.043 127.733 181.998 128.082Z" fill="#E3EAF2"/>
<path d="M152.729 140.995L69.4479 177.988C68.4025 178.686 67.0087 177.988 66.3118 176.941C65.6149 175.894 66.3118 174.498 67.3571 173.8L150.987 136.807C152.032 136.109 153.426 136.807 154.123 137.854C154.471 139.25 154.123 140.646 152.729 140.995Z" fill="#E3EAF2"/>
<path d="M147.503 230.687L142.276 233.13C141.231 233.828 139.837 233.13 139.14 232.083C138.443 231.036 139.14 229.64 140.185 228.942L145.412 226.499C146.458 225.801 147.851 226.499 148.548 227.546C149.245 228.593 148.548 229.989 147.503 230.687Z" fill="#E3EAF2"/>
<path d="M132.517 237.318L101.505 250.928C100.459 251.626 99.0653 250.928 98.3684 249.881C97.6715 248.834 98.3684 247.438 99.4138 246.74L130.426 233.13C131.472 232.432 132.866 233.13 133.563 234.177C134.259 235.224 133.911 236.62 132.517 237.318Z" fill="#E3EAF2"/>
<path d="M172.243 104.35L118.581 128.082C117.535 128.78 116.142 128.082 115.445 127.035C114.748 125.988 115.445 124.592 116.49 123.894L170.152 100.162C171.198 99.4641 172.591 100.162 173.288 101.209C173.985 102.256 173.288 103.652 172.243 104.35Z" fill="#E3EAF2"/>
<path d="M101.154 135.76L59.6881 153.908C58.6428 154.606 57.2489 153.908 56.552 152.861C55.8551 151.814 56.552 150.418 57.5974 149.72L99.0637 131.572C100.109 130.874 101.503 131.572 102.2 132.619C102.897 133.666 102.548 135.062 101.154 135.76Z" fill="#E3EAF2"/>
<path d="M107.082 69.4503L37.0423 100.162C35.3 100.86 33.5577 100.162 32.8608 98.417C32.1639 96.672 32.8608 94.927 34.6031 94.229L104.294 63.5174C106.037 62.8194 107.779 63.5174 108.476 65.2623C109.173 67.0073 108.476 68.7523 107.082 69.4503Z" fill="#CED7E2"/>
<path d="M71.1879 105.397L44.3567 117.263C42.6145 117.961 40.8722 117.263 40.1753 115.518C39.4783 113.773 40.1753 112.028 41.9175 111.33L68.7487 99.4641C70.491 98.7661 72.2333 99.4641 72.9302 101.209C73.6271 102.605 72.9302 104.699 71.1879 105.397Z" fill="#CED7E2"/>
<path d="M111.609 30.0133L129.729 71.1949C132.168 76.7788 139.486 79.5708 145.061 77.1278L181.649 61.074" fill="#E6EDF5"/>
<path d="M288.628 72.5912L291.067 281.989C291.067 288.969 285.492 294.902 278.174 294.902H75.0238C68.0546 294.902 62.1309 289.318 62.1309 281.989V12.9129C62.1309 5.93294 67.7062 0 75.0238 0H222.421L288.628 72.5912Z" fill="white"/>
<path d="M161.094 253.023H153.777C152.034 253.023 150.641 251.627 150.641 249.882C150.641 248.137 152.034 246.741 153.777 246.741H161.094C162.837 246.741 164.23 248.137 164.23 249.882C164.23 251.627 162.837 253.023 161.094 253.023Z" fill="#E3EAF2"/>
<path d="M140.534 253.023H97.3256C95.5833 253.023 94.1895 251.627 94.1895 249.882C94.1895 248.137 95.5833 246.741 97.3256 246.741H140.534C142.276 246.741 143.67 248.137 143.67 249.882C143.67 251.627 142.276 253.023 140.534 253.023Z" fill="#E3EAF2"/>
<path d="M196.988 43.9738H99.4198C97.329 43.9738 95.2383 42.2288 95.2383 39.7858C95.2383 37.6918 96.9806 35.5978 99.4198 35.5978H196.988C199.078 35.5978 201.169 37.3428 201.169 39.7858C200.821 42.2288 199.078 43.9738 196.988 43.9738Z" fill="#CED7E2"/>
<path d="M136.705 67.3564H99.4198C97.329 67.3564 95.2383 65.6115 95.2383 63.1685C95.2383 61.0745 96.9806 58.9805 99.4198 58.9805H136.705C138.795 58.9805 140.886 60.7255 140.886 63.1685C140.538 65.6115 138.795 67.3564 136.705 67.3564Z" fill="#CED7E2"/>
<path d="M222.424 0.348633V57.933C222.424 65.9599 229.393 72.5909 237.407 72.5909H288.631" fill="#E6EDF5"/>
<path d="M256.571 111.33H205.696C205.696 111.33 205.696 111.33 205.348 111.33C205.348 111.33 205.348 111.33 204.999 111.33H152.731C152.731 111.33 152.731 111.33 152.382 111.33C152.382 111.33 152.382 111.33 152.034 111.33H102.901C97.326 111.33 93.1445 115.867 93.1445 121.451V210.096C93.1445 215.68 97.6745 220.217 102.901 220.217H256.222C261.798 220.217 265.979 215.68 265.979 210.096V121.451C266.328 115.867 261.798 111.33 256.571 111.33ZM155.518 189.854V169.961H202.56V189.854H155.518ZM202.56 195.787V214.284H155.518V195.787H202.56ZM202.56 143.786V163.679H155.518V143.786H202.56ZM155.518 137.853V117.263H202.56V137.853H155.518ZM260.404 163.679H208.484V143.786H260.404V163.679ZM149.595 163.679H99.0683V143.786H149.246V163.679H149.595ZM99.0683 169.961H149.246V189.854H99.0683V169.961ZM208.484 169.961H260.404V189.854H208.484V169.961ZM260.404 121.451V137.853H208.484V117.263H256.571C258.661 117.263 260.404 119.008 260.404 121.451ZM102.901 117.263H149.246V137.853H99.0683V121.451C99.0683 119.008 100.811 117.263 102.901 117.263ZM99.0683 210.096V195.787H149.246V214.284H102.901C100.811 214.284 99.0683 212.539 99.0683 210.096ZM256.571 214.284H208.484V195.787H260.404V210.096C260.404 212.539 258.661 214.284 256.571 214.284Z" fill="#E3EAF2"/>
<g filter="url(#filter0_d_1198_15734)">
<path d="M246.463 116.216C242.979 116.216 234.616 113.075 231.828 112.028C217.193 105.397 193.149 85.8532 179.908 85.8532C166.667 85.8532 142.623 105.048 127.988 112.028C125.549 113.075 116.837 116.216 113.353 116.216C107.777 116.565 103.596 121.451 104.293 126.686C105.687 139.599 109.171 162.632 118.231 192.297C130.079 228.942 162.834 250.928 175.378 258.257C178.514 260.002 181.999 260.002 185.135 258.257C197.679 250.928 230.434 228.942 241.585 192.297C250.645 162.632 254.129 139.599 255.523 126.686C256.22 121.102 252.038 116.216 246.463 116.216Z" fill="#E8125C"/>
</g>
<path d="M236.71 132.619C235.665 140.995 233.574 153.908 229.393 169.961C228.696 172.753 227.999 175.894 226.953 178.686C226.256 181.478 225.56 183.921 224.514 186.713C215.803 214.633 191.759 232.083 179.912 239.063C179.912 239.063 179.912 239.063 179.563 239.063C179.563 239.063 179.563 239.063 179.215 239.063C178.169 238.365 177.124 237.667 175.73 236.969C163.186 228.593 142.975 212.19 135.309 187.062C133.567 181.129 131.825 175.545 130.431 169.961C126.249 153.908 124.159 140.995 123.113 132.619C129.037 131.572 135.658 128.78 137.052 128.082C142.278 125.639 148.551 121.8 154.823 117.961C161.792 113.773 173.988 106.095 178.866 105.397C178.866 105.397 178.866 105.397 179.215 105.397C179.215 105.397 179.215 105.397 179.563 105.397C184.093 105.397 196.986 113.424 204.304 117.961C210.576 121.8 216.848 125.639 222.075 128.082C224.166 128.78 230.786 131.572 236.71 132.619Z" fill="#FF83AE"/>
<path d="M179.559 105.397V169.612H130.775C126.593 153.559 124.502 140.646 123.457 132.27C129.381 131.223 136.001 128.431 137.395 127.733C142.622 125.29 148.894 121.451 155.167 117.612C162.484 113.773 174.68 106.095 179.559 105.397Z" fill="url(#paint0_linear_1198_15734)"/>
<path d="M229.386 169.961C228.689 172.753 227.992 175.894 226.947 178.686C226.25 181.478 225.553 183.921 224.508 186.713C215.796 214.633 191.753 232.083 179.905 239.062C179.905 239.062 179.905 239.062 179.557 239.062V169.961H229.386Z" fill="url(#paint1_linear_1198_15734)"/>
<defs>
<filter id="filter0_d_1198_15734" x="78.6226" y="76.2554" width="202.571" height="224.901" filterUnits="userSpaceOnUse" color-interpolation-filters="sRGB">
<feFlood flood-opacity="0" result="BackgroundImageFix"/>
<feColorMatrix in="SourceAlpha" type="matrix" values="0 0 0 0 0 0 0 0 0 0 0 0 0 0 0 0 0 0 127 0" result="hardAlpha"/>
<feOffset dy="15.9964"/>
<feGaussianBlur stdDeviation="12.7971"/>
<feColorMatrix type="matrix" values="0 0 0 0 0.909804 0 0 0 0 0.0705882 0 0 0 0 0.360784 0 0 0 0.2 0"/>
<feBlend mode="normal" in2="BackgroundImageFix" result="effect1_dropShadow_1198_15734"/>
<feBlend mode="normal" in="SourceGraphic" in2="effect1_dropShadow_1198_15734" result="shape"/>
</filter>
<linearGradient id="paint0_linear_1198_15734" x1="123.706" y1="137.679" x2="179.814" y2="137.679" gradientUnits="userSpaceOnUse">
<stop offset="0.0113208" stop-color="#FFDADA"/>
<stop offset="1" stop-color="white"/>
</linearGradient>
<linearGradient id="paint1_linear_1198_15734" x1="211.361" y1="211.12" x2="173.268" y2="173.087" gradientUnits="userSpaceOnUse">
<stop offset="0.0113208" stop-color="#FFD6D6"/>
<stop offset="1" stop-color="white"/>
</linearGradient>
</defs>
</svg>