<svg width="145" height="116" viewBox="0 0 145 116" fill="none" xmlns="http://www.w3.org/2000/svg">
<path d="M82.5298 27.2549C94.6113 29.8174 104.486 38.2036 109.132 49.3853" stroke="#E8125C" stroke-width="3.61537" stroke-miterlimit="10" stroke-linecap="round" stroke-linejoin="round"/>
<path d="M65.3376 99.8197C49.4225 95.6266 37.5732 81.0671 37.5732 63.7122C37.5732 63.2463 37.5732 62.7804 37.5732 62.3145" stroke="#E8125C" stroke-width="3.61537" stroke-miterlimit="10" stroke-linecap="round" stroke-linejoin="round"/>
<path d="M101.234 68.2544L100.188 65.3425C99.9559 64.6436 99.2589 64.1777 98.5618 64.1777H80.2071C78.6969 64.1777 77.5352 65.3425 77.5352 66.8567V107.856V101.217H139.686V72.2146C139.686 70.7004 138.524 69.5356 137.014 69.5356H102.86C102.163 69.4191 101.466 68.9532 101.234 68.2544Z" fill="#BEBFBF"/>
<g filter="url(#filter0_d_1757_17986)">
<path d="M129.113 70.2347L129.578 106.459C129.578 107.74 128.533 108.672 127.371 108.672H92.1717C90.8939 108.672 89.9645 107.623 89.9645 106.459V59.8683C89.9645 58.5871 91.01 57.6553 92.1717 57.6553H117.729L129.113 70.2347Z" fill="white"/>
</g>
<path d="M123.073 95.277H101.931C101.698 95.277 101.35 95.0441 101.35 94.6946C101.35 94.3452 101.582 94.1122 101.931 94.1122H123.073C123.306 94.1122 123.654 94.3452 123.654 94.6946C123.654 95.0441 123.306 95.277 123.073 95.277Z" fill="#CED7E2"/>
<path d="M99.3739 95.277H95.6565C95.4242 95.277 95.0757 95.0441 95.0757 94.6946C95.0757 94.3452 95.308 94.1122 95.6565 94.1122H99.3739C99.6063 94.1122 99.9548 94.3452 99.9548 94.6946C99.9548 95.0441 99.7224 95.277 99.3739 95.277Z" fill="#CED7E2"/>
<path d="M123.073 89.57H113.663C113.431 89.57 113.082 89.3371 113.082 88.9877C113.082 88.6382 113.314 88.4053 113.663 88.4053H123.073C123.305 88.4053 123.653 88.6382 123.653 88.9877C123.653 89.3371 123.305 89.57 123.073 89.57Z" fill="#CED7E2"/>
<path d="M109.597 89.57H95.8886C95.6563 89.57 95.3078 89.3371 95.3078 88.9877C95.3078 88.6382 95.5401 88.4053 95.8886 88.4053H109.597C109.829 88.4053 110.177 88.6382 110.177 88.9877C110.177 89.3371 109.945 89.57 109.597 89.57Z" fill="#CED7E2"/>
<path d="M123.189 83.862H119.588C119.355 83.862 119.007 83.6291 119.007 83.2796C119.007 83.0467 119.239 82.6973 119.588 82.6973H123.189C123.421 82.6973 123.77 82.9302 123.77 83.2796C123.77 83.6291 123.537 83.862 123.189 83.862Z" fill="#CED7E2"/>
<path d="M116.218 83.862H96.0051C95.7727 83.862 95.4242 83.6291 95.4242 83.2796C95.4242 83.0467 95.6566 82.6973 96.0051 82.6973H116.218C116.451 82.6973 116.799 82.9302 116.799 83.2796C116.683 83.6291 116.451 83.862 116.218 83.862Z" fill="#CED7E2"/>
<path d="M107.042 101.567H105.764C105.532 101.567 105.183 101.334 105.183 100.985C105.183 100.635 105.416 100.402 105.764 100.402H107.042C107.274 100.402 107.623 100.635 107.623 100.985C107.623 101.334 107.39 101.567 107.042 101.567Z" fill="#CED7E2"/>
<path d="M103.556 101.567H96.1215C95.8892 101.567 95.5407 101.334 95.5407 100.985C95.5407 100.635 95.773 100.402 96.1215 100.402H103.556C103.789 100.402 104.137 100.635 104.137 100.985C104.137 101.334 103.789 101.567 103.556 101.567Z" fill="#CED7E2"/>
<path d="M123.421 78.155H110.41C110.178 78.155 109.829 77.9221 109.829 77.5726C109.829 77.2232 110.062 76.9903 110.41 76.9903H123.421C123.653 76.9903 124.002 77.2232 124.002 77.5726C124.002 77.9221 123.653 78.155 123.421 78.155Z" fill="#CED7E2"/>
<path d="M106.229 78.155H96.238C96.0057 78.155 95.6572 77.9221 95.6572 77.5726C95.6572 77.2232 95.8895 76.9903 96.238 76.9903H106.229C106.461 76.9903 106.809 77.2232 106.809 77.5726C106.809 77.9221 106.577 78.155 106.229 78.155Z" fill="#CED7E2"/>
<path d="M113.315 65.2258H96.3541C96.0056 65.2258 95.6571 64.8764 95.6571 64.527C95.6571 64.1776 96.0056 63.8281 96.3541 63.8281H113.199C113.547 63.8281 113.896 64.1776 113.896 64.527C113.896 64.8764 113.663 65.2258 113.315 65.2258Z" fill="#CED7E2"/>
<path d="M102.86 69.303H96.3541C96.0056 69.303 95.6571 68.9536 95.6571 68.6041C95.6571 68.2547 96.0056 67.9053 96.3541 67.9053H102.86C103.208 67.9053 103.557 68.2547 103.557 68.6041C103.557 68.9536 103.208 69.303 102.86 69.303Z" fill="#CED7E2"/>
<path d="M117.73 57.6553V67.6722C117.73 69.0699 118.891 70.2347 120.286 70.2347H129.114" fill="#CED7E2"/>
<path d="M97.5566 85.0273H84.8206C84.1917 85.0273 83.6414 84.4786 83.6414 83.8514V78.05C83.6414 77.4228 84.1917 76.874 84.8206 76.874H97.5566C98.1856 76.874 98.7359 77.4228 98.7359 78.05V83.8514C98.8145 84.4786 98.2642 85.0273 97.5566 85.0273Z" fill="#F04B98"/>
<g filter="url(#filter1_d_1757_17986)">
<path d="M139.359 83.7853L134.949 102.858C134.648 103.984 133.245 104.828 131.641 104.828H83.6303C82.0266 104.828 80.6234 103.984 80.3227 102.858L76.7144 87.2338C76.4137 86.0374 77.7167 84.9817 79.4206 84.9817H106.483C107.285 84.9817 107.987 84.6298 108.287 84.0668L109.089 82.4481C109.39 81.8851 110.091 81.5332 110.893 81.5332H136.653C138.357 81.5332 139.66 82.5889 139.359 83.7853Z" fill="#2D5887"/>
</g>
<path d="M144.564 80.9509L139.453 112.516C139.104 114.379 137.478 115.777 135.619 115.777H79.9743C78.1156 115.777 76.4893 114.379 76.1408 112.516L71.9587 86.6582C71.6102 84.6781 73.1204 82.931 75.0952 82.931H106.461C107.39 82.931 108.203 82.3486 108.552 81.4168L109.481 78.7378C109.83 77.806 110.643 77.2236 111.572 77.2236H141.428C143.403 77.2236 144.913 78.9708 144.564 80.9509Z" fill="#DDEDFF"/>
<path d="M79.3932 98.7711L78.3476 92.8309C78.2315 92.0155 78.8123 91.2002 79.5093 91.2002H97.864C98.561 91.2002 99.0257 91.7826 99.0257 92.4814L99.2581 98.4217C99.2581 99.1206 98.7934 99.8194 98.0964 99.8194H80.671C80.0902 99.8194 79.5093 99.3535 79.3932 98.7711Z" fill="#E8125C"/>
<path d="M96.5861 94.4611H81.0194C80.7871 94.4611 80.5548 94.2282 80.5548 93.9952C80.5548 93.7623 80.7871 93.5293 81.0194 93.5293H96.4699C96.7023 93.5293 96.9346 93.7623 96.9346 93.9952C97.0508 94.2282 96.8184 94.4611 96.5861 94.4611Z" fill="white"/>
<path d="M91.2427 97.3732H81.833C81.6007 97.3732 81.3683 97.1403 81.3683 96.9073C81.3683 96.6744 81.6007 96.4414 81.833 96.4414H91.2427C91.4751 96.4414 91.7074 96.6744 91.7074 96.9073C91.7074 97.1403 91.5912 97.3732 91.2427 97.3732Z" fill="white"/>
<path d="M29.9048 4.07666L28.8593 1.16476C28.6269 0.465903 27.9299 0 27.1167 0H8.5297C7.0195 0 5.74164 1.28123 5.74164 2.79542V44.7267V37.8547H69.2861V8.15331C69.2861 6.63913 68.0082 5.35789 66.498 5.35789H31.6473C30.9503 5.35789 30.2533 4.89199 29.9048 4.07666Z" fill="#BFBFBF"/>
<path d="M74.166 17.0059L68.9384 49.2697C68.5898 51.1333 66.9635 52.6475 64.9886 52.6475H8.29812C6.32324 52.6475 4.69688 51.2498 4.34837 49.2697L0.0501162 22.9461C-0.298391 20.966 1.21181 19.1024 3.30285 19.1024H35.2493C36.1787 19.1024 37.108 18.52 37.3404 17.5882L38.2697 14.7928C38.6182 13.861 39.4314 13.2786 40.3608 13.2786H70.9132C73.0043 13.1621 74.5145 15.0258 74.166 17.0059Z" fill="#DDEDFF"/>
<path d="M7.71682 35.1757L6.67129 29.119C6.55512 28.3036 7.13597 27.4883 7.83298 27.4883H26.5362C27.2332 27.4883 27.6979 28.0707 27.6979 28.7695L27.9302 34.8263C27.9302 35.6416 27.3494 36.224 26.7685 36.224H8.87851C8.29766 36.224 7.83298 35.8746 7.71682 35.1757Z" fill="#E8125C"/>
<path d="M25.143 30.866H9.46019C9.22785 30.866 8.99551 30.633 8.99551 30.2836C8.99551 29.9342 9.22785 29.7012 9.46019 29.7012H25.2592C25.4915 29.7012 25.7239 29.9342 25.7239 30.2836C25.6077 30.633 25.4915 30.866 25.143 30.866Z" fill="white"/>
<path d="M19.7986 33.778H10.1565C9.92419 33.778 9.69185 33.545 9.69185 33.1956C9.69185 32.8462 9.92419 32.6132 10.1565 32.6132H19.7986C20.0309 32.6132 20.2632 32.8462 20.2632 33.1956C20.2632 33.545 20.1471 33.778 19.7986 33.778Z" fill="white"/>
<path d="M83.925 32.8458L80.0914 26.789L86.1322 22.9453" stroke="#E8125C" stroke-width="3.61537" stroke-miterlimit="10" stroke-linecap="round" stroke-linejoin="round"/>
<path d="M63.8273 93.7627L66.8477 100.285L60.3422 103.43" stroke="#E8125C" stroke-width="3.61537" stroke-miterlimit="10" stroke-linecap="round" stroke-linejoin="round"/>
<defs>
<filter id="filter0_d_1757_17986" x="82.7338" y="48.0143" width="54.0751" height="65.4779" filterUnits="userSpaceOnUse" color-interpolation-filters="sRGB">
<feFlood flood-opacity="0" result="BackgroundImageFix"/>
<feColorMatrix in="SourceAlpha" type="matrix" values="0 0 0 0 0 0 0 0 0 0 0 0 0 0 0 0 0 0 127 0" result="hardAlpha"/>
<feOffset dy="-2.41024"/>
<feGaussianBlur stdDeviation="3.61537"/>
<feColorMatrix type="matrix" values="0 0 0 0 0.397708 0 0 0 0 0.47749 0 0 0 0 0.575 0 0 0 0.11 0"/>
<feBlend mode="normal" in2="BackgroundImageFix" result="effect1_dropShadow_1757_17986"/>
<feBlend mode="normal" in="SourceGraphic" in2="effect1_dropShadow_1757_17986" result="shape"/>
</filter>
<filter id="filter1_d_1757_17986" x="74.2608" y="68.2769" width="67.5517" height="36.5515" filterUnits="userSpaceOnUse" color-interpolation-filters="sRGB">
<feFlood flood-opacity="0" result="BackgroundImageFix"/>
<feColorMatrix in="SourceAlpha" type="matrix" values="0 0 0 0 0 0 0 0 0 0 0 0 0 0 0 0 0 0 127 0" result="hardAlpha"/>
<feOffset dy="-10.8461"/>
<feGaussianBlur stdDeviation="1.20512"/>
<feColorMatrix type="matrix" values="0 0 0 0 0.397708 0 0 0 0 0.47749 0 0 0 0 0.575 0 0 0 0.18 0"/>
<feBlend mode="normal" in2="BackgroundImageFix" result="effect1_dropShadow_1757_17986"/>
<feBlend mode="normal" in="SourceGraphic" in2="effect1_dropShadow_1757_17986" result="shape"/>
</filter>
</defs>
</svg>