<svg width="25" height="24" viewBox="0 0 25 24" fill="none" xmlns="http://www.w3.org/2000/svg">
<g clip-path="url(#clip0_1198_15682)">
<path d="M13.246 1.46397L16.356 7.76397L23.31 8.77597C23.4636 8.79812 23.6079 8.86283 23.7266 8.96279C23.8453 9.06275 23.9337 9.19395 23.9817 9.34154C24.0296 9.48912 24.0353 9.6472 23.9981 9.79785C23.9609 9.94851 23.8822 10.0857 23.771 10.194L18.738 15.094L19.926 22.02C19.9522 22.1729 19.9351 22.3302 19.8766 22.474C19.8181 22.6177 19.7205 22.7423 19.595 22.8335C19.4694 22.9247 19.3208 22.979 19.166 22.9902C19.0112 23.0015 18.8564 22.9692 18.719 22.897L12.5 19.632L6.27997 22.9C6.14245 22.9718 5.98759 23.0039 5.83285 22.9924C5.6781 22.981 5.52963 22.9266 5.40415 22.8353C5.27867 22.744 5.18118 22.6195 5.12267 22.4758C5.06415 22.3321 5.04694 22.1749 5.07297 22.022L6.26097 15.1L1.22797 10.2C1.11675 10.0917 1.03807 9.95451 1.00084 9.80385C0.963602 9.6532 0.969297 9.49512 1.01728 9.34754C1.06526 9.19995 1.15361 9.06875 1.27232 8.96879C1.39103 8.86883 1.53536 8.80412 1.68897 8.78197L8.64296 7.76497L11.753 1.46497C11.8218 1.3258 11.9281 1.20862 12.0599 1.12665C12.1918 1.04469 12.3439 1.0012 12.4992 1.0011C12.6544 1.00099 12.8066 1.04428 12.9385 1.12606C13.0705 1.20785 13.177 1.32489 13.246 1.46397Z" fill="#E8125C"/>
</g>
<defs>
<clipPath id="clip0_1198_15682">
<rect width="24" height="24" fill="white" transform="translate(0.5)"/>
</clipPath>
</defs>
</svg>