<svg width="64" height="64" viewBox="0 0 64 64" fill="none" xmlns="http://www.w3.org/2000/svg">
<mask id="path-1-outside-1_1198_17361" maskUnits="userSpaceOnUse" x="10.4297" y="15.4285" width="47" height="41" fill="black">
<rect fill="white" x="10.4297" y="15.4285" width="47" height="41"/>
<path d="M52.4118 16.4285H15.4475C14.3824 16.4299 13.3611 16.8536 12.6078 17.6065C11.8548 18.3599 11.4312 19.3812 11.4297 20.4463V50.982C11.4311 52.0472 11.8548 53.0685 12.6078 53.8218C13.3611 54.5748 14.3824 54.9984 15.4475 54.9999H52.4118C53.4769 54.9985 54.4983 54.5748 55.2516 53.8218C56.0046 53.0685 56.4282 52.0472 56.4297 50.982V20.4463C56.4282 19.3812 56.0046 18.3599 55.2516 17.6065C54.4983 16.8536 53.4769 16.4299 52.4118 16.4285ZM54.8225 50.982C54.8225 51.6213 54.5686 52.2348 54.1165 52.6867C53.6645 53.1386 53.0511 53.3927 52.4119 53.3927H15.4476C14.8083 53.3927 14.1948 53.1387 13.7429 52.6867C13.291 52.2347 13.0369 51.6212 13.0369 50.982V24.4642H54.8455C55.2893 24.4642 55.6491 24.1044 55.6491 23.6606C55.6491 23.2169 55.2893 22.857 54.8455 22.857H13.0369V20.4463C13.0369 19.8071 13.2909 19.1936 13.7429 18.7417C14.1949 18.2897 14.8084 18.0357 15.4476 18.0357H52.4119C53.0511 18.0357 53.6646 18.2896 54.1165 18.7417C54.5685 19.1937 54.8225 19.8071 54.8225 20.4463V50.982Z"/>
</mask>
<path d="M52.4118 16.4285H15.4475C14.3824 16.4299 13.3611 16.8536 12.6078 17.6065C11.8548 18.3599 11.4312 19.3812 11.4297 20.4463V50.982C11.4311 52.0472 11.8548 53.0685 12.6078 53.8218C13.3611 54.5748 14.3824 54.9984 15.4475 54.9999H52.4118C53.4769 54.9985 54.4983 54.5748 55.2516 53.8218C56.0046 53.0685 56.4282 52.0472 56.4297 50.982V20.4463C56.4282 19.3812 56.0046 18.3599 55.2516 17.6065C54.4983 16.8536 53.4769 16.4299 52.4118 16.4285ZM54.8225 50.982C54.8225 51.6213 54.5686 52.2348 54.1165 52.6867C53.6645 53.1386 53.0511 53.3927 52.4119 53.3927H15.4476C14.8083 53.3927 14.1948 53.1387 13.7429 52.6867C13.291 52.2347 13.0369 51.6212 13.0369 50.982V24.4642H54.8455C55.2893 24.4642 55.6491 24.1044 55.6491 23.6606C55.6491 23.2169 55.2893 22.857 54.8455 22.857H13.0369V20.4463C13.0369 19.8071 13.2909 19.1936 13.7429 18.7417C14.1949 18.2897 14.8084 18.0357 15.4476 18.0357H52.4119C53.0511 18.0357 53.6646 18.2896 54.1165 18.7417C54.5685 19.1937 54.8225 19.8071 54.8225 20.4463V50.982Z" fill="#272E35"/>
<path d="M52.4118 16.4285L52.4126 15.8785H52.4118V16.4285ZM15.4475 16.4285V15.8785L15.4468 15.8785L15.4475 16.4285ZM12.6078 17.6065L12.219 17.2175L12.2188 17.2177L12.6078 17.6065ZM11.4297 20.4463L10.8797 20.4456V20.4463H11.4297ZM11.4297 50.982H10.8797L10.8797 50.9828L11.4297 50.982ZM12.6078 53.8218L12.2188 54.2106L12.219 54.2108L12.6078 53.8218ZM15.4475 54.9999L15.4468 55.5499H15.4475V54.9999ZM52.4118 54.9999V55.5499H52.4126L52.4118 54.9999ZM55.2516 53.8218L55.6404 54.2108L55.6406 54.2106L55.2516 53.8218ZM56.4297 50.982L56.9797 50.9828V50.982H56.4297ZM56.4297 20.4463H56.9797V20.4456L56.4297 20.4463ZM55.2516 17.6065L55.6406 17.2177L55.6404 17.2175L55.2516 17.6065ZM13.0369 24.4642V23.9142H12.4869V24.4642H13.0369ZM13.0369 22.857H12.4869V23.407H13.0369V22.857ZM52.4118 15.8785H15.4475V16.9785H52.4118V15.8785ZM15.4468 15.8785C14.2361 15.8801 13.0753 16.3617 12.219 17.2175L12.9966 17.9955C13.647 17.3455 14.5287 16.9797 15.4483 16.9785L15.4468 15.8785ZM12.2188 17.2177C11.3629 18.0741 10.8814 19.2349 10.8797 20.4456L11.9797 20.4471C11.981 19.5275 12.3467 18.6457 12.9968 17.9954L12.2188 17.2177ZM10.8797 20.4463V50.982H11.9797V20.4463H10.8797ZM10.8797 50.9828C10.8813 52.1935 11.3629 53.3543 12.2188 54.2106L12.9968 53.433C12.3467 52.7826 11.9809 51.9009 11.9797 50.9813L10.8797 50.9828ZM12.219 54.2108C13.0753 55.0667 14.2361 55.5482 15.4468 55.5499L15.4483 54.4499C14.5287 54.4486 13.647 54.0829 12.9966 53.4328L12.219 54.2108ZM15.4475 55.5499H52.4118V54.4499H15.4475V55.5499ZM52.4126 55.5499C53.6232 55.5483 54.7841 55.0667 55.6404 54.2108L54.8628 53.4328C54.2124 54.0829 53.3307 54.4487 52.4111 54.4499L52.4126 55.5499ZM55.6406 54.2106C56.4965 53.3543 56.978 52.1934 56.9797 50.9828L55.8797 50.9813C55.8784 51.9009 55.5127 52.7826 54.8626 53.433L55.6406 54.2106ZM56.9797 50.982V20.4463H55.8797V50.982H56.9797ZM56.9797 20.4456C56.9781 19.2349 56.4965 18.074 55.6406 17.2177L54.8626 17.9954C55.5127 18.6457 55.8784 19.5275 55.8797 20.4471L56.9797 20.4456ZM55.6404 17.2175C54.7841 16.3616 53.6232 15.8801 52.4126 15.8785L52.4111 16.9785C53.3307 16.9797 54.2124 17.3455 54.8628 17.9955L55.6404 17.2175ZM54.2725 50.982C54.2725 51.4755 54.0764 51.9491 53.7277 52.2978L54.5054 53.0756C55.0607 52.5205 55.3725 51.7671 55.3725 50.982H54.2725ZM53.7277 52.2978C53.3788 52.6466 52.9052 52.8427 52.4119 52.8427V53.9427C53.1969 53.9427 53.9503 53.6307 54.5054 53.0756L53.7277 52.2978ZM52.4119 52.8427H15.4476V53.9427H52.4119V52.8427ZM15.4476 52.8427C14.9541 52.8427 14.4806 52.6466 14.1319 52.2978L13.354 53.0756C13.9091 53.6308 14.6625 53.9427 15.4476 53.9427V52.8427ZM14.1319 52.2978C13.7831 51.949 13.5869 51.4754 13.5869 50.982H12.4869C12.4869 51.7671 12.7989 52.5204 13.354 53.0756L14.1319 52.2978ZM13.5869 50.982V24.4642H12.4869V50.982H13.5869ZM13.0369 25.0142H54.8455V23.9142H13.0369V25.0142ZM54.8455 25.0142C55.593 25.0142 56.1991 24.4081 56.1991 23.6606H55.0991C55.0991 23.8006 54.9855 23.9142 54.8455 23.9142V25.0142ZM56.1991 23.6606C56.1991 22.9131 55.593 22.307 54.8455 22.307V23.407C54.9855 23.407 55.0991 23.5206 55.0991 23.6606H56.1991ZM54.8455 22.307H13.0369V23.407H54.8455V22.307ZM13.5869 22.857V20.4463H12.4869V22.857H13.5869ZM13.5869 20.4463C13.5869 19.9528 13.783 19.4793 14.1318 19.1306L13.354 18.3527C12.7988 18.9079 12.4869 19.6613 12.4869 20.4463H13.5869ZM14.1318 19.1306C14.4807 18.7818 14.9543 18.5857 15.4476 18.5857V17.4857C14.6626 17.4857 13.9092 17.7976 13.354 18.3527L14.1318 19.1306ZM15.4476 18.5857H52.4119V17.4857H15.4476V18.5857ZM52.4119 18.5857C52.9054 18.5857 53.3789 18.7818 53.7276 19.1305L54.5055 18.3528C53.9503 17.7975 53.1969 17.4857 52.4119 17.4857V18.5857ZM53.7276 19.1305C54.0764 19.4794 54.2725 19.953 54.2725 20.4463H55.3725C55.3725 19.6613 55.0605 18.9079 54.5055 18.3528L53.7276 19.1305ZM54.2725 20.4463V50.982H55.3725V20.4463H54.2725Z" fill="#272E35" mask="url(#path-1-outside-1_1198_17361)"/>
<mask id="path-3-outside-2_1198_17361" maskUnits="userSpaceOnUse" x="4" y="9" width="47" height="41" fill="black">
<rect fill="white" x="4" y="9" width="47" height="41"/>
<path d="M45.9821 10H9.01786C7.95273 10.0014 6.93142 10.4251 6.17808 11.1781C5.42509 11.9314 5.00147 12.9527 5 14.0179V44.5536C5.00143 45.6187 5.4251 46.64 6.17808 47.3933C6.93143 48.1463 7.95273 48.57 9.01786 48.5714H11.75C12.1938 48.5714 12.5536 48.2116 12.5536 47.7679C12.5536 47.3241 12.1938 46.9643 11.75 46.9643H9.01786C8.37859 46.9643 7.76511 46.7103 7.31318 46.2583C6.86126 45.8063 6.60719 45.1928 6.60719 44.5536V18.0358H15.0561C15.4999 18.0358 15.8597 17.6759 15.8597 17.2322C15.8597 16.7884 15.4999 16.4286 15.0561 16.4286H6.60719V14.0179C6.60719 13.3786 6.86117 12.7652 7.31318 12.3132C7.76519 11.8613 8.37867 11.6072 9.01786 11.6072H45.9821C46.6214 11.6072 47.2349 11.8612 47.6868 12.3132C48.1387 12.7652 48.3928 13.3787 48.3928 14.0179V16.4974C48.3928 16.9412 48.7526 17.301 49.1964 17.301C49.6401 17.301 49.9999 16.9412 49.9999 16.4974V14.0179C49.9985 12.9528 49.5748 11.9315 48.8219 11.1781C48.0685 10.4251 47.0473 10.0015 45.9821 10Z"/>
</mask>
<path d="M45.9821 10H9.01786C7.95273 10.0014 6.93142 10.4251 6.17808 11.1781C5.42509 11.9314 5.00147 12.9527 5 14.0179V44.5536C5.00143 45.6187 5.4251 46.64 6.17808 47.3933C6.93143 48.1463 7.95273 48.57 9.01786 48.5714H11.75C12.1938 48.5714 12.5536 48.2116 12.5536 47.7679C12.5536 47.3241 12.1938 46.9643 11.75 46.9643H9.01786C8.37859 46.9643 7.76511 46.7103 7.31318 46.2583C6.86126 45.8063 6.60719 45.1928 6.60719 44.5536V18.0358H15.0561C15.4999 18.0358 15.8597 17.6759 15.8597 17.2322C15.8597 16.7884 15.4999 16.4286 15.0561 16.4286H6.60719V14.0179C6.60719 13.3786 6.86117 12.7652 7.31318 12.3132C7.76519 11.8613 8.37867 11.6072 9.01786 11.6072H45.9821C46.6214 11.6072 47.2349 11.8612 47.6868 12.3132C48.1387 12.7652 48.3928 13.3787 48.3928 14.0179V16.4974C48.3928 16.9412 48.7526 17.301 49.1964 17.301C49.6401 17.301 49.9999 16.9412 49.9999 16.4974V14.0179C49.9985 12.9528 49.5748 11.9315 48.8219 11.1781C48.0685 10.4251 47.0473 10.0015 45.9821 10Z" fill="#272E35"/>
<path d="M45.9821 10L45.9829 9.45H45.9821V10ZM9.01786 10V9.45L9.01712 9.45L9.01786 10ZM6.17808 11.1781L5.78927 10.7891L5.78908 10.7893L6.17808 11.1781ZM5 14.0179L4.45 14.0171V14.0179H5ZM5 44.5536H4.45L4.45 44.5543L5 44.5536ZM6.17808 47.3933L5.78908 47.7822L5.78927 47.7823L6.17808 47.3933ZM9.01786 48.5714L9.0171 49.1214H9.01786V48.5714ZM6.60719 18.0358V17.4858H6.05719V18.0358H6.60719ZM6.60719 16.4286H6.05719V16.9786H6.60719V16.4286ZM49.9999 14.0179H50.5499V14.0172L49.9999 14.0179ZM48.8219 11.1781L49.2109 10.7893L49.2107 10.7891L48.8219 11.1781ZM45.9821 9.45H9.01786V10.55H45.9821V9.45ZM9.01712 9.45C7.80644 9.45163 6.64557 9.93319 5.78927 10.7891L6.5669 11.5671C7.21727 10.917 8.09903 10.5512 9.0186 10.55L9.01712 9.45ZM5.78908 10.7893C4.93317 11.6456 4.45167 12.8064 4.45 14.0171L5.55 14.0186C5.55127 13.099 5.91702 12.2173 6.56708 11.5669L5.78908 10.7893ZM4.45 14.0179V44.5536H5.55V14.0179H4.45ZM4.45 44.5543C4.45163 45.765 4.93319 46.9259 5.78908 47.7822L6.56708 47.0045C5.91702 46.3542 5.55124 45.4724 5.55 44.5528L4.45 44.5543ZM5.78927 47.7823C6.64559 48.6383 7.80645 49.1198 9.0171 49.1214L9.01862 48.0214C8.09902 48.0202 7.21727 47.6544 6.5669 47.0043L5.78927 47.7823ZM9.01786 49.1214H11.75V48.0214H9.01786V49.1214ZM11.75 49.1214C12.4975 49.1214 13.1036 48.5154 13.1036 47.7679H12.0036C12.0036 47.9078 11.89 48.0214 11.75 48.0214V49.1214ZM13.1036 47.7679C13.1036 47.0203 12.4975 46.4143 11.75 46.4143V47.5143C11.89 47.5143 12.0036 47.6279 12.0036 47.7679H13.1036ZM11.75 46.4143H9.01786V47.5143H11.75V46.4143ZM9.01786 46.4143C8.52437 46.4143 8.05084 46.2182 7.70213 45.8694L6.92424 46.6472C7.47939 47.2024 8.23281 47.5143 9.01786 47.5143V46.4143ZM7.70213 45.8694C7.35333 45.5205 7.15719 45.047 7.15719 44.5536H6.05719C6.05719 45.3386 6.36918 46.092 6.92424 46.6472L7.70213 45.8694ZM7.15719 44.5536V18.0358H6.05719V44.5536H7.15719ZM6.60719 18.5858H15.0561V17.4858H6.60719V18.5858ZM15.0561 18.5858C15.8036 18.5858 16.4097 17.9797 16.4097 17.2322H15.3097C15.3097 17.3722 15.1961 17.4858 15.0561 17.4858V18.5858ZM16.4097 17.2322C16.4097 16.4847 15.8036 15.8786 15.0561 15.8786V16.9786C15.1961 16.9786 15.3097 17.0922 15.3097 17.2322H16.4097ZM15.0561 15.8786H6.60719V16.9786H15.0561V15.8786ZM7.15719 16.4286V14.0179H6.05719V16.4286H7.15719ZM7.15719 14.0179C7.15719 13.5244 7.35329 13.0509 7.70206 12.7022L6.92431 11.9243C6.36906 12.4794 6.05719 13.2329 6.05719 14.0179H7.15719ZM7.70206 12.7022C8.05092 12.3534 8.52452 12.1572 9.01786 12.1572V11.0572C8.23283 11.0572 7.47947 11.3692 6.92431 11.9243L7.70206 12.7022ZM9.01786 12.1572H45.9821V11.0572H9.01786V12.1572ZM45.9821 12.1572C46.4756 12.1572 46.9492 12.3533 47.2979 12.7021L48.0758 11.9244C47.5206 11.3691 46.7672 11.0572 45.9821 11.0572V12.1572ZM47.2979 12.7021C47.6467 13.051 47.8428 13.5246 47.8428 14.0179H48.9428C48.9428 13.2329 48.6308 12.4795 48.0758 11.9244L47.2979 12.7021ZM47.8428 14.0179V16.4974H48.9428V14.0179H47.8428ZM47.8428 16.4974C47.8428 17.245 48.4489 17.851 49.1964 17.851V16.751C49.0564 16.751 48.9428 16.6374 48.9428 16.4974H47.8428ZM49.1964 17.851C49.9439 17.851 50.5499 17.245 50.5499 16.4974H49.4499C49.4499 16.6374 49.3364 16.751 49.1964 16.751V17.851ZM50.5499 16.4974V14.0179H49.4499V16.4974H50.5499ZM50.5499 14.0172C50.5483 12.8065 50.0668 11.6456 49.2109 10.7893L48.4329 11.5669C49.0829 12.2173 49.4487 13.0991 49.4499 14.0186L50.5499 14.0172ZM49.2107 10.7891C48.3544 9.93323 47.1936 9.45167 45.9829 9.45L45.9814 10.55C46.901 10.5513 47.7827 10.9171 48.4331 11.5671L49.2107 10.7891Z" fill="#272E35" mask="url(#path-3-outside-2_1198_17361)"/>
<path d="M32.5 45C32.5 45.8284 33.1716 46.5 34 46.5C34.8284 46.5 35.5 45.8284 35.5 45H32.5ZM35.5 33C35.5 32.1716 34.8284 31.5 34 31.5C33.1716 31.5 32.5 32.1716 32.5 33H35.5ZM35.5 45V33H32.5V45H35.5Z" fill="#272E35"/>
<path d="M28 37.5C27.1716 37.5 26.5 38.1716 26.5 39C26.5 39.8284 27.1716 40.5 28 40.5L28 37.5ZM40 40.5C40.8284 40.5 41.5 39.8284 41.5 39C41.5 38.1716 40.8284 37.5 40 37.5L40 40.5ZM28 40.5L40 40.5L40 37.5L28 37.5L28 40.5Z" fill="#272E35"/>
</svg>