<svg width="64" height="64" viewBox="0 0 64 64" fill="none" xmlns="http://www.w3.org/2000/svg">
<path fill-rule="evenodd" clip-rule="evenodd" d="M32.9368 13.8836V31.0734C32.9368 31.8612 32.2995 32.5 31.5008 32.5C30.7076 32.5 30.0648 31.8608 30.0648 31.0734V13.8794L28.032 15.9041C27.4764 16.4568 26.5751 16.4565 26.0103 15.8947C25.4497 15.3368 25.4528 14.429 26.001 13.8836L30.4923 9.41326C30.7688 9.13847 31.1303 9.00024 31.4936 9L31.5047 9.0043C31.8694 9.00502 32.2319 9.14206 32.5046 9.41327L37 13.8836C37.5556 14.4363 37.5554 15.3329 36.9906 15.8947C36.43 16.4527 35.5173 16.4493 34.9692 15.9041L32.9368 13.8836Z" fill="#272E35"/>
<path d="M22.7586 21H15C13.3431 21 12 22.3431 12 24V27V50C12 51.6569 13.3431 53 15 53H48C49.6569 53 51 51.6569 51 50V24C51 22.3431 49.6569 21 48 21H40.2414" stroke="#272E35" stroke-width="3" stroke-linecap="round"/>
</svg>