<svg width="468" height="356" viewBox="0 0 468 356" fill="none" xmlns="http://www.w3.org/2000/svg">
<path d="M467 11.2552V257.745C467 264.123 463.227 269 458.292 269H165.708C160.773 269 157 264.123 157 257.745V11.2552C157 4.87727 160.773 0 165.708 0H458.292C463.227 0 467 4.87727 467 11.2552Z" fill="white"/>
<path d="M467 11.1526V24H157V11.1526C157 4.83278 160.773 0 165.708 0H458.292C462.936 0 467 4.83278 467 11.1526Z" fill="url(#paint0_linear_1198_15971)"/>
<circle cx="170.552" cy="11.8651" r="3.38804" fill="#FDFDFD"/>
<circle opacity="0.6" cx="180.716" cy="11.8651" r="3.38804" fill="#FDFDFD"/>
<circle opacity="0.4" cx="190.88" cy="11.8651" r="3.38804" fill="#FDFDFD"/>
<path d="M432.488 252.668H278.694C274.961 252.668 271.975 249.667 271.975 245.917V51.267C271.975 47.5165 274.961 44.5161 278.694 44.5161H432.488C436.221 44.5161 439.207 47.5165 439.207 51.267V245.917C439.207 249.667 436.221 252.668 432.488 252.668Z" fill="white"/>
<path d="M417.928 199.787H294.744C291.757 199.787 289.518 197.536 289.518 194.536V115.776C289.518 112.775 291.757 110.525 294.744 110.525H417.555C420.541 110.525 422.781 112.775 422.781 115.776V194.536C423.154 197.536 420.914 199.787 417.928 199.787Z" fill="#E6EDF5"/>
<path d="M361.558 187.785H304.445L333.188 155.531L361.558 187.785Z" fill="#CED7E2"/>
<path d="M408.224 187.785H326.475L367.536 141.279L408.224 187.785Z" fill="white"/>
<path d="M326.097 143.529C332.075 143.529 336.922 138.66 336.922 132.653C336.922 126.646 332.075 121.776 326.097 121.776C320.118 121.776 315.271 126.646 315.271 132.653C315.271 138.66 320.118 143.529 326.097 143.529Z" fill="#CED7E2"/>
<path d="M421.663 65.1441H291.386C289.893 65.1441 289.146 64.019 289.146 62.8939C289.146 61.3937 290.266 60.6436 291.386 60.6436H421.29C422.783 60.6436 423.53 61.7687 423.53 62.8939C423.903 64.019 422.783 65.1441 421.663 65.1441Z" fill="#E6EDF5"/>
<path d="M421.663 78.6458H291.386C289.893 78.6458 289.146 77.5207 289.146 76.3955C289.146 74.8954 290.266 74.1453 291.386 74.1453H421.29C422.783 74.1453 423.53 75.2704 423.53 76.3955C423.903 77.5207 422.783 78.6458 421.663 78.6458Z" fill="#E6EDF5"/>
<path d="M385.081 220.038H291.386C289.893 220.038 289.146 218.913 289.146 217.788C289.146 216.288 290.266 215.538 291.386 215.538H385.081C386.574 215.538 387.321 216.663 387.321 217.788C387.321 218.913 386.201 220.038 385.081 220.038Z" fill="#E6EDF5"/>
<path d="M357.085 93.2723H291.386C289.893 93.2723 289.146 92.1472 289.146 91.022C289.146 89.5218 290.266 88.7717 291.386 88.7717H356.711C358.204 88.7717 358.951 89.8969 358.951 91.022C359.324 92.1472 358.204 93.2723 357.085 93.2723Z" fill="url(#paint1_linear_1198_15971)"/>
<path d="M421.663 233.916H291.386C289.893 233.916 289.146 232.79 289.146 231.665C289.146 230.165 290.266 229.415 291.386 229.415H421.29C422.783 229.415 423.53 230.54 423.53 231.665C423.903 232.79 422.783 233.916 421.663 233.916Z" fill="#E6EDF5"/>
<path d="M421.658 220.038H396.275C394.782 220.038 394.035 218.913 394.035 217.788C394.035 216.288 395.155 215.538 396.275 215.538H421.658C423.151 215.538 423.898 216.663 423.898 217.788C423.898 218.913 422.778 220.038 421.658 220.038Z" fill="url(#paint2_linear_1198_15971)"/>
<path d="M250.695 251.543H179.398C174.918 251.543 171.559 248.168 171.559 243.667V51.2674C171.559 46.7668 174.918 43.3914 179.398 43.3914H250.322C254.801 43.3914 258.161 46.7668 258.161 51.2674V243.667C258.534 248.168 254.801 251.543 250.695 251.543Z" fill="#1C3754"/>
<path d="M215.236 69.6448C219.978 69.6448 223.822 65.7828 223.822 61.0187C223.822 56.2546 219.978 52.3926 215.236 52.3926C210.494 52.3926 206.65 56.2546 206.65 61.0187C206.65 65.7828 210.494 69.6448 215.236 69.6448Z" fill="#2D5887"/>
<path d="M242.479 80.1456H187.979C187.233 80.1456 186.486 79.3955 186.486 78.6454C186.486 77.8954 187.233 77.1453 187.979 77.1453H242.479C243.226 77.1453 243.972 77.8954 243.972 78.6454C243.972 79.3955 243.226 80.1456 242.479 80.1456Z" fill="#2D5887"/>
<path d="M242.479 91.7721H187.979C187.233 91.7721 186.486 91.022 186.486 90.2719C186.486 89.5218 187.233 88.7717 187.979 88.7717H242.479C243.226 88.7717 243.972 89.5218 243.972 90.2719C243.972 91.022 243.226 91.7721 242.479 91.7721Z" fill="#2D5887"/>
<path d="M242.479 111.65H187.979C187.233 111.65 186.486 110.9 186.486 110.15C186.486 109.025 186.86 108.274 187.979 108.274H242.479C243.226 108.274 243.972 109.025 243.972 109.775C243.972 110.9 243.226 111.65 242.479 111.65Z" fill="#2D5887"/>
<path d="M207.766 123.276H187.235C186.862 123.276 186.115 122.901 186.115 122.151V121.026C186.115 120.651 186.489 119.901 187.235 119.901H207.393C207.766 119.901 208.512 120.276 208.512 121.026V122.151C208.512 122.901 208.139 123.276 207.766 123.276Z" fill="#2D5887"/>
<path d="M242.479 143.904H187.979C187.233 143.904 186.486 143.154 186.486 142.404C186.486 141.654 187.233 140.904 187.979 140.904H242.479C243.226 140.904 243.972 141.654 243.972 142.404C243.972 143.154 243.226 143.904 242.479 143.904Z" fill="#2D5887"/>
<path d="M207.766 155.53H187.235C186.862 155.53 186.115 155.155 186.115 154.405V153.28C186.115 152.905 186.489 152.155 187.235 152.155H207.393C207.766 152.155 208.512 152.53 208.512 153.28V154.405C208.512 155.155 208.139 155.53 207.766 155.53Z" fill="#2D5887"/>
<path d="M242.479 176.158H187.979C187.233 176.158 186.486 175.408 186.486 174.658C186.486 173.908 187.233 173.158 187.979 173.158H242.479C243.226 173.158 243.972 173.908 243.972 174.658C243.972 175.783 243.226 176.158 242.479 176.158Z" fill="#2D5887"/>
<path d="M207.766 187.785H187.235C186.862 187.785 186.115 187.41 186.115 186.66V185.535C186.115 185.16 186.489 184.409 187.235 184.409H207.393C207.766 184.409 208.512 184.784 208.512 185.535V187.035C208.512 187.41 208.139 187.785 207.766 187.785Z" fill="url(#paint3_linear_1198_15971)"/>
<path d="M218.22 317.926C221.106 317.926 223.446 315.576 223.446 312.676C223.446 309.776 221.106 307.425 218.22 307.425C215.334 307.425 212.994 309.776 212.994 312.676C212.994 315.576 215.334 317.926 218.22 317.926Z" fill="url(#paint4_linear_1198_15971)"/>
<path d="M106.995 162.564L199.37 239.753C204.774 244.142 205.546 252.144 200.914 257.566L131.183 341.208C126.808 346.629 118.832 347.404 113.428 342.757L4.58508 251.886C-0.818474 247.498 -1.59041 239.495 3.04121 234.074L58.8779 166.953L106.995 162.564Z" fill="#E1EAF2"/>
<path d="M106.996 162.564L90.2705 182.959C87.4401 186.315 82.2938 186.831 78.6914 183.733L58.6211 166.953L106.996 162.564Z" fill="#CED7E2"/>
<path d="M220.982 271.765L213.263 277.187L120.373 343.016C113.94 347.663 104.934 346.114 100.56 339.66L7.92745 208.001C3.29583 201.547 4.8397 192.512 11.2725 188.123L92.0685 131.071L146.104 140.364L216.35 240.012L224.584 251.629C228.959 258.341 227.415 267.119 220.982 271.765Z" fill="#F0F5FA"/>
<path d="M146.102 140.363L122.172 157.66C118.055 160.758 112.137 159.725 109.049 155.336L92.0664 131.07H92.3237L146.102 140.363Z" fill="#CED7E2"/>
<path d="M220.985 271.765L213.266 277.186V240.012H216.096L224.33 251.629C228.962 258.341 227.418 267.118 220.985 271.765Z" fill="#CED7E2"/>
<path d="M242.085 198.965L201.43 329.075C199.114 336.562 191.137 340.951 183.675 338.369L66.0836 301.453C58.6215 299.129 54.5045 291.126 56.8203 283.382L104.68 130.037C106.996 122.551 114.973 118.162 122.435 120.744L216.869 150.174" fill="#F0F5FA"/>
<path opacity="0.5" d="M223.557 206.452L206.317 261.697C205.287 264.795 202.2 266.602 199.112 265.569L94.9004 232.784C91.8127 231.751 90.0115 228.653 91.0408 225.555L108.281 170.31C109.31 167.212 112.398 165.405 115.485 166.438L219.697 199.223C222.785 199.998 224.586 203.354 223.557 206.452Z" fill="#CED7E2"/>
<path d="M242.086 198.965L213.781 190.188C208.893 188.639 206.062 183.476 207.606 178.313L216.355 149.916H216.612L242.086 198.965Z" fill="#E6EDF5"/>
<path d="M202.972 181.41L171.58 178.312C166.177 177.796 162.06 172.891 162.832 167.212L166.177 135.717H166.434L202.972 181.41Z" fill="#CED7E2"/>
<path d="M202.972 172.117V317.458C202.972 325.977 196.282 332.69 187.791 332.69H56.3045C47.8132 332.69 41.123 325.977 41.123 317.458V145.785C41.123 137.266 48.0705 130.554 56.3045 130.554H161.545L202.972 172.117Z" fill="white"/>
<path d="M202.972 172.117L171.322 172.375C165.661 172.375 161.287 167.986 161.287 162.307V130.554H161.544L202.972 172.117Z" fill="#E1EAF2"/>
<path d="M173.895 250.854H73.8006C71.4848 250.854 69.6836 249.047 69.6836 246.723V188.897C69.6836 186.573 71.4848 184.766 73.8006 184.766H173.895C176.211 184.766 178.012 186.573 178.012 188.897V246.465C178.269 248.789 176.211 250.854 173.895 250.854Z" fill="#E6EDF5"/>
<path d="M127.579 241.819H85.8945L106.737 218.068L127.579 241.819Z" fill="#CED7E2"/>
<path d="M162.315 241.819H102.104L132.209 207.742L162.315 241.819Z" fill="white"/>
<path d="M101.592 209.549C105.997 209.549 109.569 205.966 109.569 201.546C109.569 197.126 105.997 193.543 101.592 193.543C97.1865 193.543 93.6152 197.126 93.6152 201.546C93.6152 205.966 97.1865 209.549 101.592 209.549Z" fill="#CED7E2"/>
<path d="M175.956 271.248H72.7738C71.2299 271.248 69.9434 269.957 69.9434 268.409C69.9434 266.86 71.2299 265.569 72.7738 265.569H175.956C177.5 265.569 178.786 266.86 178.786 268.409C178.786 269.957 177.5 271.248 175.956 271.248Z" fill="#CED7E2"/>
<path d="M175.956 287.254H72.7738C71.2299 287.254 69.9434 285.963 69.9434 284.414C69.9434 282.865 71.2299 281.574 72.7738 281.574H175.956C177.5 281.574 178.786 282.865 178.786 284.414C178.786 285.963 177.5 287.254 175.956 287.254Z" fill="#CED7E2"/>
<path d="M123.722 300.42C123.722 301.969 122.435 303.26 120.891 303.26H72.7738C71.2299 303.26 69.9434 301.969 69.9434 300.42C69.9434 298.871 71.2299 297.58 72.7738 297.58H120.891C122.435 297.58 123.722 298.871 123.722 300.42Z" fill="#CED7E2"/>
<path d="M125.78 153.788H72.7738C71.2299 153.788 69.9434 152.497 69.9434 150.948C69.9434 149.399 71.2299 148.108 72.7738 148.108H125.78C127.324 148.108 128.611 149.399 128.611 150.948C128.611 152.497 127.324 153.788 125.78 153.788Z" fill="#CED7E2"/>
<path d="M96.1892 169.793H72.7738C71.2299 169.793 69.9434 168.503 69.9434 166.954C69.9434 165.405 71.2299 164.114 72.7738 164.114H96.1892C97.7331 164.114 99.0196 165.405 99.0196 166.954C98.7623 168.503 97.7331 169.793 96.1892 169.793Z" fill="#CED7E2"/>
<path d="M144.819 344.048C143.275 348.179 140.445 351.793 136.585 353.858C122.69 361.087 107.509 347.404 111.883 332.69H116.257C111.111 349.47 130.924 357.473 139.158 346.372C141.217 343.79 140.702 343.79 150.737 311.521C153.31 303.002 145.076 298.613 139.158 301.711C135.299 303.776 135.813 304.809 127.065 332.69C126.807 333.206 126.807 333.722 126.807 333.722C126.293 336.046 128.094 338.111 130.152 337.853C132.468 337.853 132.725 334.755 133.497 332.69C137.357 320.298 138.129 317.975 138.129 317.717C139.158 315.393 143.018 316.168 141.989 319.524C136.071 339.918 136.071 339.918 133.24 341.209C126.807 344.565 120.632 337.078 122.69 332.69C131.696 303.518 131.439 300.678 136.842 298.097C145.334 293.708 154.34 298.871 155.369 307.132C155.626 309.714 156.141 308.939 144.819 344.048Z" fill="url(#paint5_linear_1198_15971)"/>
<g filter="url(#filter0_d_1198_15971)">
<ellipse cx="122.199" cy="224.485" rx="20.3667" ry="27.495" fill="#E8125C"/>
</g>
<path d="M154.598 222.973C153.312 206.968 139.931 193.802 123.978 193.285C117.03 193.027 110.34 194.834 104.937 198.449C96.1882 204.128 90.5273 214.196 90.5273 225.297C90.5273 235.881 95.6736 245.433 103.65 251.371C104.68 252.145 105.451 253.178 105.709 254.468C106.223 256.534 108.282 258.857 111.112 258.857C112.399 258.857 113.685 258.341 114.715 257.566C115.229 257.05 116.001 257.05 116.516 257.308C117.288 257.566 117.802 258.083 117.545 259.115C117.545 259.373 117.545 259.373 117.545 259.373C117.545 261.18 119.089 262.729 120.89 262.729C122.691 262.729 124.235 261.18 124.235 259.373C124.235 258.599 124.75 257.824 125.779 257.566C143.019 255.501 155.885 240.528 154.598 222.973Z" fill="#E8125C"/>
<path d="M109.309 268.925C110.872 268.925 112.139 267.654 112.139 266.086C112.139 264.517 110.872 263.246 109.309 263.246C107.746 263.246 106.479 264.517 106.479 266.086C106.479 267.654 107.746 268.925 109.309 268.925Z" fill="#E8125C"/>
<path d="M110.082 283.382C111.077 283.382 111.884 282.573 111.884 281.575C111.884 280.577 111.077 279.768 110.082 279.768C109.088 279.768 108.281 280.577 108.281 281.575C108.281 282.573 109.088 283.382 110.082 283.382Z" fill="#E8125C"/>
<path d="M121.663 272.281C122.942 272.281 123.979 271.241 123.979 269.958C123.979 268.675 122.942 267.635 121.663 267.635C120.384 267.635 119.348 268.675 119.348 269.958C119.348 271.241 120.384 272.281 121.663 272.281Z" fill="#E8125C"/>
<path d="M134.784 265.311C136.347 265.311 137.614 264.04 137.614 262.471C137.614 260.903 136.347 259.632 134.784 259.632C133.22 259.632 131.953 260.903 131.953 262.471C131.953 264.04 133.22 265.311 134.784 265.311Z" fill="#E8125C"/>
<path d="M130.413 285.705C131.407 285.705 132.214 284.896 132.214 283.898C132.214 282.9 131.407 282.091 130.413 282.091C129.418 282.091 128.611 282.9 128.611 283.898C128.611 284.896 129.418 285.705 130.413 285.705Z" fill="#E8125C"/>
<path d="M120.375 291.901C121.512 291.901 122.433 290.976 122.433 289.836C122.433 288.695 121.512 287.771 120.375 287.771C119.238 287.771 118.316 288.695 118.316 289.836C118.316 290.976 119.238 291.901 120.375 291.901Z" fill="#E8125C"/>
<path d="M122.694 310.747C123.12 310.747 123.466 310.4 123.466 309.972C123.466 309.545 123.12 309.198 122.694 309.198C122.267 309.198 121.922 309.545 121.922 309.972C121.922 310.4 122.267 310.747 122.694 310.747Z" fill="#E8125C"/>
<path d="M117.548 301.195C118.259 301.195 118.835 300.617 118.835 299.904C118.835 299.191 118.259 298.613 117.548 298.613C116.838 298.613 116.262 299.191 116.262 299.904C116.262 300.617 116.838 301.195 117.548 301.195Z" fill="#E8125C"/>
<path d="M104.937 198.19C110.083 194.834 116.001 193.027 122.691 193.027C140.446 193.027 154.855 207.484 154.855 225.297C154.855 243.109 140.446 257.566 122.691 257.566C104.937 257.566 90.5273 243.109 90.5273 225.297C90.5273 213.938 96.1882 204.128 104.937 198.19Z" fill="url(#paint6_linear_1198_15971)"/>
<path d="M152.541 236.914L134.271 218.585L128.096 216.261L121.406 213.68L111.113 222.974L121.92 233.816L120.377 241.303L134.271 255.243L152.541 236.914Z" fill="url(#paint7_linear_1198_15971)"/>
<path d="M124.748 209.033L134.269 218.585C135.555 219.875 135.555 221.683 134.269 222.973C132.982 224.264 131.181 224.264 129.895 222.973L125.52 218.585V239.237C125.52 240.786 124.234 242.335 122.433 242.335C120.889 242.335 119.345 241.044 119.345 239.237V218.585L114.97 222.973C113.684 224.264 111.883 224.264 110.596 222.973C110.082 222.457 109.824 221.683 109.824 220.908C109.824 220.134 110.082 219.359 110.596 218.843L120.117 209.291C120.631 208.775 121.403 208.517 122.175 208.517C122.947 208.517 124.234 208.517 124.748 209.033Z" fill="url(#paint8_linear_1198_15971)"/>
<defs>
<filter id="filter0_d_1198_15971" x="75.3554" y="196.99" width="93.6858" height="116.09" filterUnits="userSpaceOnUse" color-interpolation-filters="sRGB">
<feFlood flood-opacity="0" result="BackgroundImageFix"/>
<feColorMatrix in="SourceAlpha" type="matrix" values="0 0 0 0 0 0 0 0 0 0 0 0 0 0 0 0 0 0 127 0" result="hardAlpha"/>
<feOffset dy="34.6233"/>
<feGaussianBlur stdDeviation="13.2383"/>
<feColorMatrix type="matrix" values="0 0 0 0 0.1125 0 0 0 0 0.295916 0 0 0 0 1 0 0 0 0.21 0"/>
<feBlend mode="normal" in2="BackgroundImageFix" result="effect1_dropShadow_1198_15971"/>
<feBlend mode="normal" in="SourceGraphic" in2="effect1_dropShadow_1198_15971" result="shape"/>
</filter>
<linearGradient id="paint0_linear_1198_15971" x1="156.929" y1="16.7184" x2="466.915" y2="16.7184" gradientUnits="userSpaceOnUse">
<stop stop-color="#F2539D"/>
<stop offset="1" stop-color="white"/>
</linearGradient>
<linearGradient id="paint1_linear_1198_15971" x1="289.031" y1="90.7344" x2="359.365" y2="90.7344" gradientUnits="userSpaceOnUse">
<stop stop-color="#FF66A9"/>
<stop offset="1" stop-color="#F53689"/>
</linearGradient>
<linearGradient id="paint2_linear_1198_15971" x1="393.698" y1="217.752" x2="423.906" y2="217.752" gradientUnits="userSpaceOnUse">
<stop stop-color="#FF66A9"/>
<stop offset="1" stop-color="#F53689"/>
</linearGradient>
<linearGradient id="paint3_linear_1198_15971" x1="186.324" y1="186.303" x2="208.622" y2="186.303" gradientUnits="userSpaceOnUse">
<stop stop-color="#FF66A9"/>
<stop offset="1" stop-color="#F53689"/>
</linearGradient>
<linearGradient id="paint4_linear_1198_15971" x1="213.019" y1="312.669" x2="223.102" y2="312.669" gradientUnits="userSpaceOnUse">
<stop stop-color="#FF66A9"/>
<stop offset="1" stop-color="#F53689"/>
</linearGradient>
<linearGradient id="paint5_linear_1198_15971" x1="133.264" y1="296.981" x2="133.264" y2="351.786" gradientUnits="userSpaceOnUse">
<stop stop-color="#FF66A9"/>
<stop offset="1" stop-color="#F53689"/>
</linearGradient>
<linearGradient id="paint6_linear_1198_15971" x1="122.663" y1="194.597" x2="122.663" y2="259.843" gradientUnits="userSpaceOnUse">
<stop stop-color="#FF6EA0"/>
<stop offset="1" stop-color="#FF75A5"/>
</linearGradient>
<linearGradient id="paint7_linear_1198_15971" x1="122.623" y1="225.241" x2="141.116" y2="243.674" gradientUnits="userSpaceOnUse">
<stop stop-color="#E8125C"/>
<stop offset="1" stop-color="#FF6DA0"/>
</linearGradient>
<linearGradient id="paint8_linear_1198_15971" x1="134.613" y1="237.25" x2="117.268" y2="219.961" gradientUnits="userSpaceOnUse">
<stop offset="0.0113208" stop-color="#C2D1FF"/>
<stop offset="1" stop-color="white"/>
</linearGradient>
</defs>
</svg>