<svg width="48" height="48" viewBox="0 0 48 48" fill="none" xmlns="http://www.w3.org/2000/svg">
<path d="M12.1138 26.9331C14.5588 32.3231 19.2758 36.0001 23.9998 36.0001C28.7238 36.0001 33.4408 32.3231 35.8858 26.9331" stroke="#272E35" stroke-width="2" stroke-miterlimit="10" stroke-linecap="round" stroke-linejoin="round"/>
<path d="M36.6352 10.0001C35.5029 7.60702 33.7143 5.58471 31.4775 4.16852C29.2407 2.75233 26.6477 2.00049 24.0002 2.00049C21.3528 2.00049 18.7598 2.75233 16.523 4.16852C14.2862 5.58471 12.4975 7.60702 11.3652 10.0001" stroke="#272E35" stroke-width="2" stroke-miterlimit="10" stroke-linecap="round" stroke-linejoin="round"/>
<path d="M12 16H36" stroke="#272E35" stroke-width="2" stroke-miterlimit="10" stroke-linecap="round" stroke-linejoin="round"/>
<path d="M42 24V13C42 12.2044 41.6839 11.4413 41.1213 10.8787C40.5587 10.3161 39.7956 10 39 10H9C8.20435 10 7.44129 10.3161 6.87868 10.8787C6.31607 11.4413 6 12.2044 6 13V24C6 24.7956 6.31607 25.5587 6.87868 26.1213C7.44129 26.6839 8.20435 27 9 27H19L21.119 23.609C21.4249 23.121 21.8497 22.7186 22.3536 22.4397C22.8575 22.1608 23.424 22.0145 24 22.0145C24.576 22.0145 25.1425 22.1608 25.6464 22.4397C26.1503 22.7186 26.5751 23.121 26.881 23.609L29 27H39C39.7956 27 40.5587 26.6839 41.1213 26.1213C41.6839 25.5587 42 24.7956 42 24Z" stroke="#272E35" stroke-width="2" stroke-miterlimit="10" stroke-linecap="round" stroke-linejoin="round"/>
<path d="M17 33.321V36.569C16.9992 37.8515 16.5876 39.1 15.8254 40.1313C15.0633 41.1627 13.9907 41.9228 12.765 42.3L4 45" stroke="#272E35" stroke-width="2" stroke-miterlimit="10" stroke-linecap="round" stroke-linejoin="round"/>
<path d="M44 45L35.235 42.3C34.0093 41.9228 32.9367 41.1627 32.1746 40.1313C31.4124 39.1 31.0008 37.8515 31 36.569V33.321" stroke="#272E35" stroke-width="2" stroke-miterlimit="10" stroke-linecap="round" stroke-linejoin="round"/>
</svg>