<svg width="72" height="42" viewBox="0 0 72 42" fill="none" xmlns="http://www.w3.org/2000/svg">
<path d="M29.9533 41.9824C22.9971 42.1574 16.0708 41.0232 9.54446 38.6404C1.61308 35.3461 0.00100777 30.6512 0.00100777 27.3092C-0.0233833 25.2549 0.395234 23.219 1.22906 21.3367C2.06288 19.4544 3.29283 17.7688 4.83722 16.3918C14.5096 7.43186 35.4665 8.59362 36.4015 8.65728C36.6134 8.66945 36.8207 8.72278 37.0116 8.81422C37.2025 8.90566 37.3732 9.03341 37.514 9.19014C37.6548 9.34686 37.7628 9.52949 37.832 9.72753C37.9011 9.92558 37.93 10.1351 37.9169 10.3442C37.8879 10.7637 37.6919 11.1549 37.3717 11.4322C37.0515 11.7095 36.6332 11.8505 36.2081 11.8243C35.9985 11.8243 15.622 10.6943 6.98127 18.7153C5.7696 19.7997 4.8074 21.1278 4.15947 22.6102C3.51155 24.0927 3.19296 25.695 3.22515 27.3092C3.22515 31.638 7.33592 34.2639 10.8019 35.7121C24.7463 41.5209 53.9892 39.1178 64.7739 28.6938C66.6717 27.0504 67.982 24.8467 68.5106 22.4098C69.0391 19.9729 68.7576 17.4328 67.7079 15.1663C67.6112 14.8958 60.1151 -4.69507 15.5091 6.90667C15.0944 7.01641 14.6525 6.95902 14.2806 6.74712C13.9088 6.53521 13.6374 6.18616 13.5263 5.77674C13.4151 5.36732 13.4732 4.93107 13.6879 4.56397C13.9025 4.19687 14.2561 3.92898 14.6708 3.81924C62.4526 -8.59414 70.4001 13.1452 70.7225 14.0682C71.9991 16.9084 72.3295 20.0753 71.666 23.1127C71.0026 26.1501 69.3796 28.9011 67.0309 30.9695C59.438 38.3062 44.0105 41.9824 29.9533 41.9824Z" fill="#E8135C"/>
</svg>