<svg width="83" height="139" viewBox="0 0 83 139" fill="none" xmlns="http://www.w3.org/2000/svg">
<path d="M65.6665 137C65.4409 136.998 65.2185 136.947 65.015 136.849C64.6106 136.672 64.2923 136.341 64.1296 135.928C63.9668 135.516 63.9728 135.056 64.1463 134.648C64.2967 134.295 79.3819 98.3433 68.8907 64.2395C53.4881 14.0076 1.90093 3.39005 1.38305 3.39005C0.939991 3.30539 0.548517 3.04721 0.29475 2.67228C0.0409835 2.29736 -0.0542884 1.83642 0.0298935 1.39086C0.114075 0.945295 0.370815 0.551612 0.743633 0.296413C1.11645 0.0412147 1.57481 -0.0545947 2.01787 0.0300621C2.55245 0.130862 56.0441 11.0172 72.0815 63.2147C82.9402 98.4945 67.855 134.43 67.2034 135.942C67.0807 136.252 66.869 136.518 66.5953 136.706C66.3216 136.895 65.9983 136.997 65.6665 137Z" fill="#E8135C"/>
<path d="M64.0678 139C63.7209 138.999 63.3829 138.891 63.1004 138.692C62.818 138.493 62.6048 138.213 62.4903 137.889L56.0967 120.217C55.9476 119.802 55.9717 119.345 56.1637 118.947C56.3556 118.549 56.6998 118.243 57.1204 118.096C57.5409 117.948 58.0035 117.972 58.4064 118.162C58.8092 118.351 59.1192 118.691 59.2683 119.107L65.0243 135.021L80.5805 127.412C80.981 127.219 81.443 127.19 81.8647 127.333C82.2864 127.476 82.6333 127.779 82.8292 128.175C83.025 128.57 83.0537 129.027 82.9089 129.443C82.7642 129.86 82.4578 130.203 82.0572 130.396L64.8229 138.818C64.5891 138.936 64.3305 138.998 64.0678 139Z" fill="#E8135C"/>
</svg>